
<svg xmlns="http://www.w3.org/2000/svg" viewBox="0 0 55 55">
	<style type="text/css">
		.st0{fill:#F2F2F2;}
		.st1{fill:#36BBF5;}
		.st2{fill:#CBCBCB;}
		.st3{fill:#D3E1E7;}
		.st4{fill:#BDD6DB;}
		.st5{fill:#4A3C55;}
		.st6{fill:#8ED9FA;}
		.st7{fill:#8EA8AD;}
		.st8{fill:#B9CED7;}
		.st9{fill:#FFCC00;}
		.st10{fill:#1884B4;}
		.st11{fill:#BF9900;}
		.st12{fill:#ECBD02;}
	</style>
	<path class="st0" d="M22.22,18.88l1.87-16.62h6.83l1.87,16.62l1.21,10.77v13.28l-3.3,6.79h-0.92l2.72-5.69V29.65L30.45,4.6h-5.91
		l-2.06,25.05v14.38l2.74,5.69H24.3l-3.32-6.79V29.65L22.22,18.88"/>
	<path class="st1" d="M25.23,49.71l-2.74-5.69V29.65L24.54,4.6h5.91l2.06,25.05v14.38l-2.72,5.69h-4.35H25.23 M23.62,24.23
		l-0.53,5.42h8.81l-0.5-5.42l-0.08-0.94H23.7L23.62,24.23 M49.76,26.7l1.58-3.61h1.21l-1.61,18.16l-1.19-3.31V26.7 M5.23,37.94
		l-1.19,3.31L2.43,23.09h1.19l1.61,3.61V37.94"/>
	<path class="st2" d="M21.27,18.04l1.79-15.95c0.04-0.33,0.15-0.61,0.34-0.84c0.19-0.22,0.42-0.33,0.69-0.33h6.83
		c0.26,0,0.49,0.11,0.69,0.33c0.19,0.22,0.32,0.5,0.37,0.84l1.79,15.95l-0.98,0.84L30.92,2.26h-6.83l-1.87,16.62L21.27,18.04
		 M34.67,44.16l-3.06,6.25l-0.37,0.47l-0.53,0.17h-0.92v-1.34h0.92l3.3-6.79L34.67,44.16 M25.44,51.05H24.3l-0.5-0.17l-0.4-0.47
		l-3.06-6.25l0.63-1.24l3.32,6.79h0.92h0.21V51.05"/>
	<path class="st3" d="M34.99,20.48l11.45,8.23v11.27l-1.11,0.27v-3.58v-0.64l-9.31,2.17v-8.56L34.99,20.48 M20.03,20.48L19,29.65
		v8.56l-9.36-2.17v0.64v3.58l-1.08-0.27V28.71L20.03,20.48"/>
	<path class="st4" d="M20.03,20.48l2.19-1.61l-1.24,10.77v13.28L19,42.46v-3.58v-0.67v-8.56L20.03,20.48 M34.01,42.92V29.65
		L32.8,18.88l2.19,1.61l1.03,9.16v8.56v0.67v3.58L34.01,42.92"/>
	<path class="st5" d="M31.4,24.23l0.5,5.42h-8.81l0.53-5.42H31.4"/>
	<path class="st6" d="M31.4,24.23h-7.78l0.08-0.94h7.62L31.4,24.23"/>
	<path class="st7" d="M33.77,18.04l12.72,9.16c0.84-0.49,1.68-0.99,2.51-1.51l0.77,1l-3.32,2.01l-11.45-8.23l-2.19-1.61L33.77,18.04
		 M49.26,39.75l-2.35,1.44l-0.26,0.13l-1.32,0.3v-1.37l1.11-0.27l3.32-2.04L49.26,39.75 M36.02,43.83l-1.35,0.33l-0.66-1.24l2-0.47
		V43.83 M20.35,44.16L19,43.83v-1.37l1.98,0.47L20.35,44.16 M9.63,41.62l-1.27-0.3L8.1,41.19l-2.35-1.44l-0.53-1.81l3.32,2.04
		l1.08,0.27V41.62 M5.99,25.7l2.51,1.51l12.77-9.16l0.95,0.84l-2.19,1.61L8.55,28.71L5.23,26.7L5.99,25.7"/>
	<path class="st8" d="M46.44,28.71l3.32-2.01v11.24l-3.32,2.04V28.71 M36.02,38.21l9.31-2.17v0.64l-2.32,0.54l-2.32,0.57l-2.35,0.54
		l-2.32,0.57V38.21 M8.55,28.71v11.27l-3.32-2.04V26.7L8.55,28.71 M9.63,36.67v-0.64L19,38.21v0.67l-2.35-0.57l-2.32-0.54l-2.35-0.57
		L9.63,36.67"/>
	<path class="st9" d="M19,38.88v3.58l-2.35-0.57v-3.58L19,38.88 M36.02,42.46v-3.58l2.32-0.57v3.58L36.02,42.46 M40.68,37.77
		l2.32-0.57v3.61l-2.32,0.54V37.77 M11.98,40.82v-3.61l2.35,0.57v3.58L11.98,40.82"/>
	<path class="st10" d="M48.99,25.7l1.42-3.24c0.09-0.22,0.22-0.39,0.4-0.5l0.53-0.2h1.21c0.19,0,0.38,0.07,0.55,0.2l0.4,0.57
		l0.11,0.74L52,41.42c-0.04,0.29-0.13,0.55-0.29,0.77c-0.16,0.2-0.35,0.33-0.58,0.4l-0.69-0.17c-0.21-0.13-0.36-0.33-0.45-0.6
		l-0.74-2.07l0.5-1.81l1.19,3.31l1.61-18.16h-1.21l-1.58,3.61L48.99,25.7 M29.79,51.05h-4.35v-1.34h4.35V51.05 M5.76,39.75
		l-0.74,2.07l-0.47,0.6l-0.66,0.17l-0.61-0.4c-0.16-0.22-0.25-0.48-0.26-0.77L1.4,23.26c-0.04-0.27-0.01-0.51,0.08-0.74l0.4-0.57
		c0.18-0.13,0.36-0.2,0.55-0.2h1.19c0.19,0,0.37,0.07,0.53,0.2l0.4,0.5l1.45,3.24l-0.77,1l-1.61-3.61H2.43l1.61,18.16l1.19-3.31
		L5.76,39.75"/>
	<path class="st11" d="M45.33,41.62l-9.31,2.21v-1.37l2.32-0.57l2.35-0.54l2.32-0.54l2.32-0.57V41.62 M19,43.83l-9.36-2.21v-1.37
		l2.35,0.57l2.35,0.54l2.32,0.54L19,42.46V43.83"/>
	<path class="st12" d="M45.33,36.67v3.58l-2.32,0.57v-3.61L45.33,36.67 M9.63,40.25v-3.58l2.35,0.54v3.61L9.63,40.25 M38.34,38.31
		l2.35-0.54v3.58l-2.35,0.54V38.31 M14.33,37.77l2.32,0.54v3.58l-2.32-0.54V37.77"/>
</svg>
