
<svg xmlns="http://www.w3.org/2000/svg" viewBox="0 0 55 55">
	<style type="text/css">
	.st0{fill:#662EA9;}
	.st1{fill:#432062;}
	.st2{fill:#7644B7;}
	.st3{fill:#3A1B57;}
	.st4{fill:#8257C0;}
	.st5{fill:#776491;}
	.st6{fill:#26113F;}
	.st7{fill:#260F43;}
	.st8{fill:#7036AE;}
	.st9{fill:#5F4D59;}
	.st10{fill:#6F566B;}
	.st11{fill:#382B3C;}
	.st12{fill:#1B0B33;}
	.st13{fill:#99B8BD;}
	.st14{fill:#6D32B0;}
	.st15{fill:#2B1049;}
	.st16{fill:#7B6190;}
	.st17{fill:#3B1B5A;}
	.st18{fill:#59347A;}
	.st19{fill:#7F6799;}
	.st20{fill:#391754;}
	.st21{fill:#B58FD8;}
	.st22{fill:#5220A0;}
	.st23{fill:#D0B2E6;}
	.st24{fill:#371A54;}
	.st25{fill:#EBD3F7;}
	.st26{fill:#3D2062;}
	.st27{fill:#6D3AB1;}
	.st28{fill:#7134B3;}
	.st29{fill:#7339B1;}
	.st30{fill:#5A3D75;}
	.st31{fill:#7E6698;}
	.st32{fill:#512C72;}
	.st33{fill:#1D0037;}
	.st34{fill:#836299;}
	.st35{fill:#361854;}
	.st36{fill:#6935A4;}
	.st37{fill:#250F3F;}
	.st38{fill:#55268E;}
	.st39{fill:#5F4E75;}
</style>
<g>
	<path class="st0" d="M5.5,45.02c0.44-0.65,0.78-1.23,0.78-1.6c0-0.36-0.22-1.34,0-1.85c0.22-0.51,2.21-4.43,5.08-6.82
		s5.26-3.99,7-3.81c1.2-0.01,2.32-0.07,2.4-0.83c0.07-0.76-0.04-1.56-1.67-3.48c-1.63-1.92-6.68-7.91-6.89-8.31
		c-0.22-0.4-0.73-0.65-1.2-0.87c-0.47-0.22-1.45-0.54-1.67-0.62c-0.22-0.07-0.47,0.15-0.04,0.91s2.25,4.17,2.76,4.83
		c-1.45,1.52-3.52,5.12-3.7,5.66c-1.74,1.85-5.55,6.71-5.88,7.08c-0.25-0.15-0.4-0.51-0.51-0.62c-0.22,0.22-0.47,0.47-0.62,0.62
		c0,1.12,0.11,2.07,0.18,2.32c-0.36,0.29-0.76,0.94-0.51,1.34c0.25,0.4,1.23,2,1.42,2.32c0.18,0.33-0.18,0.76,0.11,1.38
		c0.29,0.62,0.32,1.31,0.47,1.45C3.29,44.37,4.36,44.84,5.5,45.02z"/>
	<path class="st1" d="M10.3,32.86c-0.89,0.83-3.11,3.86-3.43,4.8c-0.42,1.25-0.44,2.38-0.16,3.07c-0.19,0.35-0.54,0.75-0.52,1.31
		c0.02,0.56,0.2,0.94,0.09,1.38C6.17,43.87,6.22,43.8,6.11,44c-0.52-0.29-1.47-1.03-2.64-2.82c-1.16-1.79-1.46-2.74-1.49-3.13
		c0.36-0.89,0.98-1.28,1.01-1.49s-0.51-0.91-0.52-1.26s4.94-6.05,5.88-7.08c-0.52,1.72-0.25,2.34-0.25,2.34S9.68,32.44,10.3,32.86z"
		/>
	<g>
		<path class="st2" d="M18.37,30.94c0.51-0.01,0.41-1.06,0.32-1.36s-0.6-0.98-1.19-1.22c-0.6-0.24-2.62,1.02-3.32,1.52
			s-3.24,2.31-3.87,2.99c-0.63,0.68-3.38,3.93-3.58,5.31c-0.2,1.37-0.21,2.23-0.01,2.56c3.98-6.02,4.94-6.33,8.14-8.59
			C16.39,31.1,17.93,30.95,18.37,30.94z"/>
		<path class="st3" d="M6.71,40.89l-0.07-0.11c-0.2-0.35-0.2-1.2,0-2.62c0.21-1.43,3.05-4.76,3.6-5.35
			c0.42-0.45,1.72-1.46,3.86-2.99l0.02-0.01c0.03-0.02,2.63-1.84,3.4-1.53c0.63,0.25,1.15,0.98,1.24,1.28
			c0.07,0.25,0.16,0.98-0.08,1.3c-0.08,0.11-0.19,0.16-0.31,0.17l0,0c-0.18,0-1.82,0.07-3.47,1.19c-0.32,0.23-0.62,0.43-0.9,0.63
			c-2.51,1.74-3.65,2.53-7.22,7.94L6.71,40.89z M17.31,28.41c-0.66,0-2.28,0.96-3.09,1.53l-0.02,0.01
			c-2.14,1.52-3.43,2.52-3.84,2.96c-0.85,0.92-3.38,4-3.56,5.26c-0.17,1.2-0.2,2-0.08,2.38c3.53-5.32,4.68-6.12,7.18-7.86
			c0.28-0.19,0.58-0.4,0.9-0.63c1.69-1.15,3.37-1.21,3.56-1.21l0,0c0.08,0,0.14-0.03,0.18-0.1c0.2-0.27,0.12-0.95,0.06-1.16
			c-0.09-0.29-0.59-0.95-1.14-1.17C17.42,28.42,17.37,28.41,17.31,28.41z"/>
	</g>
	<g>
		<path class="st4" d="M17.49,28.36c1.39,0.14,2.56-0.03,2.45-0.65c0.71,0.79,1.09,2.12,0.75,2.64c-0.34,0.51-1.36,0.62-2.33,0.59
			C18.95,30.73,18.95,29.07,17.49,28.36z"/>
		<path class="st3" d="M18.63,31.03c-0.08,0-0.17,0-0.26,0l-0.44-0.01l0.41-0.15c0.17-0.06,0.29-0.29,0.31-0.6
			c0.03-0.6-0.32-1.41-1.19-1.83l-0.41-0.2l0.46,0.05c1.14,0.11,2.02,0.01,2.28-0.28c0.07-0.08,0.1-0.17,0.08-0.27l-0.05-0.28
			L20,27.65c0.74,0.82,1.12,2.2,0.76,2.74C20.48,30.81,19.77,31.03,18.63,31.03z M18.61,30.86C18.62,30.86,18.62,30.86,18.61,30.86
			c1.08,0,1.77-0.19,2.01-0.56c0.3-0.45-0.02-1.61-0.61-2.38c-0.02,0.07-0.06,0.13-0.11,0.19c-0.36,0.39-1.39,0.4-2.06,0.36
			c0.71,0.48,1,1.22,0.97,1.8C18.8,30.52,18.73,30.73,18.61,30.86z"/>
	</g>
	<g>
		<path class="st5" d="M9.99,18.98c0.94,0.28,1.96,0.82,2.25,1.04c1.12,1.42,3.32,4.76,3.77,5.99c-1.84-2.18-2.82-2.8-3.95-3.45
			C11.3,21.35,10.39,19.72,9.99,18.98z"/>
		<path class="st6" d="M16.12,26.21l-0.15-0.18c-1.78-2.11-2.75-2.76-3.94-3.44l-0.01-0.01c-0.74-1.19-1.65-2.81-2.07-3.58
			L9.9,18.91l0.1,0.03c0.95,0.28,1.98,0.83,2.26,1.04l0.01,0.01c1.11,1.39,3.33,4.78,3.77,6L16.12,26.21z M12.08,22.53
			c1.15,0.67,2.1,1.3,3.78,3.26c-0.6-1.37-2.62-4.43-3.66-5.74c-0.28-0.2-1.23-0.71-2.14-1C10.51,19.85,11.38,21.39,12.08,22.53z"/>
	</g>
	<path d="M10.31,32.91l-0.02-0.01c-0.31-0.15-1.8-1.55-2.22-2.31l0-0.01c-0.12-0.72,0.15-1.91,0.25-2.36l0,0
		c0.07-0.32,1.5-3.02,3.71-5.68l0.02-0.02l0.03,0.01c0.75,0.35,1.91,1.37,2.68,2.14l0.07,0.07c1.39,1.39,2.95,3.05,2.71,3.64
		l-0.01,0.03l-0.03-0.01c-1.34-0.23-4.97,2.72-6.51,3.98c-0.29,0.23-0.51,0.42-0.64,0.52L10.31,32.91z M8.14,30.55
		c0.41,0.72,1.83,2.06,2.16,2.26c0.13-0.1,0.35-0.28,0.62-0.5c1.54-1.25,5.14-4.18,6.54-4c0.17-0.65-1.91-2.73-2.7-3.52l-0.07-0.07
		c-0.75-0.75-1.89-1.75-2.62-2.11c-2.19,2.64-3.6,5.3-3.67,5.62l0,0C8.29,28.67,8.02,29.84,8.14,30.55z"/>
	<path class="st7" d="M3,36.56c0.86-1.36,3.76-5.38,5.03-6.69c0.11-0.83,0.2-1.23,0.32-1.65c-0.56,0.53-2.58,2.96-3.26,3.75
		c-0.67,0.79-2.39,2.95-2.61,3.32C2.53,35.51,2.87,36.34,3,36.56z"/>
	<g>
		<path class="st8" d="M13.29,19.69c-0.47-0.67-0.37-2.7-0.29-2.88s0.13-0.74,0.81-0.81c0.68-0.07,4.22,1.68,5.09,2.19
			c1.5-0.35,2.56-0.93,3.87-0.8c1.31,0.14,1.71,0.54,1.85,0.71c-1.33-0.26-1.99-0.22-2.34-0.11c-0.35,0.11-0.98,0.49-0.76,0.76
			c0.22,0.27,2.4,1.77,2.91,2.07c0.52,0.3,5.91,4.33,6.48,4.9c0.6,0.79,1.04,2.22,1.01,2.6c-0.93-0.11-2.18,0.31-2.37,0.5
			s-0.27,0.52-0.24,0.68c-0.54-0.03-1.5,0.13-1.77,0.3c-0.37-0.35-1.12-0.47-1.63-0.48c-0.52-0.01-5.19-1.15-5.74-1.35
			C18.99,26.5,13.94,20.61,13.29,19.69z"/>
		<path class="st6" d="M27.52,29.86l-0.02-0.02c-0.34-0.33-1.05-0.46-1.61-0.47c-0.5-0.01-5.16-1.14-5.75-1.36l-0.01,0L20.12,28
			c-0.51-0.65-1.76-2.14-3.09-3.72c-1.68-1.99-3.41-4.05-3.77-4.57l0,0c-0.48-0.68-0.39-2.71-0.3-2.92c0.01-0.03,0.02-0.06,0.04-0.1
			c0.07-0.23,0.21-0.67,0.81-0.73c0.7-0.07,4.16,1.64,5.1,2.19c0.47-0.11,0.89-0.24,1.3-0.37c0.89-0.28,1.67-0.52,2.57-0.42
			c0.91,0.1,1.56,0.34,1.88,0.72l0.07,0.09l-0.11-0.02c-1.09-0.21-1.87-0.25-2.32-0.11c-0.28,0.09-0.7,0.34-0.77,0.55
			c-0.02,0.06-0.01,0.1,0.03,0.15c0.21,0.26,2.4,1.77,2.9,2.06c0.55,0.32,5.92,4.34,6.49,4.91c0.61,0.8,1.05,2.24,1.02,2.63l0,0.04
			l-0.04,0c-0.9-0.1-2.15,0.3-2.34,0.49c-0.18,0.18-0.26,0.5-0.23,0.64l0.01,0.05l-0.05,0c-0.54-0.03-1.49,0.13-1.74,0.29
			L27.52,29.86z M20.18,27.94c0.63,0.23,5.22,1.34,5.71,1.35c0.55,0.01,1.27,0.14,1.64,0.47c0.3-0.16,1.17-0.31,1.72-0.29
			c-0.01-0.18,0.07-0.48,0.26-0.67c0.2-0.2,1.42-0.61,2.36-0.52c0-0.43-0.44-1.79-1-2.53c-0.56-0.56-5.92-4.57-6.47-4.89
			c-0.53-0.31-2.71-1.81-2.92-2.08c-0.05-0.07-0.07-0.14-0.04-0.22c0.08-0.25,0.53-0.51,0.82-0.6c0.46-0.14,1.19-0.11,2.24,0.08
			c-0.33-0.31-0.92-0.52-1.74-0.6c-0.88-0.09-1.65,0.15-2.54,0.42c-0.41,0.13-0.84,0.26-1.32,0.37l-0.02,0l-0.01-0.01
			c-0.93-0.56-4.27-2.19-5.02-2.19c-0.02,0-0.03,0-0.04,0c-0.55,0.06-0.67,0.44-0.74,0.68c-0.01,0.04-0.03,0.08-0.04,0.11
			c-0.07,0.17-0.18,2.18,0.29,2.84l0,0c0.36,0.51,2.1,2.57,3.77,4.56C18.41,25.8,19.66,27.29,20.18,27.94z"/>
	</g>
	<g>
		<path class="st3" d="M14.1,16.01c-0.8-0.16-1.25,0.73-0.98,1.03s5.12,3.81,6.29,4.68c1.17,0.87,7.81,5.52,8.25,5.85
			s1.03,0.3,1.28,0c0.24-0.3,0.46-0.93-1.36-2.61s-5.25-4.46-6.18-5.17C20.47,19.08,16.17,16.42,14.1,16.01z"/>
		<path class="st6" d="M28.36,27.85c-0.24,0-0.51-0.08-0.72-0.24c-0.17-0.13-1.29-0.92-2.7-1.91c-2.16-1.52-4.84-3.41-5.55-3.94
			c-0.32-0.24-0.91-0.67-1.59-1.17c-1.9-1.39-4.5-3.29-4.7-3.52c-0.13-0.14-0.12-0.4,0.02-0.64c0.16-0.29,0.51-0.56,1-0.46l0,0
			c1.13,0.22,2.85,1.09,4.09,1.78c1.52,0.84,2.8,1.68,3.22,2.01c0.99,0.75,4.37,3.5,6.18,5.17c1.38,1.28,1.81,2.12,1.36,2.67
			C28.83,27.77,28.61,27.85,28.36,27.85z M13.92,16.03c-0.35,0-0.6,0.22-0.73,0.44c-0.12,0.21-0.13,0.43-0.03,0.54
			c0.2,0.22,2.9,2.19,4.69,3.5c0.69,0.5,1.28,0.94,1.59,1.17c0.71,0.53,3.39,2.42,5.55,3.94c1.41,1,2.53,1.78,2.7,1.91
			c0.44,0.33,1,0.27,1.22,0.01c0.15-0.18,0.61-0.74-1.36-2.56c-1.8-1.67-5.19-4.41-6.18-5.17c-0.99-0.76-5.28-3.38-7.28-3.78l0,0
			C14.03,16.04,13.97,16.03,13.92,16.03z"/>
	</g>
	<g>
		<path class="st9" d="M19.96,30.81c0.71,0.36,1.93,0.66,2.71,0.78c0.84,0.13,2.14,0.15,2.38,0.12c-0.68-0.77-0.35-1.42-0.16-1.71
			s0.62-0.74,1.01-0.67c-1.12-0.16-4.82-1.09-5.74-1.35c0.67,0.94,0.68,1.78,0.61,2.13C20.69,30.46,20.29,30.76,19.96,30.81z"/>
		<path class="st6" d="M24.7,31.81c-0.51,0-1.41-0.04-2.05-0.13c-0.84-0.13-2.04-0.44-2.73-0.78l-0.22-0.11l0.24-0.04
			c0.31-0.05,0.68-0.33,0.74-0.64c0.02-0.1,0.17-0.99-0.6-2.07l-0.14-0.19l0.23,0.06c0.9,0.26,4.57,1.18,5.7,1.35
			c0.01,0,0.02,0,0.03,0l-0.03,0.16c-0.01,0-0.01,0-0.02,0c-0.33-0.04-0.73,0.37-0.9,0.64c-0.36,0.56-0.31,1.09,0.16,1.62l0.11,0.12
			l-0.16,0.02C24.99,31.8,24.86,31.81,24.7,31.81z M20.19,30.83c0.69,0.3,1.74,0.56,2.49,0.68c0.7,0.11,1.76,0.14,2.2,0.13
			c-0.41-0.54-0.43-1.11-0.07-1.69c0.12-0.19,0.36-0.47,0.64-0.62c-1.32-0.26-4.06-0.94-5.11-1.22c0.51,0.8,0.59,1.57,0.5,2.01
			C20.78,30.44,20.48,30.71,20.19,30.83z"/>
	</g>
	<g>
		<path class="st10" d="M25.05,31.71c0.42,0.39,1.31,0.56,1.77,0.54c0.46-0.02,0.58-0.04,0.71-0.15c-0.58-0.23-0.73-0.55-0.83-0.98
			c-0.13-0.56,0.14-1.22,0.83-1.32c-0.33-0.26-1.05-0.54-1.63-0.48C25.2,29.21,24,30.76,25.05,31.71z"/>
		<path class="st6" d="M26.74,32.33c-0.5,0-1.33-0.18-1.75-0.56c-0.47-0.43-0.57-1.03-0.27-1.65c0.27-0.55,0.78-0.94,1.17-0.88
			c0.58-0.06,1.33,0.21,1.68,0.5l0.15,0.12l-0.19,0.03c-0.27,0.04-0.49,0.17-0.63,0.38c-0.16,0.23-0.21,0.54-0.14,0.84
			c0.11,0.45,0.26,0.71,0.78,0.92l0.13,0.05l-0.11,0.09c-0.14,0.12-0.29,0.14-0.76,0.16C26.79,32.33,26.76,32.33,26.74,32.33z
			 M25.81,29.4c-0.31,0-0.73,0.35-0.94,0.8c-0.13,0.26-0.35,0.92,0.23,1.45l0,0c0.4,0.36,1.26,0.53,1.71,0.51
			c0.28-0.01,0.43-0.03,0.52-0.05c-0.51-0.25-0.64-0.6-0.73-0.97c-0.08-0.34-0.02-0.7,0.16-0.97c0.13-0.2,0.32-0.34,0.55-0.41
			c-0.36-0.23-0.95-0.41-1.43-0.36l-0.01,0l-0.01,0C25.86,29.41,25.84,29.4,25.81,29.4z"/>
	</g>
	<g>
		<path class="st11" d="M27.52,29.81c0.05-0.11,1.47-0.42,1.77-0.3c0.3,0.12,1.63,1.37,1.4,1.99c1.61,1.28,7.32,5.5,7.68,5.72
			c0.35,0.22,0.29,0.86,0.08,1.05c-0.2,0.19-1.02,0.27-1.37,0c-0.35-0.27-6.19-5.12-6.49-5.36c-0.48,0.16-1.14,0.27-1.71-0.27
			c-0.44,0.07-1.27-0.06-1.35-0.52c-0.53-0.14-0.95-0.78-0.85-1.41C26.76,30.06,27.22,29.85,27.52,29.81z"/>
		<path class="st12" d="M37.75,38.48c-0.26,0-0.53-0.05-0.7-0.18c-0.26-0.2-3.36-2.77-5.21-4.3c-0.66-0.54-1.14-0.95-1.27-1.05
			c-0.71,0.24-1.27,0.15-1.72-0.27c-0.44,0.06-1.26-0.07-1.37-0.53c-0.56-0.17-0.95-0.83-0.86-1.45c0.11-0.74,0.68-0.89,0.88-0.91
			c0.11-0.1,0.68-0.22,0.8-0.24c0.18-0.03,0.8-0.14,1-0.06c0.33,0.13,1.62,1.37,1.43,2.01c1.68,1.33,7.31,5.49,7.65,5.69
			c0.15,0.09,0.24,0.26,0.26,0.48c0.02,0.25-0.05,0.51-0.18,0.63C38.36,38.4,38.06,38.48,37.75,38.48z M30.59,32.85l0.02,0.01
			c0.08,0.07,0.59,0.49,1.28,1.06c1.85,1.53,4.95,4.1,5.21,4.3c0.33,0.25,1.12,0.19,1.32,0c0.11-0.1,0.17-0.34,0.15-0.56
			c-0.02-0.19-0.1-0.34-0.23-0.42c-0.34-0.21-6.03-4.41-7.68-5.72l-0.02-0.02l0.01-0.03c0.09-0.25-0.08-0.65-0.49-1.14
			c-0.35-0.41-0.75-0.74-0.88-0.8c-0.27-0.11-1.63,0.18-1.72,0.28l-0.01,0.02l-0.02,0c-0.17,0.02-0.72,0.15-0.82,0.85
			c-0.09,0.59,0.29,1.22,0.82,1.37l0.03,0.01l0,0.03c0.08,0.44,0.9,0.55,1.3,0.49l0.02,0l0.01,0.01c0.43,0.41,0.98,0.5,1.67,0.26
			L30.59,32.85z"/>
	</g>
	<path class="st13" d="M33.08,33.32c-0.35,0.31-0.51,0.83-0.43,1.28c0.21,0.17,0.33,0.27,0.43,0.36c-0.09-0.48,0.12-1.13,0.39-1.35
		C33.22,33.42,33.08,33.32,33.08,33.32z"/>
	<path class="st13" d="M33.26,35.11c0-0.3,0.14-1.15,0.4-1.35c0.19,0.14,0.29,0.22,0.42,0.31c-0.2,0.29-0.41,1.17-0.31,1.47
		C33.47,35.29,33.26,35.11,33.26,35.11z"/>
	<path class="st13" d="M33.96,35.68c0-0.44,0.08-1.07,0.35-1.44c0.27,0.2,0.3,0.23,0.44,0.33c-0.29,0.22-0.37,1.11-0.29,1.53
		C34.26,35.96,34.1,35.81,33.96,35.68z"/>
	<path class="st13" d="M35.5,35.12c-0.35,0.35-0.47,1-0.4,1.51c0.21,0.19,0.3,0.24,0.41,0.34c-0.06-0.39,0.09-1.34,0.43-1.52
		C35.69,35.27,35.5,35.12,35.5,35.12z"/>
	<path class="st13" d="M35.75,37.16c-0.04-0.32,0.04-1.14,0.38-1.58c0.19,0.16,0.32,0.24,0.44,0.32c-0.26,0.34-0.39,1.33-0.34,1.64
		C35.93,37.28,35.75,37.16,35.75,37.16z"/>
	<path class="st13" d="M36.45,37.71c0-0.5,0.07-1.22,0.34-1.64c0.16,0.1,0.35,0.24,0.49,0.36c-0.29,0.25-0.42,1.23-0.34,1.7
		C36.71,37.94,36.45,37.71,36.45,37.71z"/>
	<g>
		<path class="st14" d="M28.61,32.64c-0.12,0.35,0.24,1.69,1.54,1.96c0.53,0.11,1.08,0.14,1.32,0.11c0.94,0.73,6.88,5.11,7.21,5.34
			c0.66,0.47,1.72-0.04,1.51-0.5c-0.2-0.46-1.24-1.26-1.61-1.55c-0.22,0.44-1.11,0.59-1.51,0.26c-0.4-0.33-5.93-4.9-6.49-5.36
			c-0.7,0.22-1.14,0.2-1.71-0.27C28.8,32.62,28.61,32.64,28.61,32.64z"/>
		<path class="st15" d="M39.3,40.28c-0.22,0-0.45-0.06-0.64-0.19c-0.27-0.19-6.21-4.56-7.2-5.33c-0.26,0.02-0.8,0-1.32-0.11
			c-0.73-0.15-1.13-0.62-1.34-0.98c-0.24-0.42-0.3-0.84-0.23-1.03l0.01-0.03l0.03,0c0.01,0,0.19-0.02,0.26-0.02h0.01l0.01,0.01
			c0.53,0.43,0.94,0.5,1.68,0.26l0.02-0.01l0.02,0.01c0.5,0.42,6.09,5.04,6.49,5.36c0.19,0.15,0.52,0.21,0.85,0.14
			c0.29-0.06,0.51-0.21,0.6-0.38l0.02-0.05l0.14,0.11c0.43,0.34,1.32,1.05,1.51,1.49c0.07,0.16,0.01,0.34-0.17,0.49
			C39.87,40.18,39.59,40.28,39.3,40.28z M31.48,34.66l0.01,0.01c0.95,0.75,6.94,5.15,7.21,5.34c0.41,0.29,0.99,0.2,1.3-0.05
			c0.15-0.12,0.21-0.27,0.15-0.4c-0.18-0.42-1.07-1.12-1.49-1.46l-0.07-0.05c-0.11,0.18-0.34,0.32-0.63,0.38
			c-0.36,0.08-0.71,0.02-0.92-0.15c-0.4-0.32-5.87-4.85-6.47-5.35c-0.65,0.2-1.12,0.21-1.72-0.28c-0.06,0-0.16,0.01-0.21,0.01
			c-0.04,0.16,0.01,0.54,0.23,0.94c0.2,0.35,0.58,0.8,1.28,0.94c0.52,0.11,1.06,0.14,1.31,0.11L31.48,34.66z"/>
	</g>
	<g>
		<path class="st16" d="M38.56,37.44c0.46,0.1,1.93,0.18,1.78-0.22c-0.15-0.4-6.31-5.06-6.51-5.3c-0.2-0.24-1.18-2.81-1.45-3.16
			c-0.27-0.34-0.25-0.49-1.14-0.44s-1.54,0.27-1.7,0.5c-0.16,0.23-0.26,0.55-0.24,0.68c0.53,0.3,1.64,1.43,1.4,1.99
			c1.33,1.03,7.56,5.61,7.68,5.72S38.56,37.44,38.56,37.44z"/>
		<path class="st3" d="M39.49,37.61c-0.38,0-0.76-0.04-0.94-0.09l-0.03-0.01l-0.02-0.03c0,0-0.07-0.12-0.17-0.21
			c-0.05-0.05-1.11-0.83-2.33-1.73c-1.91-1.42-4.54-3.36-5.34-3.98l-0.05-0.04l0.03-0.06c0.2-0.47-0.81-1.56-1.37-1.88l-0.04-0.02
			l-0.01-0.04c-0.02-0.16,0.1-0.5,0.26-0.74c0.18-0.27,0.89-0.48,1.76-0.54c0.79-0.05,0.9,0.05,1.12,0.35
			c0.03,0.04,0.06,0.08,0.09,0.12c0.15,0.19,0.49,0.99,0.82,1.76c0.27,0.63,0.55,1.29,0.63,1.39c0.06,0.08,0.93,0.75,1.84,1.46
			c2.6,2.03,4.59,3.6,4.69,3.86c0.03,0.08,0.02,0.16-0.04,0.22C40.25,37.56,39.87,37.61,39.49,37.61z M38.61,37.37
			c0.45,0.09,1.48,0.13,1.65-0.06c0.01-0.01,0.02-0.03,0.01-0.06c-0.11-0.26-2.94-2.47-4.63-3.79c-1.18-0.92-1.79-1.4-1.87-1.49
			c-0.1-0.11-0.31-0.62-0.66-1.43c-0.31-0.73-0.66-1.55-0.8-1.73c-0.03-0.04-0.06-0.08-0.09-0.12c-0.18-0.24-0.24-0.33-0.98-0.28
			c-0.9,0.06-1.51,0.28-1.64,0.46c-0.14,0.2-0.23,0.46-0.23,0.59c0.54,0.33,1.58,1.39,1.42,2.01c0.85,0.66,3.41,2.55,5.29,3.94
			c1.47,1.08,2.3,1.7,2.34,1.74C38.51,37.23,38.58,37.32,38.61,37.37z"/>
	</g>
	<path class="st17" d="M38.56,37.44c0.06,0.38,0.48,0.51,1.11,0.54c0.64,0.04,0.74,0.19,0.96,0.15c0.6-0.34,1.4-2.6,1.18-3.17
		c-0.33-0.32-5.24-4.7-6.07-5.12c-0.84-0.41-2.93-0.9-3.27-0.94c0.52,1.13,1.16,2.84,1.36,3.02c0.21,0.18,6.46,4.97,6.51,5.3
		C40.4,37.55,39.48,37.57,38.56,37.44z"/>
	<path class="st18" d="M40.63,38.13c0,0.23,1.74,1.85,2.14,1.85c0.56,0.44,4.45,3.39,5.1,3.43c0.8,0.73,1.85,1.23,2,1.45
		c0.15,0.22,0.8,1.07,2.01,1.02c1.22-0.05,1.96-1.29,1.91-2.12c0.38-0.25,0.28-1.31,0.17-1.67c0,1.01-0.93,1-1.26,1
		c-0.33,0-1.43-0.09-2.7-1.2c-1.27-1.11-7.33-6.14-8.18-6.92C41.99,35.88,41.21,37.68,40.63,38.13z"/>
	<g>
		<path class="st19" d="M23.56,20.27c1.07,0.7,6.44,4.54,7.33,5.45c0.63,0.64,1.01,2.24,1.01,2.6c0.26,0.17,0.47,0.44,0.56,0.58
			c0.4,0.08,2.45,0.48,3.27,0.94s5.45,4.58,6.07,5.12c0.62,0.54,8.2,7.04,8.98,7.51c0.78,0.47,2.22,0.91,2.85,0.37
			c0.63-0.54,0.25-1.9-0.55-3.68c-1.16-2.59-7.85-10.44-13.27-13.69c-4.9-2.94-12.85-6.66-14.34-7.06
			C23.99,18,23.01,19.9,23.56,20.27z"/>
		<path class="st6" d="M52.81,43.13c-0.69,0-1.52-0.31-2.04-0.62c-0.79-0.48-8.47-7.06-8.99-7.51c-0.08-0.07-0.24-0.21-0.46-0.4
			c-1.34-1.18-4.9-4.31-5.61-4.71c-0.37-0.21-1.22-0.54-3.24-0.93l-0.04-0.01l-0.01-0.02c-0.1-0.16-0.31-0.41-0.54-0.56l-0.02-0.01
			v-0.02c0-0.39-0.4-1.96-1-2.57c-0.89-0.9-6.2-4.72-7.33-5.45l0,0c-0.22-0.15-0.24-0.5-0.05-0.91c0.42-0.92,1.32-1.22,2-1.03
			c1.48,0.4,9.39,4.08,14.35,7.07c5.36,3.22,12.1,11.06,13.28,13.71c0.67,1.5,1.26,3.12,0.54,3.73
			C53.45,43.05,53.15,43.13,52.81,43.13z M32.49,28.87L32.49,28.87c1.61,0.32,2.74,0.65,3.27,0.95c0.71,0.4,4.28,3.54,5.62,4.72
			c0.21,0.19,0.37,0.33,0.46,0.4c0.49,0.43,8.2,7.03,8.98,7.5c0.76,0.46,2.18,0.9,2.8,0.38c0.68-0.58,0.1-2.16-0.56-3.64
			c-1.18-2.64-7.91-10.46-13.25-13.67c-4.96-2.98-12.86-6.66-14.33-7.06c-0.89-0.24-1.61,0.34-1.9,0.99
			c-0.17,0.36-0.16,0.69,0.02,0.81c1.13,0.73,6.45,4.55,7.34,5.46c0.64,0.65,1.01,2.23,1.02,2.61
			C32.18,28.46,32.38,28.7,32.49,28.87z"/>
	</g>
	<path class="st20" d="M25.56,18.43c-0.43-0.24-1.37-0.41-2.47-0.51c-0.97-0.09-1.71,0.44-1.62,0.71c0.11,0.37,1.19,1.13,1.94,1.54
		C23.25,19.26,24.28,18.05,25.56,18.43z"/>
	<g>
		<path class="st21" d="M52.08,41.54l-5.23-5.49c0,0,0.07-0.9,0-1.51c0.49-0.57,1.5-1.02,2.07-1.01c1.46,1.6,4.33,5.06,4.86,7.45
			C53.26,40.9,52.48,41.23,52.08,41.54z"/>
		<path class="st22" d="M52.08,41.57l-0.01-0.01l-5.23-5.5l0-0.01c0-0.01,0.07-0.91,0-1.51l0-0.01l0.01-0.01
			c0.5-0.59,1.49-1.01,2.06-1.01c0.01,0,0.02,0,0.03,0l0.01,0l0.01,0.01c0.71,0.77,4.27,4.77,4.86,7.46L53.81,41l-0.03,0
			c-0.51-0.07-1.27,0.24-1.69,0.56L52.08,41.57z M46.88,36.04l5.21,5.47c0.42-0.32,1.16-0.61,1.68-0.56
			c-0.61-2.68-4.12-6.62-4.84-7.41c-0.01,0-0.01,0-0.02,0c-0.55,0-1.54,0.43-2.03,0.99C46.94,35.11,46.88,35.94,46.88,36.04z"/>
	</g>
	<g>
		<path class="st23" d="M44.13,36.87c0.58-0.56,1.63-0.77,2.72-0.83c1.43,1.5,4.92,5.11,5.23,5.49c-0.42,0.36-0.58,0.88-0.13,1.42
			c-0.14-0.04-0.55-0.03-1.16-0.49C50.18,42.01,45.04,37.71,44.13,36.87z"/>
		<path class="st22" d="M52.01,43l-0.07-0.02c-0.02-0.01-0.06-0.01-0.1-0.02c-0.2-0.03-0.56-0.09-1.07-0.47
			c-0.61-0.46-5.77-4.78-6.66-5.6l-0.02-0.01l0.02-0.02c0.5-0.49,1.42-0.77,2.73-0.84l0.01,0l0.01,0.01
			c0.45,0.47,1.09,1.14,1.78,1.86c1.52,1.58,3.24,3.37,3.45,3.64l0.01,0.02l-0.01,0.01c-0.23,0.2-0.69,0.73-0.13,1.39L52.01,43z
			 M44.16,36.87c0.93,0.85,6.03,5.12,6.64,5.58c0.5,0.37,0.86,0.43,1.05,0.47c0.02,0,0.03,0,0.04,0.01
			c-0.36-0.47-0.31-0.98,0.15-1.39c-0.26-0.31-1.94-2.07-3.43-3.62c-0.68-0.71-1.33-1.38-1.77-1.85
			C45.56,36.13,44.66,36.41,44.16,36.87z"/>
	</g>
	<path class="st24" d="M32.63,28.9c0-0.41,0.34-1.66,0.62-2.03c-0.79-0.74-2.02-1.98-2.22-2.23c-0.24,0.24-0.43,0.71-0.35,0.88
		c0.08,0.17,0.39,0.11,0.82,1.25c0.43,1.14,0.42,1.33,0.4,1.55c0.33,0.09,0.48,0.4,0.56,0.58H32.63z"/>
	<path class="st24" d="M30.11,25.04c0.09-0.4,0.32-0.69,0.56-0.82c-0.76-0.56-1.27-0.89-1.57-1.18c-0.26,0.22-0.47,0.67-0.4,0.91
		C29.1,24.26,30.11,25.04,30.11,25.04z"/>
	<g>
		<path class="st25" d="M49.38,38.7v1.16c0,0,2.03,1.97,2.35,2.2c0.06-0.26,0.36-0.51,0.36-0.51L49.38,38.7z"/>
		<path class="st22" d="M51.74,42.08l-0.02-0.02c-0.31-0.23-2.26-2.12-2.35-2.2l-0.01-0.01v-1.22l0.04,0.04l2.72,2.86l-0.02,0.01
			c0,0-0.29,0.25-0.35,0.5L51.74,42.08z M49.4,39.84c0.12,0.12,1.95,1.88,2.31,2.17c0.07-0.22,0.28-0.42,0.34-0.48l-2.65-2.79V39.84
			z"/>
	</g>
	<path class="st26" d="M26.18,18.65c-0.77-1.1-4.89-3.94-4.92-4.3c-0.03-0.35,0.11-1.2,2.69-0.54s8.26,4.52,9.3,5.47
		s3.9,4.12,4.02,4.74C29.1,19.91,27.75,19.19,26.18,18.65z"/>
	<path class="st27" d="M21.26,14.35c0,0.86,0.2,2.72,0.45,3.08c0.88-0.11,2.16-0.06,2.89,0.68c0.56,0.16,1.26,0.39,1.57,0.54
		c-1.24-1.48-2.31-2.07-3.41-2.96S21.53,14.59,21.26,14.35z"/>
	<g>
		<path class="st28" d="M28.7,16.13c1.04-0.25,3.6-0.44,4.85-0.36c1.31,0.79,3.04,2.31,3.73,2.95c0.59,0.55,2.69,3.16,2.69,4.76
			s-0.28,1.82-0.37,1.85c-1.59-0.92-1.91-1.12-2.32-1.32c-2.38-3.66-4.79-5.35-5.84-6.1C30.36,17.13,29.06,16.35,28.7,16.13z"/>
		<path class="st6" d="M39.6,25.43l-0.04-0.02c-0.46-0.26-0.81-0.47-1.09-0.63c-0.68-0.39-0.93-0.54-1.22-0.69l-0.02-0.01
			l-0.01-0.02c-2.31-3.56-4.62-5.22-5.74-6.02l-0.08-0.06c-0.5-0.36-1.38-0.96-2.74-1.78l-0.17-0.1l0.19-0.05
			c1.05-0.26,3.61-0.45,4.88-0.37l0.02,0l0.02,0.01c1.52,0.92,3.52,2.76,3.74,2.96c0.66,0.61,2.72,3.21,2.72,4.82
			c0,1.15-0.15,1.82-0.42,1.93L39.6,25.43z M37.34,23.95c0.28,0.14,0.54,0.29,1.21,0.68c0.27,0.16,0.61,0.35,1.05,0.61
			c0.09-0.07,0.29-0.39,0.29-1.76c0-1.54-2.05-4.13-2.67-4.7c-0.22-0.2-2.2-2.02-3.7-2.93c-1.17-0.07-3.49,0.09-4.61,0.32
			c1.26,0.77,2.09,1.33,2.57,1.68l0.08,0.06C32.69,18.71,35.01,20.38,37.34,23.95z"/>
	</g>
	<g>
		<path class="st29" d="M31.98,15.76c-0.33-0.31-0.43-0.65-0.43-0.65s1.87-5.82,2.12-5.99c1.15,0.11,2.64,1.28,2.9,1.71
			s2.55,8.36,3.01,9.91c0.46,1.55,1.36,3.97,0.24,4.72c-0.09-0.05-0.16-0.09-0.22-0.13c0.31-0.43,0.55-1.51,0.26-2.57
			c-0.29-1.05-1.54-3.93-6.32-7C33.02,15.74,32.19,15.76,31.98,15.76z"/>
		<path class="st6" d="M39.83,25.56l-0.12-0.07c-0.05-0.03-0.1-0.06-0.14-0.09l-0.08-0.05l0.05-0.07c0.28-0.39,0.54-1.42,0.25-2.5
			c-0.23-0.83-1.34-3.77-6.26-6.94c-0.51-0.02-1.32-0.01-1.54,0l-0.03,0l-0.02-0.02c-0.34-0.32-0.45-0.68-0.45-0.69l-0.01-0.02
			l0.01-0.02c0.44-1.37,1.9-5.87,2.15-6.03l0.02-0.02l0.03,0c1.18,0.11,2.69,1.29,2.97,1.75c0.2,0.33,1.42,4.47,2.54,8.32
			c0.21,0.72,0.38,1.29,0.47,1.6c0.05,0.15,0.1,0.32,0.15,0.49c0.47,1.53,1.12,3.62,0.06,4.33L39.83,25.56z M39.72,25.31
			c0.02,0.01,0.05,0.03,0.07,0.04l0.03,0.02c0.89-0.67,0.28-2.66-0.17-4.11c-0.05-0.17-0.1-0.33-0.15-0.49
			c-0.09-0.31-0.26-0.89-0.47-1.6c-0.81-2.78-2.33-7.95-2.53-8.28c-0.25-0.43-1.7-1.54-2.8-1.67c-0.23,0.32-1.37,3.75-2.06,5.9
			c0.03,0.08,0.13,0.33,0.38,0.57c0.27-0.01,1.05-0.02,1.54,0l0.02,0l0.02,0.01c4.98,3.21,6.12,6.21,6.35,7.05
			C40.21,23.72,40.04,24.78,39.72,25.31z"/>
	</g>
	<path class="st30" d="M38.68,17.69c1.68,0,4.41,1.67,4.79,2.08c1.01,0.19,6.27,2.76,6.85,3.14c-0.15-0.42,0.18-0.24,0.41,0
		s1.89,2.15,2.16,2.43c0.27,0.28,0.8,1.64-0.37,0.44c-1.11-1.13-2.41-2.28-3.91-2.87c-1.5-0.59-4.13-0.5-5.3-0.31
		s-2.62,1.29-2.96,1.3C39.97,21.71,39.16,19.33,38.68,17.69z"/>
	<g>
		<path class="st0" d="M40.24,23.28c1.61-1.1,3.34-1.51,4.5-1.45c0-0.8-0.76-1.56-1.26-2.07s-3.45-2.21-4.79-2.08
			C39.35,19.73,40.11,22.34,40.24,23.28z"/>
		<path class="st6" d="M40.17,23.43l-0.02-0.13c-0.12-0.94-0.87-3.52-1.55-5.58l-0.03-0.1l0.1-0.01c1.34-0.13,4.32,1.56,4.86,2.1
			l0.02,0.03c0.5,0.51,1.26,1.28,1.26,2.1v0.09l-0.09,0c-1.05-0.05-2.78,0.3-4.45,1.44L40.17,23.43z M38.79,17.76
			c0.64,1.96,1.34,4.36,1.5,5.38c1.62-1.07,3.28-1.42,4.35-1.4c-0.05-0.72-0.75-1.43-1.21-1.9l-0.02-0.03
			c-0.49-0.5-3.24-2.06-4.57-2.06C38.82,17.76,38.81,17.76,38.79,17.76z"/>
	</g>
	<g>
		<path class="st31" d="M33.05,10.62l3.13,2.72l0.84,3.76l0.95,0.8l0.16,1.8c0,0-1.1-1.37-2.37-2.33c-1.27-0.96-1.74-1.36-2.22-1.61
			c-0.64-0.02-1.06-0.03-1.57,0c-0.23-0.27-0.43-0.65-0.43-0.65L33.05,10.62z"/>
		<path class="st6" d="M38.19,19.83l-0.09-0.11c-0.01-0.01-1.11-1.38-2.36-2.33c-0.27-0.2-0.5-0.38-0.71-0.54
			c-0.75-0.57-1.13-0.86-1.5-1.06c-0.66-0.02-1.06-0.02-1.56,0l-0.02,0l-0.01-0.02c-0.23-0.27-0.43-0.65-0.44-0.66l-0.01-0.02
			l1.53-4.56l3.18,2.77l0,0.01l0.84,3.74l0.95,0.81l0,0.02L38.19,19.83z M32.67,15.71c0.26,0,0.53,0.01,0.88,0.02l0.02,0
			c0.38,0.19,0.76,0.49,1.52,1.07c0.21,0.16,0.44,0.34,0.71,0.54c1.06,0.8,2.01,1.9,2.29,2.24l-0.15-1.65l-0.95-0.8l0-0.01
			l-0.84-3.74l-3.07-2.67l-1.48,4.41c0.04,0.07,0.21,0.39,0.4,0.62C32.23,15.71,32.44,15.71,32.67,15.71z"/>
	</g>
	<path class="st32" d="M37.08,38.26c0.41,0.34,1.5,1.54,2.12,1.59c0.63,0.05,0.87-0.14,0.99-0.3S38.9,38.26,38.59,38
		C38.46,38.43,37.89,38.6,37.08,38.26z"/>
</g>
<path class="st33" d="M42.74,39.8c0.05-1.05,0.16-2.75,1.23-2.98C42.55,36.81,42.56,39.05,42.74,39.8z"/>
<path class="st34" d="M42.77,39.98c-0.12-0.48-0.6-3.11,1.2-3.16c-0.39-0.34-1.09-0.07-1.32,0.22c-0.39,0.49-0.53,1.73-0.32,2.41
	C42.44,39.8,42.65,40.01,42.77,39.98z"/>
<path class="st35" d="M47.87,43.41l-0.07-0.01c0.14-0.04,0.3-0.26,0.43-0.48c0.13-0.24,0.28-0.51,0.52-0.65
	c0.42-0.25,1.22-0.26,1.56-0.19l0.08,0.1c-0.31-0.07-1.2-0.07-1.6,0.16c-0.22,0.13-0.36,0.39-0.49,0.62
	C48.17,43.19,48.04,43.35,47.87,43.41z"/>
<g>
	<path class="st36" d="M29.68,28.7c0.37-0.19,1.32,0.72,1.59,1.24s1.11,1.97,2.2,2.68c1.1,0.71,2.18,1.37,2.26,1.71
		c0.09,0.34,0.19,0.72,0,0.92c-2.08-1.5-4.53-3.39-5.04-3.76c0.1-0.58-0.31-0.95-1.4-1.99C29.27,29.07,29.45,28.82,29.68,28.7z"/>
	<path class="st37" d="M35.74,35.31l-0.03-0.02c-1.41-1.02-2.98-2.21-4.02-2.99c-0.5-0.38-0.86-0.65-1.02-0.77l-0.02-0.02l0-0.03
		c0.1-0.54-0.28-0.9-1.29-1.86l-0.11-0.11l0-0.02c-0.02-0.4,0.13-0.7,0.41-0.85l0,0c0.41-0.21,1.38,0.74,1.65,1.26
		c0.23,0.44,1.06,1.93,2.19,2.67c0.13,0.09,0.27,0.17,0.4,0.26c0.97,0.62,1.8,1.16,1.88,1.48l0.01,0.02
		c0.09,0.35,0.18,0.72-0.01,0.94L35.74,35.31z M30.74,31.48c0.17,0.13,0.53,0.39,1,0.75c1.03,0.78,2.59,1.95,3.99,2.97
		c0.13-0.19,0.05-0.52-0.03-0.83l-0.01-0.02c-0.07-0.29-0.93-0.84-1.85-1.43c-0.13-0.08-0.27-0.17-0.4-0.26
		c-1.15-0.75-1.99-2.25-2.22-2.7c-0.28-0.54-1.21-1.39-1.54-1.22l0,0c-0.14,0.07-0.38,0.27-0.36,0.75l0.09,0.08
		C30.44,30.54,30.83,30.91,30.74,31.48z"/>
</g>
<path class="st1" d="M6.57,39.52l-0.08-0.03c0.78-1.86,4.46-6.07,6.28-7.42c2.73-2.02,4.14-2.27,4.51-2.3
	c0.71-0.06,1.15-0.05,1.43,0.04l-0.02,0.08c-0.27-0.08-0.71-0.1-1.4-0.04c-0.36,0.03-1.76,0.28-4.47,2.29
	C11.01,33.47,7.34,37.66,6.57,39.52z"/>
<path class="st38" d="M16.22,28.58L16.22,28.58c-0.14-0.46-1.59-1.87-1.92-1.88c-0.16-0.01-0.46,0.17-0.95,0.45
	c-0.38,0.22-0.81,0.47-0.97,0.48c0,0-0.01,0-0.01,0c-0.31,0-1.53-1.07-1.66-1.29c-0.09-0.16-0.26-0.7-0.33-1.49l0,0
	c0.07,0.73,0.07,1.35,0.19,1.57c0.12,0.21,1.42,1.4,1.82,1.37c0.2-0.01,0.61-0.25,1.04-0.5c0.09-0.06,0.2-0.11,0.29-0.17
	c0.34,0.18,1.5,0.84,2.04,1.64l0,0c-0.52-0.77-1.45-1.46-1.87-1.73c0.18-0.1,0.33-0.17,0.4-0.17C14.5,26.87,16.08,28.11,16.22,28.58
	z"/>
<path class="st38" d="M26.43,27.75c-0.05-0.05-8.91-7.05-9.6-7.4l0,0c0.28,0.14,1.85,1.54,3.69,2.97c-0.59,0.17-2.08,0.8-2.34,0.94
	c-0.13-0.18-0.32-0.37-0.57-0.57c-0.47-0.39-1.08-0.95-1.67-1.5c-0.81-0.76-1.39-1.29-1.71-1.51c0.24-0.44,1.98-1.13,2.24-1.11
	l-0.09-0.06c-0.26-0.02-1.94,0.63-2.23,1.13c-0.06-0.04-0.18-0.09-0.21-0.09l0.16,0.16c0.19,0.02,0.94,0.77,1.77,1.55
	c0.59,0.55,1.2,1.12,1.67,1.51c1.22,1,0.82,1.63,0.67,1.87l0.07,0.04c0.18-0.29,0.34-0.7-0.02-1.26c0.28-0.15,2-0.88,2.41-0.95
	c2.63,2.04,5.6,4.39,5.62,4.42c0.17,0.18,0.13,0.78,0.1,1.19c-0.01,0.1-0.01,0.19-0.01,0.26l0,0c0-0.07,0.19-0.46,0.2-0.56
	C26.62,28.27,26.64,27.98,26.43,27.75z"/>
<path class="st3" d="M29.29,29.25c-0.07-0.46-0.56-1.18-1.07-1.45l0,0c0.55,0.29,1.07,0.66,1.15,1.19L29.29,29.25z"/>
<path d="M36.25,13.68l-0.05-0.24l-3.3-2.38l-0.06,0.16l1.36,0.98l-0.13,0.35l0.06,0.04c0,0,0.28,0.16,0.61,0.41
	c-0.41,0.75-0.95,2.82-0.98,2.91L33.9,16c0.01-0.02,0.6-2.3,1.01-2.97l0.04-0.06l-0.06-0.04c-0.27-0.2-0.51-0.36-0.62-0.42
	l0.07-0.18L36.25,13.68z"/>
<path class="st38" d="M34.48,19.02c0.28-0.14,1.23-0.81,2.24-0.67l0,0c-1.07-0.15-1.88,0.27-2.32,0.53
	c-0.02,0.01-0.05,0.02-0.06,0.02c-0.91-0.82-1.9-1.59-2.94-2.2l0,0c1.01,0.59,1.89,1.47,2.77,2.27c-0.17,0.1-0.45,0.26-0.39,0.74
	l0,0c0-0.51,0.42-0.58,0.52-0.62c2.73,2.5,4.78,5.46,4.72,5.8l0,0C39.1,24.43,37.19,21.51,34.48,19.02z"/>
<path d="M51.77,46.04c-1.25,0-1.92-0.91-2.04-1.09c-0.04-0.07-0.31-0.24-0.55-0.39c-0.39-0.25-0.92-0.59-1.38-1
	c-0.88-0.19-4.68-3.11-5.09-3.43c-0.47-0.12-1.85-1.3-2.17-1.83c-0.08,0-0.16-0.03-0.24-0.05c-0.13-0.04-0.31-0.09-0.63-0.11
	c-0.36-0.02-0.66-0.1-0.89-0.23c0,0.01,0,0.01,0,0.02l0.02,0.02c0.7,0.56,1.37,1.13,1.55,1.53c0.1,0.22,0.02,0.45-0.21,0.64
	c-0.37,0.3-1.06,0.41-1.55,0.06c-0.27-0.19-6.07-4.46-7.16-5.31c-0.29,0.02-0.8-0.01-1.3-0.12c-0.6-0.12-1.11-0.49-1.42-1.04
	c-0.18-0.31-0.28-0.66-0.27-0.92c-0.41-0.04-0.81-0.18-0.99-0.46c-0.14,0.05-0.31,0.06-0.62,0.08c-0.46,0.02-1.35-0.13-1.83-0.53
	c-0.38,0.02-1.56-0.01-2.35-0.13c-0.8-0.12-1.97-0.41-2.71-0.77c-0.09,0.02-0.22,0.04-0.29,0.05c-0.41,0.06-0.86,0.08-1.28,0.07
	c-0.11,0-1.21,0.04-2.5,0.65c-0.29,0.15-0.61,0.33-0.93,0.53c-0.31,0.22-0.61,0.43-0.89,0.62c-0.34,0.23-0.65,0.45-0.95,0.67
	c-0.5,0.38-1.04,0.81-1.63,1.31c-1.28,1.18-2.58,2.85-4.62,5.94c-0.21,0.38-0.36,0.69-0.42,0.82c-0.04,0.1-0.07,0.23-0.08,0.39
	c0,0,0,0.02,0,0.02c0.01,0.2,0.04,0.39,0.07,0.57c0.05,0.28,0.09,0.54,0.02,0.83c0,0.12-0.04,0.25-0.1,0.42
	c-0.02,0.07-0.04,0.12-0.09,0.22c0,0.01-0.01,0.01-0.01,0.02c-0.13,0.26-0.32,0.58-0.61,1.02c-0.04,0.05-0.1,0.08-0.16,0.07
	c-1.1-0.18-2.24-0.64-2.57-0.95c-0.11-0.1-0.16-0.3-0.22-0.59c-0.06-0.27-0.14-0.6-0.28-0.91c-0.18-0.39-0.14-0.72-0.1-0.98
	c0.03-0.17,0.04-0.3-0.01-0.39c-0.18-0.32-1.15-1.91-1.41-2.31c-0.29-0.46,0.07-1.13,0.46-1.49c-0.07-0.36-0.16-1.22-0.16-2.26
	c0-0.04,0.02-0.09,0.05-0.12l0.62-0.62c0.03-0.03,0.07-0.05,0.12-0.05l0,0c0.04,0,0.09,0.02,0.12,0.05
	c0.05,0.05,0.09,0.12,0.15,0.21c0.06,0.09,0.13,0.2,0.21,0.29c0.54-0.83,2.62-3.29,2.64-3.32l0.42-0.49
	c0.89-1.06,2.23-2.64,2.72-3.11c0.12-0.36,0.77-1.56,1.66-2.91c0.52-0.82,1.28-1.93,1.97-2.68c-0.4-0.57-1.23-2.09-2-3.48
	c0,0,0-0.01,0-0.01l-0.12-0.22c-0.25-0.46-0.45-0.83-0.56-1.02c-0.35-0.61-0.28-0.9-0.17-1.04c0.09-0.11,0.25-0.15,0.4-0.1
	c0.79,0.26,1.37,0.48,1.69,0.62c0.51,0.24,1.03,0.5,1.27,0.94c0.02,0.04,0.12,0.18,0.5,0.65c-0.15-0.88-0.07-1.98,0-2.14
	c0.01-0.02,0.02-0.05,0.03-0.09c0.07-0.24,0.23-0.75,0.91-0.82c0,0,0.01,0,0.01,0c0.11-0.01,0.23-0.01,0.34,0.01
	c1.35,0.27,3.53,1.45,4.71,2.13c0.02,0.01,0.05,0.03,0.07,0.04c0.44-0.11,0.85-0.23,1.24-0.35c0.45-0.14,0.88-0.27,1.32-0.36
	c-0.24-0.68-0.38-2.29-0.38-2.96c-0.02-0.27,0.07-0.51,0.27-0.67c0.43-0.36,1.29-0.37,2.63-0.03c1.87,0.47,2.59,0.82,4.73,2.31
	c0.64-0.14,1.81-0.28,2.97-0.34c-0.07-0.1-0.16-0.23-0.29-0.41c-0.03-0.04-0.04-0.1-0.02-0.14c0.01-0.03,0.88-2.74,1.5-4.49
	c0.53-1.48,0.61-1.54,0.68-1.58c0.03-0.02,0.07-0.03,0.11-0.03c1.2,0.11,2.75,1.32,3.03,1.79c0.14,0.24,0.79,2.33,2.09,6.76
	c0.01,0,0.03,0,0.04,0c1.04,0,2.62,0.8,3.28,1.16l0.04,0.02l0.02,0.01c0.61,0.33,1.15,0.7,1.37,0.9c1.04,0.24,5.36,2.32,6.59,3
	c0.02-0.04,0.04-0.06,0.08-0.09c0.21-0.13,0.51,0.14,0.62,0.27c0.11,0.11,0.52,0.59,0.96,1.09c0.49,0.56,1.05,1.2,1.19,1.34
	c0.15,0.16,0.57,0.9,0.32,1.14c-0.2,0.19-0.52-0.05-0.93-0.47c-0.89-0.92-2.27-2.21-3.85-2.83c-1.4-0.55-3.94-0.5-5.21-0.3
	c-0.99,0.16-2.45,1.01-2.81,1.23c0.03,0.67-0.11,1.15-0.41,1.46c3.73,2.3,7.49,6.32,8.94,7.97c0.53,0.57,1.56,1.75,2.58,3.14
	c0.79,1.06,1.35,1.93,1.62,2.54l0.08,0.18c0.3,0.61,0.52,1.17,0.62,1.66c0.11,0.28,0.32,0.89,0.19,1.18
	c0.09,0.37,0.2,1.34-0.18,1.72c0,0.5-0.23,1.07-0.61,1.5c-0.39,0.44-0.91,0.69-1.45,0.71C51.85,46.04,51.81,46.04,51.77,46.04z
	 M40.8,38.11c0.12,0.29,1.68,1.69,1.98,1.7c0.03,0,0.07,0.01,0.1,0.03c1.75,1.35,4.55,3.37,5.01,3.4c0.04,0,0.07,0.02,0.1,0.04
	c0.44,0.4,0.98,0.75,1.37,1c0.38,0.25,0.57,0.37,0.65,0.49c0.11,0.17,0.73,1,1.87,0.94c0.59-0.03,0.99-0.34,1.22-0.61
	c0.35-0.39,0.55-0.91,0.53-1.34c0-0.06,0.02-0.12,0.07-0.15c0.27-0.18,0.23-1.08,0.11-1.48c-0.02-0.06,0-0.12,0.04-0.17
	c0.03-0.06,0-0.4-0.21-0.93c0-0.01-0.01-0.02-0.01-0.03c-0.1-0.47-0.31-1.01-0.6-1.61l-0.08-0.18c-0.26-0.58-0.8-1.43-1.58-2.47
	c-1-1.38-2.03-2.54-2.56-3.12c-3.12-3.51-6.42-6.44-9.07-8.03c-0.05-0.03-0.08-0.08-0.08-0.14c0-0.06,0.03-0.11,0.07-0.14
	c0.35-0.24,0.5-0.7,0.45-1.42c0-0.06,0.03-0.12,0.08-0.15c0.08-0.05,1.84-1.13,3.02-1.33c1.31-0.21,3.93-0.26,5.39,0.32
	c1.64,0.65,3.05,1.97,3.97,2.91c0.22,0.22,0.35,0.33,0.43,0.39c-0.05-0.18-0.19-0.48-0.3-0.59c-0.15-0.15-0.69-0.76-1.2-1.36
	c-0.44-0.5-0.85-0.97-0.95-1.08c-0.04-0.05-0.09-0.08-0.12-0.11c0,0.05-0.02,0.1-0.06,0.13c-0.06,0.04-0.13,0.05-0.19,0.01
	c-0.62-0.4-5.82-2.93-6.79-3.11c-0.03-0.01-0.07-0.02-0.09-0.05c-0.13-0.14-0.64-0.5-1.33-0.88l0.06-0.16L42,18.99l-0.04-0.02
	c-1.39-0.76-2.61-1.18-3.26-1.12c-0.08,0.01-0.15-0.04-0.17-0.12c-1.27-4.31-1.97-6.6-2.09-6.81c-0.24-0.41-1.61-1.47-2.68-1.62
	c-0.06,0.11-0.2,0.44-0.54,1.38c-0.56,1.59-1.33,3.95-1.48,4.41c0.18,0.25,0.36,0.51,0.4,0.56c0.03,0.03,0.05,0.07,0.05,0.11
	c0,0.09-0.07,0.17-0.16,0.17c-1.28,0.05-2.63,0.2-3.29,0.36c-0.05,0.01-0.09,0-0.13-0.02c-2.15-1.49-2.85-1.83-4.69-2.3
	c-1.52-0.38-2.11-0.23-2.34-0.04c-0.12,0.1-0.17,0.23-0.15,0.41c0,0.94,0.21,2.61,0.41,2.97c0.03,0.02,0.05,0.06,0.06,0.1
	c0.01,0.09-0.04,0.17-0.13,0.18c-0.49,0.07-0.99,0.23-1.51,0.39c-0.42,0.13-0.85,0.26-1.33,0.37c-0.04,0.01-0.09,0-0.12-0.02
	c-0.04-0.02-0.08-0.05-0.13-0.07c-1.16-0.67-3.3-1.83-4.61-2.09c-0.08-0.02-0.16-0.02-0.24-0.01c0,0-0.01,0-0.01,0
	c-0.46,0.05-0.56,0.36-0.63,0.59c-0.02,0.05-0.03,0.09-0.04,0.13C13.07,17.1,13,19,13.42,19.59c0.05,0.07,0.04,0.17-0.03,0.23
	c-0.07,0.05-0.17,0.04-0.23-0.03c-0.9-1.1-1.06-1.33-1.1-1.4c-0.19-0.35-0.66-0.59-1.12-0.8c-0.3-0.14-0.89-0.35-1.65-0.61
	c-0.01,0-0.03-0.01-0.04,0c-0.03,0.04-0.05,0.23,0.2,0.67c0.11,0.2,0.31,0.56,0.57,1.03l0.12,0.23c0,0,0,0,0,0l0,0
	c0.59,1.08,1.69,3.08,2.05,3.55c0.05,0.06,0.05,0.16-0.01,0.21c-0.69,0.73-1.49,1.89-2.03,2.73c-1.04,1.56-1.59,2.69-1.63,2.85
	c-0.01,0.03-0.02,0.06-0.05,0.08c-0.44,0.42-1.87,2.11-2.72,3.12l-0.42,0.49c-0.34,0.41-2.55,3.07-2.69,3.38
	c-0.01,0.04-0.04,0.08-0.08,0.11c-0.05,0.03-0.11,0.03-0.17,0c-0.21-0.12-0.34-0.34-0.44-0.5c0,0,0-0.01-0.01-0.01l-0.43,0.43
	c0,1.13,0.12,2.01,0.17,2.21c0.02,0.06,0,0.13-0.06,0.17C1.31,38,0.97,38.57,1.16,38.87c0.26,0.41,1.24,2,1.42,2.33
	c0.11,0.19,0.08,0.4,0.04,0.6c-0.04,0.24-0.07,0.49,0.07,0.79c0.16,0.34,0.24,0.69,0.31,0.97c0.04,0.17,0.09,0.38,0.13,0.43
	c0.21,0.2,1.17,0.65,2.29,0.85c0.26-0.39,0.42-0.67,0.54-0.91c0-0.01,0.01-0.02,0.01-0.02c0.04-0.08,0.05-0.1,0.06-0.14
	c0-0.01,0-0.01,0.01-0.02c0.05-0.14,0.08-0.25,0.08-0.33c0-0.01,0-0.03,0-0.04c0.06-0.23,0.02-0.45-0.02-0.71
	c-0.03-0.18-0.07-0.39-0.07-0.62c0-0.01,0-0.03,0-0.03c0.01-0.21,0.05-0.37,0.1-0.51c0.06-0.14,0.22-0.46,0.44-0.86
	c2.07-3.13,3.38-4.81,4.67-6.01c0,0,0.02-0.01,0.02-0.02c0.6-0.5,1.14-0.93,1.65-1.32c0.3-0.22,0.62-0.44,0.96-0.67
	c0.28-0.19,0.58-0.4,0.89-0.62c0.34-0.21,0.66-0.39,0.96-0.55c1.32-0.62,2.43-0.68,2.64-0.68c0.42,0.01,0.84-0.01,1.23-0.07
	c0.13-0.02,0.28-0.05,0.31-0.05c0.04-0.01,0.08-0.01,0.12,0.01c0.67,0.34,1.84,0.64,2.66,0.76c0.85,0.13,2.13,0.15,2.34,0.12
	c0.05,0,0.09,0.01,0.13,0.04c0.38,0.35,1.22,0.51,1.65,0.49c0.44-0.02,0.53-0.04,0.61-0.11c0.05-0.04,0.11-0.05,0.16-0.03
	c0.06,0.02,0.1,0.07,0.11,0.13c0.04,0.25,0.51,0.4,0.93,0.4c0.09,0,0.16,0.07,0.16,0.17c0,0.02-0.01,0.05-0.01,0.07
	c-0.03,0.12,0,0.46,0.22,0.85c0.19,0.33,0.54,0.75,1.2,0.88c0.51,0.1,1.03,0.13,1.27,0.11c0.04,0,0.09,0.01,0.12,0.03
	c0.95,0.74,6.93,5.15,7.2,5.34c0.38,0.27,0.91,0.15,1.15-0.05c0.06-0.05,0.16-0.15,0.12-0.25c-0.17-0.39-1.07-1.1-1.45-1.41
	l-0.1-0.08c-0.05-0.04-0.07-0.11-0.06-0.17c0.03-0.11,0.03-0.24,0.01-0.35c-0.01-0.07,0.02-0.15,0.09-0.18
	c0.07-0.03,0.15-0.02,0.2,0.03c0.19,0.21,0.52,0.33,0.96,0.36c0.36,0.02,0.57,0.08,0.71,0.12c0.11,0.03,0.16,0.04,0.21,0.03
	c0.05-0.01,0.1,0,0.14,0.03C40.77,38.03,40.79,38.07,40.8,38.11z M40.8,38.13C40.8,38.13,40.8,38.13,40.8,38.13
	C40.8,38.13,40.8,38.13,40.8,38.13z M33.78,9.24L33.78,9.24L33.78,9.24z"/>
<path class="st39" d="M37.17,26.01c-0.23-0.41-0.67-0.86-1.52-1.35c-1.72-0.99-4.46-2.45-5.55-2.92c0.26-0.35,0.9-0.66,1.29-0.69
	c-0.44,0.03-1.23,0.23-1.49,0.68l-0.05,0.08l0.09,0.04c0.91,0.37,3.7,1.83,5.62,2.95c1.81,1.05,1.7,1.9,1.62,2.47
	c-0.03,0.22-0.25,0.61-0.49,1.02c-0.35,0.61-0.71,1.27-0.66,1.7l0.06,0.06c-0.04-0.37,0.42-1.12,0.74-1.67
	c0.25-0.44,0.47-0.82,0.51-1.08c0.04-0.31,0.09-0.69-0.11-1.14c0.38-0.35,1.53-0.79,2.41-0.69l-0.12-0.05
	C38.62,25.32,37.6,25.64,37.17,26.01z"/>
<path class="st34" d="M47.98,43.25c0.24-0.63,0.79-1.45,2.2-1.22c-0.24-0.1-0.8-0.18-0.95-0.15c-0.51,0.09-0.78,0.35-0.94,0.57
	C48.06,42.76,47.93,43.12,47.98,43.25z"/>
</svg>
