<svg xmlns="http://www.w3.org/2000/svg" width="0" height="0">

	<svg id="xwing-logo" viewBox="0 0 428 106" cache="keep">
		<style type="text/css">
			.xwing-st0{fill:#eee;}
		</style>
	<path class="xwing-st0" d="M37.7,22.1c0.9,0,2-0.2,3.2-0.6c1.5-0.5,2.2-1.2,2.2-2c0-0.9-1-1.4-3-1.4H20c-1.6,0-2.3-0.7-2.3-2c0-0.6,0.2-1.3,0.7-2
		l4.6-8c0.6-1.1,1.5-2.1,2.8-2.8C27,2.4,28.1,2,29.3,2h20.1c1.5,0,2.3,0.7,2.3,2c0,0.6-0.2,1.3-0.6,2l-2.3,4c-0.4,0.7-0.6,1.4-0.6,2
		c0,1.3,0.8,2,2.3,2c1.1,0,2.2-0.4,3.5-1.2c1.3-0.8,2.2-1.7,2.8-2.8l2.3-4c0.6-1.1,1.5-2.1,2.8-2.8S64.3,2,65.4,2h20.1
		c1.5,0,2.3,0.7,2.3,2c0,0.6-0.2,1.3-0.6,2l-4.6,8c-0.7,1.1-1.6,2.1-2.8,2.8c-1.2,0.8-2.4,1.2-3.5,1.2H56.1c-0.9,0-2,0.2-3.2,0.6
		c-1.5,0.5-2.2,1.2-2.2,2c0,0.9,1,1.4,3,1.4h20.1c1.6,0,2.3,0.7,2.3,2c0,0.6-0.2,1.3-0.7,2l-9.2,16.1c-0.7,1.1-1.6,2.1-2.8,2.8
		c-1.2,0.8-2.4,1.2-3.5,1.2H39.9c-1.6,0-2.3-0.7-2.3-2c0-0.6,0.2-1.3,0.7-2l6.9-12c0.4-0.7,0.6-1.4,0.6-2c0-1.3-0.8-2-2.3-2
		c-1.1,0-2.3,0.4-3.5,1.2c-1.2,0.8-2.2,1.7-2.8,2.8l-6.9,12c-0.6,1.1-1.5,2.1-2.8,2.8c-1.3,0.8-2.4,1.2-3.6,1.2H3.7
		c-1.5,0-2.3-0.7-2.3-2c0-0.6,0.2-1.3,0.6-2l9.3-16.1c0.6-1.1,1.5-2.1,2.8-2.8c1.3-0.8,2.4-1.2,3.6-1.2H37.7z"/>
	<path class="xwing-st0" d="M148.7,10.1c1.5,0,2.3,0.7,2.3,2c0,0.6-0.2,1.3-0.6,2l-9.3,16.1c-0.6,1.1-1.5,2.1-2.8,2.8c-1.3,0.8-2.4,1.2-3.6,1.2H78.5
		c-1.5,0-2.3-0.7-2.3-2c0-0.6,0.2-1.3,0.6-2l9.3-16.1c0.6-1.1,1.5-2.1,2.8-2.8c1.3-0.8,2.4-1.2,3.6-1.2H148.7z"/>
	<path class="xwing-st0" d="M257.1,2c1.6,0,2.3,0.7,2.3,2c0,0.6-0.2,1.3-0.7,2l-20.8,36.1c-0.6,1.1-1.5,2.1-2.8,2.8c-1.3,0.8-2.4,1.2-3.6,1.2h-68.2
		l-12.7-21.5c-0.3-0.5-0.4-1.2-0.4-2.1c0-1.6,0.4-3.1,1.3-4.5l6.9-12c0.6-1.1,1.5-2.1,2.8-2.8c1.3-0.8,2.4-1.2,3.6-1.2h20.1
		c1.5,0,2.3,0.7,2.3,2c0,0.6-0.2,1.3-0.6,2L168,38.1c-0.4,0.7-0.6,1.4-0.6,2c0,1.3,0.8,2,2.3,2c1.1,0,2.3-0.4,3.6-1.2
		c1.3-0.8,2.2-1.7,2.8-2.8L194.6,6c0.6-1.1,1.5-2.1,2.8-2.8c1.3-0.8,2.4-1.2,3.6-1.2H221c1.5,0,2.3,0.7,2.3,2c0,0.6-0.2,1.3-0.6,2
		l-18.5,32.2c-0.4,0.7-0.6,1.4-0.6,2c0,1.3,0.8,2,2.3,2c1.1,0,2.3-0.4,3.5-1.2c1.2-0.8,2.2-1.7,2.8-2.8L230.7,6
		c0.7-1.1,1.6-2.1,2.8-2.8c1.2-0.8,2.4-1.2,3.5-1.2H257.1z"/>
	<path class="xwing-st0" d="M243.7,46.2c-1.6,0-2.3-0.7-2.3-2c0-0.6,0.2-1.3,0.6-2L262.9,6c0.6-1.1,1.5-2.1,2.8-2.8c1.3-0.8,2.4-1.2,3.6-1.2h20.1
		c1.5,0,2.3,0.7,2.3,2c0,0.6-0.2,1.3-0.6,2l-20.9,36.1c-0.6,1.1-1.5,2.1-2.8,2.8c-1.3,0.8-2.4,1.2-3.5,1.2H243.7z"/>
	<path class="xwing-st0" d="M357.5,2c1.5,0,2.3,0.7,2.3,2c0,0.6-0.2,1.3-0.6,2l-20.9,36.1c-0.6,1.1-1.5,2.1-2.8,2.8c-1.3,0.8-2.4,1.2-3.5,1.2h-20.1
		c-1.6,0-2.3-0.7-2.3-2c0-0.6,0.2-1.3,0.6-2L328.7,10c0.4-0.7,0.6-1.4,0.6-2c0-1.3-0.8-2-2.3-2c-1.1,0-2.3,0.4-3.5,1.2
		c-1.2,0.8-2.2,1.7-2.8,2.8l-18.6,32.1c-0.6,1.1-1.5,2.1-2.8,2.8c-1.3,0.8-2.4,1.2-3.5,1.2h-20.1c-1.6,0-2.3-0.7-2.3-2
		c0-0.6,0.2-1.3,0.6-2L294.9,6c0.6-1.1,1.5-2.1,2.8-2.8c1.3-0.8,2.4-1.2,3.6-1.2H357.5z"/>
	<path class="xwing-st0" d="M373.2,55.8c-0.3-0.6-0.5-1.4-0.5-2.3c0-1.4,0.3-2.7,1-3.8c0.3-0.6,0.4-1.1,0.4-1.6c0-1.3-0.8-1.9-2.4-1.9h-28.1
		c-1.6,0-2.3-0.7-2.3-2c0-0.6,0.2-1.3,0.6-2L362.7,6c0.6-1.1,1.5-2.1,2.8-2.8c1.3-0.8,2.4-1.2,3.6-1.2h56.2c1.5,0,2.3,0.7,2.3,2
		c0,0.6-0.2,1.3-0.6,2l-4.7,8c-0.6,1.1-1.5,2.1-2.8,2.8c-1.3,0.8-2.4,1.2-3.5,1.2h-20.1c-1.6,0-2.3-0.7-2.3-2c0-0.6,0.2-1.3,0.6-2
		l2.3-4c0.4-0.7,0.6-1.4,0.6-2c0-1.3-0.8-2-2.3-2c-1.1,0-2.3,0.4-3.5,1.2c-1.2,0.8-2.2,1.7-2.8,2.8l-16.2,28.1
		c-0.4,0.7-0.6,1.4-0.6,2c0,1.3,0.8,2,2.3,2c1.1,0,2.3-0.4,3.5-1.2c1.3-0.8,2.2-1.7,2.8-2.9l7-12c0.7-1.1,1.6-2.1,2.8-2.8
		c1.2-0.8,2.4-1.2,3.5-1.2h20.1c1.6,0,2.3,0.7,2.3,2c0,0.6-0.2,1.3-0.7,2l-27.2,47.2c-0.8,1.4-1.7,2.2-2.7,2.2
		c-0.5,0-0.9-0.3-1.2-0.8L373.2,55.8z"/>
	</svg>

	<svg id="made-with-impact" viewBox="0 0 135 49">
		<style type="text/css">
			.st0{fill:#eee;}
		</style>
		<path class="st0" d="M37.4,31.3L37.4,31.3l-0.1-0.1c-0.2-0.1-0.3-0.2-0.5-0.3L-0.5,5.1l14,18.7l-6.7-3.2l16.7,23.8
			c0.1,0.1,0.2,0.2,0.2,0.3l0.1,0.2l0,0c1.8,2.3,4.6,3.8,7.7,3.8c5.4,0,9.7-4.3,9.7-9.7C41.3,35.9,39.7,33.1,37.4,31.3z M31.6,44.7
			c-3.1,0-5.7-2.5-5.7-5.7c0-3.1,2.5-5.7,5.7-5.7c3.1,0,5.7,2.5,5.7,5.7C37.2,42.2,34.7,44.7,31.6,44.7z"/>
		<g id="impact">
			<path class="st0" d="M52.9,48.7h-5.6V16.5h5.6V48.7z"/>
			<path class="st0" d="M59.9,26.7l0,15v7h-4.5V16.5h8.1L65.1,36l1.7-19.5h8.1v32.2h-5.5v-7.2l0-14.7l-2.2,21.9H62L59.9,26.7z"/>
			<path class="st0" d="M83,48.7h-5.6V16.5h8.2c3.5,0,5.2,1.7,5.2,5.2v10.2c0,3.5-1.7,5.2-5.2,5.2H83V48.7z M84.2,21.3H83v11h1.2
				c0.7,0,1-0.3,1-1v-9C85.2,21.6,84.8,21.3,84.2,21.3z"/>
			<path class="st0" d="M100.4,48.7L100,44h-3.5l-0.4,4.7H91l3.7-32.2h7.6l3.7,32.2H100.4z M96.9,39.2h2.6l-1.3-14.9L96.9,39.2z"/>
			<path class="st0" d="M121.2,34.4v9.4c0,3.5-1.7,5.2-5.2,5.2h-3.4c-3.5,0-5.2-1.7-5.2-5.2V21.4c0-3.5,1.7-5.2,5.2-5.2h3.4
				c3.5,0,5.2,1.7,5.2,5.2V30h-5.5v-8c0-0.7-0.3-1-1-1H114c-0.6,0-1,0.3-1,1v21.2c0,0.7,0.3,1,1,1h0.7c0.7,0,1-0.3,1-1v-8.8H121.2z"/>
			<path class="st0" d="M126.1,48.7V21.5h-3.4v-5h12.4v5h-3.4v27.2H126.1z"/>
		</g>
		<g id="made_with">
			<path class="st0" d="M51.6,12h-1.5V4.2c0-0.3-0.1-0.5-0.4-0.5c-0.3,0-0.5,0.1-0.8,0.3v8h-1.5V2.5h1.5V3c0.4-0.3,0.8-0.6,1.4-0.6
				h0.1c0.6,0,1,0.2,1.1,0.7c0.4-0.4,0.9-0.7,1.5-0.7H53c0.8,0,1.3,0.5,1.3,1.4V12h-1.5V4.2c0-0.3-0.1-0.5-0.4-0.5
				c-0.3,0-0.5,0.1-0.8,0.3V12z"/>
			<path class="st0" d="M55.4,8.4c0-1,0.3-1.3,1.2-1.6l1.5-0.5v-2c0-0.4-0.2-0.5-0.5-0.5h-0.1c-0.4,0-0.5,0.2-0.5,0.5v1.6h-1.4V4.2
				c0-1.2,0.6-1.8,1.8-1.8h0.5c1.2,0,1.8,0.6,1.8,1.8V12h-1.5v-0.5c-0.4,0.3-0.8,0.6-1.4,0.6h0c-0.9,0-1.3-0.5-1.3-1.4V8.4z
				 M58.1,10.5V7.5l-0.8,0.3c-0.3,0.1-0.4,0.3-0.4,0.7v1.9c0,0.3,0.2,0.5,0.5,0.5C57.6,10.8,57.8,10.7,58.1,10.5z"/>
			<path class="st0" d="M65,12h-1.5v-0.5c-0.3,0.3-0.8,0.6-1.4,0.6h0c-0.9,0-1.4-0.6-1.4-1.5V3.9c0-0.9,0.5-1.5,1.4-1.5h0
				c0.6,0,1.1,0.3,1.4,0.6V0H65V12z M63.5,4c-0.2-0.2-0.5-0.3-0.8-0.3c-0.4,0-0.5,0.2-0.5,0.5v6c0,0.3,0.2,0.5,0.5,0.5
				c0.3,0,0.5-0.1,0.8-0.3V4z"/>
			<path class="st0" d="M67.7,7.8v2.4c0,0.4,0.2,0.5,0.5,0.5h0.2c0.4,0,0.5-0.2,0.5-0.5V8.7h1.4v1.6c0,1.2-0.6,1.8-1.8,1.8H68
				c-1.2,0-1.8-0.6-1.8-1.8V4.2c0-1.2,0.6-1.8,1.8-1.8h0.6c1.2,0,1.8,0.6,1.8,1.8v3.6H67.7z M67.7,6.6h1.2V4.3c0-0.4-0.2-0.5-0.5-0.5
				h-0.2c-0.4,0-0.5,0.2-0.5,0.5V6.6z"/>
			<path class="st0" d="M78.3,8.7l0.6-6.2h1.4L79,12h-1.5l-0.7-5.6L76.2,12h-1.5l-1.2-9.5h1.5l0.6,6.2l0.7-6.2h1.3L78.3,8.7z"/>
			<path class="st0" d="M81.2,0.3h1.5v1.4h-1.5V0.3z M81.2,2.5h1.5V12h-1.5V2.5z"/>
			<path class="st0" d="M85.7,12h-1.5V3.8h-0.5V2.5h0.5V1.1h1.5v1.4h0.8v1.3h-0.8V12z"/>
			<path class="st0" d="M87.4,0h1.5v3c0.4-0.3,0.8-0.6,1.4-0.6h0.1c0.9,0,1.3,0.5,1.3,1.4V12h-1.5V4.2c0-0.3-0.2-0.5-0.5-0.5
				c-0.3,0-0.5,0.1-0.8,0.3v8h-1.5V0z"/>
		</g>
	</svg>

	<svg id="sprite-shield" viewBox="0 0 48 48" size="keep">
		<style type="text/css">
			.st0{fill:#eee;}
		</style>
		<circle class="st0" cx="24" cy="24" r="23"/>
	</svg>

	<svg id="sprite-ship" viewBox="0 0 32 32" size="keep">
		<style type="text/css">
			.st0{fill:#CBCBCB;}
			.st1{fill:#8EA8AD;}
			.st2{fill:#BDD6DB;}
			.st3{fill:#F2F2F2;}
			.st4{fill:#36BBF5;}
			.st5{fill:#1884B4;}
			.st6{fill:#8ED9FA;}
			.st7{fill:#4A3C55;}
			.st8{fill:#ECBD02;}
			.st9{fill:#BF9900;}
			.st10{fill:#FFCC00;}
			.st11{fill:#D3E1E7;}
		</style>
		<path class="st0" d="M16.6,1h0.2c0.1,0,0.2,0,0.3,0.1l0.2,0.3l1.8,5.1L18.7,7l-1.8-5.2h-0.2V1 M23,27.3l-2.7,3.5
			C20.1,31,20,31,19.8,31h-7.6c-0.2,0-0.3-0.1-0.4-0.2L9,27.3l0.3-0.8l2.9,3.8h7.6l2.9-3.8L23,27.3 M12.8,6.5l1.8-5.1
			c0-0.1,0.1-0.3,0.2-0.3C14.9,1,15,1,15.2,1h0.2v0.8h-0.2L13.3,7l-0.1,0.1L12.8,6.5"/>
		<path class="st1" d="M12.8,6.5l0.5,0.6l-2.2,3.3l-8.5,13l-0.2-0.9L12.8,6.5 M18.7,7l0.5-0.4l10.4,15.8l-0.2,1l-8.5-13L18.7,7"/>
		<path class="st2" d="M18.7,7l2.3,3.5l5,13.5l-1.1,1.4h-1.3l1.1-1.4L18.7,7 M11.1,10.4l2.2-3.3L13.3,7L7.4,24l1.1,1.4H7.2L6,23.9
			L11.1,10.4"/>
		<path class="st3" d="M16.6,1.8h0.2L18.7,7l5.9,17l-1.1,1.4l-0.9,1.1l-2.9,3.8h-7.6l-2.9-3.8l-0.9-1.1L7.4,24l5.9-17l1.8-5.2h0.2
			l-5.1,20.9l2,4.7h7.5l2-4.7L16.6,1.8"/>
		<path class="st4" d="M16.6,1.8l5.1,20.9l-2,4.7h-7.5l-2-4.7l5.1-20.9H16.6 M13.3,14.2l-0.1,0.4h5.6l-0.1-0.4l-2-8.9h-1.4L13.3,14.2
			L13.3,14.2 M28.9,27l0.1-0.5l0.2-1.1l0.3-2l1.1,1.7V27H28.9 M2.6,23.4l0.3,2L3,26.5L3.1,27H1.4v-1.9L2.6,23.4"/>
		<path class="st5" d="M2.6,23.4l-1.1,1.7V27h1.6l0.1,0.8l-0.1,0H1.4c-0.2,0-0.3-0.1-0.4-0.2c-0.1-0.2-0.2-0.4-0.2-0.6v-1.9
			c0-0.2,0.1-0.4,0.2-0.5l1.4-2.1L2.6,23.4 M16.6,1v0.8h-1.3V1H16.6 M29.6,22.4l1.4,2.2c0.1,0.1,0.1,0.3,0.1,0.5V27
			c0,0.2-0.1,0.4-0.2,0.6c-0.1,0.1-0.3,0.2-0.5,0.2h-1.6h-0.1l0.1-0.8h1.6v-1.9l-1.1-1.7L29.6,22.4"/>
		<path class="st6" d="M18.7,14.2l-2-8.1h-1.4l-2,8.1h0l2-8.9h1.4L18.7,14.2"/>
		<path class="st7" d="M18.7,14.2l0.1,0.4h-5.6l0.1-0.4l2-8.1h1.4L18.7,14.2"/>
		<path class="st8" d="M23.5,25.4h1.3L24,26.5h-1.3L23.5,25.4 M7.2,25.4h1.3l0.9,1.1H8L7.2,25.4"/>
		<path class="st9" d="M28.8,27.8l-0.2-0.1l-0.2-0.3H23l-0.3-0.8H24h5L28.9,27L28.8,27.8 M9,27.3H3.7l-0.2,0.3l-0.2,0.1L3.1,27L3,26.5
			h5h1.3L9,27.3"/>
		<path class="st10" d="M29,26.5h-5l0.9-1.1h4.3L29,26.5 M2.8,25.4h4.3L8,26.5H3L2.8,25.4"/>
		<path class="st11" d="M2.8,25.4l-0.3-2l8.5-13L6,23.9l1.1,1.4H2.8 M24.8,25.4l1.1-1.4l-5-13.5l8.5,13l-0.3,2H24.8"/>
	</svg>


	<svg id="sprite-plasma" viewBox="0 0 96 96" size="keep">
		<style type="text/css">
			.st0{fill:url(#SVGID_1_);}
			.st1{fill:url(#SVGID_2_);}
			.st2{fill:#FFFFFF;}
			.st3{fill:url(#SVGID_3_);}
		</style>
		<linearGradient id="SVGID_1_" gradientUnits="userSpaceOnUse" x1="48" y1="48" x2="48" y2="96">
			<stop  offset="0" style="stop-color:#fff"/>
			<stop  offset="1" style="stop-color:#fff;stop-opacity:0"/>
		</linearGradient>
		<path class="st0" d="M49.5,48c0,0.8-0.7,47.5-1.5,47.5S46.5,48.8,46.5,48s0.7-1.5,1.5-1.5S49.5,47.2,49.5,48z"/>
		<linearGradient id="SVGID_2_" gradientUnits="userSpaceOnUse" x1="48" y1="48" x2="48" y2="96">
			<stop  offset="0" style="stop-color:#fff"/>
			<stop  offset="1" style="stop-color:#fff;stop-opacity:0"/>
		</linearGradient>
		<path class="st1" d="M48.5,48c0,0.8-0.2,47.5-0.5,47.5S47.5,48.8,47.5,48s0.2-1.5,0.5-1.5S48.5,47.2,48.5,48z"/>
		<circle class="st2" cx="48" cy="48" r="1.5"/>
		<radialGradient id="SVGID_3_" cx="48" cy="48" r="23.6614" gradientUnits="userSpaceOnUse">
			<stop  offset="0" style="stop-color:#fff;stop-opacity:0.2"/>
			<stop  offset="1" style="stop-color:#fff;stop-opacity:0"/>
		</radialGradient>
		<circle class="st3" cx="48" cy="48" r="24"/>
	</svg>


	<svg id="sprite-crosshair-1" viewBox="0 0 32 32" size="keep">
		<style type="text/css">
			.st0{fill:#f90;}
			.st1{fill:none;stroke:#fff;stroke-width:2;stroke-miterlimit:10;stroke-dasharray:1;}
			.st2{fill:none;stroke:#f90;stroke-miterlimit:10;}
			.st3{fill:#f90;}
		</style>
		<circle class="st0" cx="16" cy="16" r="0.7"/>
		<path class="st1" d="M7.8,3.6c-4,2.7-6.7,7.2-6.7,12.4s2.7,9.8,6.7,12.4"/>
		<path class="st1" d="M24.2,28.4c4-2.7,6.7-7.2,6.7-12.4s-2.7-9.8-6.7-12.4"/>
		<g>
			<path class="st2" d="M15,5.4C9.9,5.9,5.9,9.9,5.4,15"/>
			<path class="st2" d="M26.6,15c-0.5-5.1-4.5-9.1-9.6-9.6"/>
			<path class="st2" d="M5.4,17c0.5,5.1,4.5,9.1,9.6,9.6"/>
			<path class="st2" d="M17,26.6c5.1-0.5,9.1-4.5,9.6-9.6"/>
		</g>
		<rect x="15.5" y="3.4" class="st3" width="1" height="4"/>
		<rect x="15.5" y="24.6" class="st3" width="1" height="4"/>
		<rect x="26.1" y="14" transform="matrix(-1.836970e-16 1 -1 -1.836970e-16 42.6115 -10.6115)" class="st3" width="1" height="4"/>
		<rect x="4.9" y="14" transform="matrix(-1.836970e-16 1 -1 -1.836970e-16 21.3885 10.6115)" class="st3" width="1" height="4"/>
	</svg>


	<svg id="sprite-crosshair-2" viewBox="0 0 32 32" size="keep">

	</svg>


	<svg id="sprite-crosshair-3" viewBox="0 0 32 32" size="keep">

	</svg>


	<svg id="sprite-enemy-arm" viewBox="0 0 44 44" size="keep">

	</svg>


	<svg id="sprite-enemy-bullet" viewBox="0 0 20 24" size="keep">
		<style type="text/css">
			.st0{fill:#78888C;}
			.st1{fill:#AC3939;}
			.st2{fill:#802B2B;}
			.st3{fill:#97AAAF;}
			.st4{fill:#BDD6DB;}
		</style>
		<path class="st0" d="M9.5,2L8.7,3.2h2.5L10.5,2H9.5 M5.9,16.1h1.2C7.1,15.7,7,15.2,7,14.8c0-0.2,0-0.3,0-0.5c0-0.3,0-0.5,0-0.8
			c0-1.7,0.2-3.4,0.3-5.1c0-0.4,0.1-0.8,0.1-1.3L6.2,7.6c0,0.2,0,0.5-0.1,0.7c-0.2,1.7-0.3,3.4-0.3,5.2v0c0,0.3,0,0.5,0,0.8
			c0,0.2,0,0.3,0,0.5c0,0,0,0.1,0,0.1C5.8,15.3,5.9,15.7,5.9,16.1 M14.2,14.2c0-0.2,0-0.5,0-0.7v0c0-1.8-0.1-3.5-0.3-5.2
			c0-0.2-0.1-0.5-0.1-0.7l-1.3-0.5c0.1,0.4,0.1,0.8,0.2,1.3c0.2,1.7,0.3,3.4,0.3,5.1c0,0.3,0,0.5,0,0.8c0,0.2,0,0.3,0,0.5
			c-0.1,0.5-0.1,0.9-0.2,1.3H14c0.1-0.4,0.1-0.8,0.2-1.2c0-0.1,0-0.1,0-0.2C14.2,14.6,14.2,14.4,14.2,14.2
			C14.2,14.3,14.2,14.2,14.2,14.2z"/>
		<path class="st1" d="M13.6,1.2h-1.6l-0.8,2l1.3,4l2-1.9L13.6,1.2 M6.4,1.2L5.5,5.3l2,1.9l1.3-4l-0.8-2H6.4 M12.8,16.1
			c-0.9-0.2-1.9-0.3-2.8-0.2c-0.9-0.1-1.9,0-2.8,0.2c0.5,3,1.4,5.3,2.8,6.7C11.4,21.4,12.3,19.1,12.8,16.1z"/>
		<path class="st2" d="M12.5,7.2l1.3,0.5l1.5-1.4c0.2-0.1,0.3-0.3,0.3-0.5c0.1-0.2,0.1-0.4,0-0.6l-0.9-4.1c-0.1-0.3-0.2-0.5-0.4-0.7
			C14.2,0.1,13.9,0,13.6,0h-1.6c-0.2,0-0.5,0.1-0.7,0.2C11.2,0.4,11,0.5,11,0.8L10.5,2l0.8,1.2l0.8-2h1.6l0.9,4.1L12.5,7.2 M5.5,5.3
			l0.9-4.1h1.6l0.8,2L9.5,2L9,0.8C9,0.5,8.8,0.4,8.6,0.2C8.4,0.1,8.2,0,7.9,0H6.4C6.1,0,5.8,0.1,5.6,0.3C5.4,0.5,5.3,0.7,5.2,0.9
			L4.3,5c0,0.2,0,0.4,0,0.6C4.4,5.9,4.5,6,4.7,6.2l1.5,1.4l1.3-0.5L5.5,5.3 M10.3,24c0.2-0.1,0.4-0.2,0.6-0.3c1.6-1.6,2.6-4,3.1-7.4v0
			c0,0,0-0.1,0-0.2h-1.2c-0.5,3-1.4,5.3-2.8,6.7c-1.4-1.5-2.4-3.7-2.8-6.7H5.9c0,0.1,0,0.2,0,0.2v0c0.5,3.3,1.6,5.8,3.2,7.4
			c0.2,0.2,0.3,0.3,0.5,0.3C9.9,24,10.1,24,10.3,24z"/>
		<path class="st3" d="M7.3,8.4h5.3c0-0.4-0.1-0.8-0.2-1.3l-1.3-4H8.7l-1.3,4C7.4,7.6,7.4,8,7.3,8.4 M10,15.8c0.9-0.1,1.9,0,2.8,0.2
			c0.1-0.4,0.1-0.9,0.2-1.3c0-0.2,0-0.3,0-0.5c-1-0.1-2-0.2-3-0.2c-1,0-2,0-3,0.2c0,0.2,0,0.3,0,0.5c0,0.5,0.1,0.9,0.2,1.3
			C8.1,15.9,9.1,15.8,10,15.8z"/>
		<path class="st4" d="M13,13.5c0-1.7-0.1-3.4-0.3-5.1H7.3C7.1,10.1,7,11.8,7,13.5c0,0.3,0,0.5,0,0.8c1-0.1,2-0.2,3-0.2c1,0,2,0,3,0.2
			C13,14,13,13.8,13,13.5z"/>
	</svg>


	<svg id="sprite-enemy-heart" viewBox="0 0 68 88" size="keep">

	</svg>


	<svg id="sprite-enemy-missilebox" viewBox="0 0 44 44" size="keep">

	</svg>


	<svg id="sprite-enemy-plasmabox" viewBox="0 0 44 44" size="keep">

	</svg>


	<svg id="sprite-particle" viewBox="0 0 20 24" size="keep">

	</svg>

</svg>