<svg xmlns="http://www.w3.org/2000/svg" width="0" height="0">

	<svg id="xwing-logo" viewBox="0 0 428 106" cache="keep">
		<style type="text/css">
			.xwing-st0{fill:#eee;}
		</style>
	<path class="xwing-st0" d="M37.7,22.1c0.9,0,2-0.2,3.2-0.6c1.5-0.5,2.2-1.2,2.2-2c0-0.9-1-1.4-3-1.4H20c-1.6,0-2.3-0.7-2.3-2c0-0.6,0.2-1.3,0.7-2
		l4.6-8c0.6-1.1,1.5-2.1,2.8-2.8C27,2.4,28.1,2,29.3,2h20.1c1.5,0,2.3,0.7,2.3,2c0,0.6-0.2,1.3-0.6,2l-2.3,4c-0.4,0.7-0.6,1.4-0.6,2
		c0,1.3,0.8,2,2.3,2c1.1,0,2.2-0.4,3.5-1.2c1.3-0.8,2.2-1.7,2.8-2.8l2.3-4c0.6-1.1,1.5-2.1,2.8-2.8S64.3,2,65.4,2h20.1
		c1.5,0,2.3,0.7,2.3,2c0,0.6-0.2,1.3-0.6,2l-4.6,8c-0.7,1.1-1.6,2.1-2.8,2.8c-1.2,0.8-2.4,1.2-3.5,1.2H56.1c-0.9,0-2,0.2-3.2,0.6
		c-1.5,0.5-2.2,1.2-2.2,2c0,0.9,1,1.4,3,1.4h20.1c1.6,0,2.3,0.7,2.3,2c0,0.6-0.2,1.3-0.7,2l-9.2,16.1c-0.7,1.1-1.6,2.1-2.8,2.8
		c-1.2,0.8-2.4,1.2-3.5,1.2H39.9c-1.6,0-2.3-0.7-2.3-2c0-0.6,0.2-1.3,0.7-2l6.9-12c0.4-0.7,0.6-1.4,0.6-2c0-1.3-0.8-2-2.3-2
		c-1.1,0-2.3,0.4-3.5,1.2c-1.2,0.8-2.2,1.7-2.8,2.8l-6.9,12c-0.6,1.1-1.5,2.1-2.8,2.8c-1.3,0.8-2.4,1.2-3.6,1.2H3.7
		c-1.5,0-2.3-0.7-2.3-2c0-0.6,0.2-1.3,0.6-2l9.3-16.1c0.6-1.1,1.5-2.1,2.8-2.8c1.3-0.8,2.4-1.2,3.6-1.2H37.7z"/>
	<path class="xwing-st0" d="M148.7,10.1c1.5,0,2.3,0.7,2.3,2c0,0.6-0.2,1.3-0.6,2l-9.3,16.1c-0.6,1.1-1.5,2.1-2.8,2.8c-1.3,0.8-2.4,1.2-3.6,1.2H78.5
		c-1.5,0-2.3-0.7-2.3-2c0-0.6,0.2-1.3,0.6-2l9.3-16.1c0.6-1.1,1.5-2.1,2.8-2.8c1.3-0.8,2.4-1.2,3.6-1.2H148.7z"/>
	<path class="xwing-st0" d="M257.1,2c1.6,0,2.3,0.7,2.3,2c0,0.6-0.2,1.3-0.7,2l-20.8,36.1c-0.6,1.1-1.5,2.1-2.8,2.8c-1.3,0.8-2.4,1.2-3.6,1.2h-68.2
		l-12.7-21.5c-0.3-0.5-0.4-1.2-0.4-2.1c0-1.6,0.4-3.1,1.3-4.5l6.9-12c0.6-1.1,1.5-2.1,2.8-2.8c1.3-0.8,2.4-1.2,3.6-1.2h20.1
		c1.5,0,2.3,0.7,2.3,2c0,0.6-0.2,1.3-0.6,2L168,38.1c-0.4,0.7-0.6,1.4-0.6,2c0,1.3,0.8,2,2.3,2c1.1,0,2.3-0.4,3.6-1.2
		c1.3-0.8,2.2-1.7,2.8-2.8L194.6,6c0.6-1.1,1.5-2.1,2.8-2.8c1.3-0.8,2.4-1.2,3.6-1.2H221c1.5,0,2.3,0.7,2.3,2c0,0.6-0.2,1.3-0.6,2
		l-18.5,32.2c-0.4,0.7-0.6,1.4-0.6,2c0,1.3,0.8,2,2.3,2c1.1,0,2.3-0.4,3.5-1.2c1.2-0.8,2.2-1.7,2.8-2.8L230.7,6
		c0.7-1.1,1.6-2.1,2.8-2.8c1.2-0.8,2.4-1.2,3.5-1.2H257.1z"/>
	<path class="xwing-st0" d="M243.7,46.2c-1.6,0-2.3-0.7-2.3-2c0-0.6,0.2-1.3,0.6-2L262.9,6c0.6-1.1,1.5-2.1,2.8-2.8c1.3-0.8,2.4-1.2,3.6-1.2h20.1
		c1.5,0,2.3,0.7,2.3,2c0,0.6-0.2,1.3-0.6,2l-20.9,36.1c-0.6,1.1-1.5,2.1-2.8,2.8c-1.3,0.8-2.4,1.2-3.5,1.2H243.7z"/>
	<path class="xwing-st0" d="M357.5,2c1.5,0,2.3,0.7,2.3,2c0,0.6-0.2,1.3-0.6,2l-20.9,36.1c-0.6,1.1-1.5,2.1-2.8,2.8c-1.3,0.8-2.4,1.2-3.5,1.2h-20.1
		c-1.6,0-2.3-0.7-2.3-2c0-0.6,0.2-1.3,0.6-2L328.7,10c0.4-0.7,0.6-1.4,0.6-2c0-1.3-0.8-2-2.3-2c-1.1,0-2.3,0.4-3.5,1.2
		c-1.2,0.8-2.2,1.7-2.8,2.8l-18.6,32.1c-0.6,1.1-1.5,2.1-2.8,2.8c-1.3,0.8-2.4,1.2-3.5,1.2h-20.1c-1.6,0-2.3-0.7-2.3-2
		c0-0.6,0.2-1.3,0.6-2L294.9,6c0.6-1.1,1.5-2.1,2.8-2.8c1.3-0.8,2.4-1.2,3.6-1.2H357.5z"/>
	<path class="xwing-st0" d="M373.2,55.8c-0.3-0.6-0.5-1.4-0.5-2.3c0-1.4,0.3-2.7,1-3.8c0.3-0.6,0.4-1.1,0.4-1.6c0-1.3-0.8-1.9-2.4-1.9h-28.1
		c-1.6,0-2.3-0.7-2.3-2c0-0.6,0.2-1.3,0.6-2L362.7,6c0.6-1.1,1.5-2.1,2.8-2.8c1.3-0.8,2.4-1.2,3.6-1.2h56.2c1.5,0,2.3,0.7,2.3,2
		c0,0.6-0.2,1.3-0.6,2l-4.7,8c-0.6,1.1-1.5,2.1-2.8,2.8c-1.3,0.8-2.4,1.2-3.5,1.2h-20.1c-1.6,0-2.3-0.7-2.3-2c0-0.6,0.2-1.3,0.6-2
		l2.3-4c0.4-0.7,0.6-1.4,0.6-2c0-1.3-0.8-2-2.3-2c-1.1,0-2.3,0.4-3.5,1.2c-1.2,0.8-2.2,1.7-2.8,2.8l-16.2,28.1
		c-0.4,0.7-0.6,1.4-0.6,2c0,1.3,0.8,2,2.3,2c1.1,0,2.3-0.4,3.5-1.2c1.3-0.8,2.2-1.7,2.8-2.9l7-12c0.7-1.1,1.6-2.1,2.8-2.8
		c1.2-0.8,2.4-1.2,3.5-1.2h20.1c1.6,0,2.3,0.7,2.3,2c0,0.6-0.2,1.3-0.7,2l-27.2,47.2c-0.8,1.4-1.7,2.2-2.7,2.2
		c-0.5,0-0.9-0.3-1.2-0.8L373.2,55.8z"/>
	</svg>

	<svg id="made-with-impact" viewBox="0 0 135 49">
		<style type="text/css">
			.st0{fill:#eee;}
		</style>
		<path class="st0" d="M37.4,31.3L37.4,31.3l-0.1-0.1c-0.2-0.1-0.3-0.2-0.5-0.3L-0.5,5.1l14,18.7l-6.7-3.2l16.7,23.8
			c0.1,0.1,0.2,0.2,0.2,0.3l0.1,0.2l0,0c1.8,2.3,4.6,3.8,7.7,3.8c5.4,0,9.7-4.3,9.7-9.7C41.3,35.9,39.7,33.1,37.4,31.3z M31.6,44.7
			c-3.1,0-5.7-2.5-5.7-5.7c0-3.1,2.5-5.7,5.7-5.7c3.1,0,5.7,2.5,5.7,5.7C37.2,42.2,34.7,44.7,31.6,44.7z"/>
		<g id="impact">
			<path class="st0" d="M52.9,48.7h-5.6V16.5h5.6V48.7z"/>
			<path class="st0" d="M59.9,26.7l0,15v7h-4.5V16.5h8.1L65.1,36l1.7-19.5h8.1v32.2h-5.5v-7.2l0-14.7l-2.2,21.9H62L59.9,26.7z"/>
			<path class="st0" d="M83,48.7h-5.6V16.5h8.2c3.5,0,5.2,1.7,5.2,5.2v10.2c0,3.5-1.7,5.2-5.2,5.2H83V48.7z M84.2,21.3H83v11h1.2
				c0.7,0,1-0.3,1-1v-9C85.2,21.6,84.8,21.3,84.2,21.3z"/>
			<path class="st0" d="M100.4,48.7L100,44h-3.5l-0.4,4.7H91l3.7-32.2h7.6l3.7,32.2H100.4z M96.9,39.2h2.6l-1.3-14.9L96.9,39.2z"/>
			<path class="st0" d="M121.2,34.4v9.4c0,3.5-1.7,5.2-5.2,5.2h-3.4c-3.5,0-5.2-1.7-5.2-5.2V21.4c0-3.5,1.7-5.2,5.2-5.2h3.4
				c3.5,0,5.2,1.7,5.2,5.2V30h-5.5v-8c0-0.7-0.3-1-1-1H114c-0.6,0-1,0.3-1,1v21.2c0,0.7,0.3,1,1,1h0.7c0.7,0,1-0.3,1-1v-8.8H121.2z"/>
			<path class="st0" d="M126.1,48.7V21.5h-3.4v-5h12.4v5h-3.4v27.2H126.1z"/>
		</g>
		<g id="made_with">
			<path class="st0" d="M51.6,12h-1.5V4.2c0-0.3-0.1-0.5-0.4-0.5c-0.3,0-0.5,0.1-0.8,0.3v8h-1.5V2.5h1.5V3c0.4-0.3,0.8-0.6,1.4-0.6
				h0.1c0.6,0,1,0.2,1.1,0.7c0.4-0.4,0.9-0.7,1.5-0.7H53c0.8,0,1.3,0.5,1.3,1.4V12h-1.5V4.2c0-0.3-0.1-0.5-0.4-0.5
				c-0.3,0-0.5,0.1-0.8,0.3V12z"/>
			<path class="st0" d="M55.4,8.4c0-1,0.3-1.3,1.2-1.6l1.5-0.5v-2c0-0.4-0.2-0.5-0.5-0.5h-0.1c-0.4,0-0.5,0.2-0.5,0.5v1.6h-1.4V4.2
				c0-1.2,0.6-1.8,1.8-1.8h0.5c1.2,0,1.8,0.6,1.8,1.8V12h-1.5v-0.5c-0.4,0.3-0.8,0.6-1.4,0.6h0c-0.9,0-1.3-0.5-1.3-1.4V8.4z
				 M58.1,10.5V7.5l-0.8,0.3c-0.3,0.1-0.4,0.3-0.4,0.7v1.9c0,0.3,0.2,0.5,0.5,0.5C57.6,10.8,57.8,10.7,58.1,10.5z"/>
			<path class="st0" d="M65,12h-1.5v-0.5c-0.3,0.3-0.8,0.6-1.4,0.6h0c-0.9,0-1.4-0.6-1.4-1.5V3.9c0-0.9,0.5-1.5,1.4-1.5h0
				c0.6,0,1.1,0.3,1.4,0.6V0H65V12z M63.5,4c-0.2-0.2-0.5-0.3-0.8-0.3c-0.4,0-0.5,0.2-0.5,0.5v6c0,0.3,0.2,0.5,0.5,0.5
				c0.3,0,0.5-0.1,0.8-0.3V4z"/>
			<path class="st0" d="M67.7,7.8v2.4c0,0.4,0.2,0.5,0.5,0.5h0.2c0.4,0,0.5-0.2,0.5-0.5V8.7h1.4v1.6c0,1.2-0.6,1.8-1.8,1.8H68
				c-1.2,0-1.8-0.6-1.8-1.8V4.2c0-1.2,0.6-1.8,1.8-1.8h0.6c1.2,0,1.8,0.6,1.8,1.8v3.6H67.7z M67.7,6.6h1.2V4.3c0-0.4-0.2-0.5-0.5-0.5
				h-0.2c-0.4,0-0.5,0.2-0.5,0.5V6.6z"/>
			<path class="st0" d="M78.3,8.7l0.6-6.2h1.4L79,12h-1.5l-0.7-5.6L76.2,12h-1.5l-1.2-9.5h1.5l0.6,6.2l0.7-6.2h1.3L78.3,8.7z"/>
			<path class="st0" d="M81.2,0.3h1.5v1.4h-1.5V0.3z M81.2,2.5h1.5V12h-1.5V2.5z"/>
			<path class="st0" d="M85.7,12h-1.5V3.8h-0.5V2.5h0.5V1.1h1.5v1.4h0.8v1.3h-0.8V12z"/>
			<path class="st0" d="M87.4,0h1.5v3c0.4-0.3,0.8-0.6,1.4-0.6h0.1c0.9,0,1.3,0.5,1.3,1.4V12h-1.5V4.2c0-0.3-0.2-0.5-0.5-0.5
				c-0.3,0-0.5,0.1-0.8,0.3v8h-1.5V0z"/>
		</g>
	</svg>

	<svg id="sprite-shield" viewBox="0 0 48 48" size="keep">
		<style type="text/css">
			.st0{fill:#eee;}
		</style>
		<circle class="st0" cx="24" cy="24" r="23"/>
	</svg>

	<svg id="sprite-ship" viewBox="0 0 32 32" size="keep">
		<style type="text/css">
			.st0{fill:#CBCBCB;}
			.st1{fill:#8EA8AD;}
			.st2{fill:#BDD6DB;}
			.st3{fill:#F2F2F2;}
			.st4{fill:#36BBF5;}
			.st5{fill:#1884B4;}
			.st6{fill:#8ED9FA;}
			.st7{fill:#4A3C55;}
			.st8{fill:#ECBD02;}
			.st9{fill:#BF9900;}
			.st10{fill:#FFCC00;}
			.st11{fill:#D3E1E7;}
		</style>
		<path class="st0" d="M16.6,1h0.2c0.1,0,0.2,0,0.3,0.1l0.2,0.3l1.8,5.1L18.7,7l-1.8-5.2h-0.2V1 M23,27.3l-2.7,3.5
			C20.1,31,20,31,19.8,31h-7.6c-0.2,0-0.3-0.1-0.4-0.2L9,27.3l0.3-0.8l2.9,3.8h7.6l2.9-3.8L23,27.3 M12.8,6.5l1.8-5.1
			c0-0.1,0.1-0.3,0.2-0.3C14.9,1,15,1,15.2,1h0.2v0.8h-0.2L13.3,7l-0.1,0.1L12.8,6.5"/>
		<path class="st1" d="M12.8,6.5l0.5,0.6l-2.2,3.3l-8.5,13l-0.2-0.9L12.8,6.5 M18.7,7l0.5-0.4l10.4,15.8l-0.2,1l-8.5-13L18.7,7"/>
		<path class="st2" d="M18.7,7l2.3,3.5l5,13.5l-1.1,1.4h-1.3l1.1-1.4L18.7,7 M11.1,10.4l2.2-3.3L13.3,7L7.4,24l1.1,1.4H7.2L6,23.9
			L11.1,10.4"/>
		<path class="st3" d="M16.6,1.8h0.2L18.7,7l5.9,17l-1.1,1.4l-0.9,1.1l-2.9,3.8h-7.6l-2.9-3.8l-0.9-1.1L7.4,24l5.9-17l1.8-5.2h0.2
			l-5.1,20.9l2,4.7h7.5l2-4.7L16.6,1.8"/>
		<path class="st4" d="M16.6,1.8l5.1,20.9l-2,4.7h-7.5l-2-4.7l5.1-20.9H16.6 M13.3,14.2l-0.1,0.4h5.6l-0.1-0.4l-2-8.9h-1.4L13.3,14.2
			L13.3,14.2 M28.9,27l0.1-0.5l0.2-1.1l0.3-2l1.1,1.7V27H28.9 M2.6,23.4l0.3,2L3,26.5L3.1,27H1.4v-1.9L2.6,23.4"/>
		<path class="st5" d="M2.6,23.4l-1.1,1.7V27h1.6l0.1,0.8l-0.1,0H1.4c-0.2,0-0.3-0.1-0.4-0.2c-0.1-0.2-0.2-0.4-0.2-0.6v-1.9
			c0-0.2,0.1-0.4,0.2-0.5l1.4-2.1L2.6,23.4 M16.6,1v0.8h-1.3V1H16.6 M29.6,22.4l1.4,2.2c0.1,0.1,0.1,0.3,0.1,0.5V27
			c0,0.2-0.1,0.4-0.2,0.6c-0.1,0.1-0.3,0.2-0.5,0.2h-1.6h-0.1l0.1-0.8h1.6v-1.9l-1.1-1.7L29.6,22.4"/>
		<path class="st6" d="M18.7,14.2l-2-8.1h-1.4l-2,8.1h0l2-8.9h1.4L18.7,14.2"/>
		<path class="st7" d="M18.7,14.2l0.1,0.4h-5.6l0.1-0.4l2-8.1h1.4L18.7,14.2"/>
		<path class="st8" d="M23.5,25.4h1.3L24,26.5h-1.3L23.5,25.4 M7.2,25.4h1.3l0.9,1.1H8L7.2,25.4"/>
		<path class="st9" d="M28.8,27.8l-0.2-0.1l-0.2-0.3H23l-0.3-0.8H24h5L28.9,27L28.8,27.8 M9,27.3H3.7l-0.2,0.3l-0.2,0.1L3.1,27L3,26.5
			h5h1.3L9,27.3"/>
		<path class="st10" d="M29,26.5h-5l0.9-1.1h4.3L29,26.5 M2.8,25.4h4.3L8,26.5H3L2.8,25.4"/>
		<path class="st11" d="M2.8,25.4l-0.3-2l8.5-13L6,23.9l1.1,1.4H2.8 M24.8,25.4l1.1-1.4l-5-13.5l8.5,13l-0.3,2H24.8"/>
	</svg>


	<svg id="sprite-plasma" viewBox="0 0 96 96" size="keep">
		<style type="text/css">
			.st0{fill:url(#SVGID_1_);}
			.st1{fill:url(#SVGID_2_);}
			.st2{fill:#FFFFFF;}
			.st3{fill:url(#SVGID_3_);}
		</style>
		<linearGradient id="SVGID_1_" gradientUnits="userSpaceOnUse" x1="48" y1="48" x2="48" y2="96">
			<stop  offset="0" style="stop-color:#fff"/>
			<stop  offset="1" style="stop-color:#fff;stop-opacity:0"/>
		</linearGradient>
		<path class="st0" d="M49.5,48c0,0.8-0.7,47.5-1.5,47.5S46.5,48.8,46.5,48s0.7-1.5,1.5-1.5S49.5,47.2,49.5,48z"/>
		<linearGradient id="SVGID_2_" gradientUnits="userSpaceOnUse" x1="48" y1="48" x2="48" y2="96">
			<stop  offset="0" style="stop-color:#fff"/>
			<stop  offset="1" style="stop-color:#fff;stop-opacity:0"/>
		</linearGradient>
		<path class="st1" d="M48.5,48c0,0.8-0.2,47.5-0.5,47.5S47.5,48.8,47.5,48s0.2-1.5,0.5-1.5S48.5,47.2,48.5,48z"/>
		<circle class="st2" cx="48" cy="48" r="1.5"/>
		<radialGradient id="SVGID_3_" cx="48" cy="48" r="23.6614" gradientUnits="userSpaceOnUse">
			<stop  offset="0" style="stop-color:#fff;stop-opacity:0.2"/>
			<stop  offset="1" style="stop-color:#fff;stop-opacity:0"/>
		</radialGradient>
		<circle class="st3" cx="48" cy="48" r="24"/>
	</svg>


	<svg id="sprite-crosshair-1" viewBox="0 0 32 32" size="keep">
		<style type="text/css">
			.st1{fill:none;stroke:#f90;stroke-width:2;stroke-miterlimit:10;stroke-dasharray:1;}
		</style>
		<path class="st1" d="M7.8,3.6c-4,2.7-6.7,7.2-6.7,12.4s2.7,9.8,6.7,12.4"/>
		<path class="st1" d="M24.2,28.4c4-2.7,6.7-7.2,6.7-12.4s-2.7-9.8-6.7-12.4"/>
	</svg>


	<svg id="sprite-crosshair-2" viewBox="0 0 32 32" size="keep">
		<style type="text/css">
			.st0{fill:#fff;}
			.st2{fill:none;stroke:#fff;stroke-miterlimit:10;}
			.st3{fill:#fff;}
		</style>
		<circle class="st0" cx="16" cy="16" r="0.7"/>
		<g>
			<path class="st2" d="M15,5.4C9.9,5.9,5.9,9.9,5.4,15"/>
			<path class="st2" d="M26.6,15c-0.5-5.1-4.5-9.1-9.6-9.6"/>
			<path class="st2" d="M5.4,17c0.5,5.1,4.5,9.1,9.6,9.6"/>
			<path class="st2" d="M17,26.6c5.1-0.5,9.1-4.5,9.6-9.6"/>
		</g>
		<rect x="15.5" y="3.4" class="st3" width="1" height="4"/>
		<rect x="15.5" y="24.6" class="st3" width="1" height="4"/>
		<rect x="26.1" y="14" transform="matrix(-1.836970e-16 1 -1 -1.836970e-16 42.6115 -10.6115)" class="st3" width="1" height="4"/>
		<rect x="4.9" y="14" transform="matrix(-1.836970e-16 1 -1 -1.836970e-16 21.3885 10.6115)" class="st3" width="1" height="4"/>
	</svg>


	<svg id="sprite-enemy-arm" viewBox="0 0 48 48" size="keep">
		<style type="text/css">
			.st0{fill:#7B7B7B;}
			.st1{fill:#CBCBCB;}
			.st2{fill:#AAAAAA;}
			.st3{fill:#ADC4C9;}
			.st4{fill:#B5CDD2;}
			.st5{fill:#95A8AD;}
			.st6{fill:#A1B6BB;}
			.st7{fill:#78888C;}
			.st8{fill:#5B5B5B;}
			.st9{fill:#6D6D6D;}
			.st10{fill:#484848;}
			.st11{fill:#BD3E3E;}
			.st12{fill:#802B2B;}
			.st13{fill:#BBBBBB;}
			.st14{fill:#AC3939;}
			.st15{fill:#E9E9E9;}
			.st16{fill:#A3A3A3;}
			.st17{fill:#D9D9D9;}
			.st18{fill:#EEEEEE;}
			.st19{fill:#5D4B6B;}
			.st20{fill:#4A3C55;}
		</style>
		<g transform="matrix( 1, 0, 0, 1, 0,0) ">
			<g>
				<g id="Layer0_260_MEMBER_0_FILL">
					<path class="st0" d="M26.9,32.7v-5.1c0-0.3-0.1-0.5-0.3-0.7c-0.2-0.2-0.4-0.3-0.7-0.3h-3.9c-0.3,0-0.5,0.1-0.7,0.3
						c-0.2,0.2-0.3,0.5-0.3,0.7v5.1c0,0.3,0.1,0.5,0.3,0.7l0.7,0.7v7.3l-1.7,1.7c-0.2,0.2-0.3,0.5-0.3,0.7V47c0,0.3,0.1,0.5,0.3,0.7
						c0.2,0.2,0.4,0.3,0.7,0.3h5.8c0.3,0,0.5-0.1,0.7-0.3c0.2-0.2,0.3-0.4,0.3-0.7v-3.1c0-0.3-0.1-0.5-0.3-0.7l-1.7-1.7v-7.3l0.7-0.7
						C26.8,33.2,26.9,33,26.9,32.7 M25.9,27.6v5.1l-1,1v8.2l1.9,2V47h-5.8v-3.1l1.9-2v-8.2l-1-1v-5.1H25.9z"/>
					<path class="st1" d="M23,41.9l-1.9,2V47h5.8v-3.1l-1.9-2H23 M25.9,32.7v-5.1h-3.9v5.1l1,1H25L25.9,32.7z"/>
					<path class="st2" d="M25,33.7H23v8.2H25V33.7z"/>
				</g>
			</g>
		</g>
		<g transform="matrix( 1, 0, 0, 1, 0,0) ">
			<g>
				<g id="Layer0_260_MEMBER_1_FILL">
					<path class="st3" d="M32.7,28.6v-5.1h-2.4H17.7h-2.4v5.1H32.7 M19.6,12.8l-1.9,2h12.6l-1.9-2H19.6z"/>
					<path class="st4" d="M32.7,30.2v-1.5H15.3v1.5l2,2.4l13,0.2L32.7,30.2z"/>
					<path class="st5" d="M30.3,23.5V21H17.7v2.6H30.3z"/>
					<path class="st6" d="M30.3,14.8H17.7V21h12.6V14.8z"/>
					<path class="st7" d="M19.6,12.8l-1-0.4L17,14.1c-0.2,0.2-0.3,0.5-0.3,0.7v7.7h-1.5c-0.3,0-0.5,0.1-0.7,0.3
						c-0.2,0.2-0.3,0.5-0.3,0.7v6.6c0,0.3,0.1,0.5,0.2,0.7l2,2.4c0.1,0.1,0.2,0.2,0.3,0.3c0.1,0.1,0.2,0.1,0.4,0.1l13,0.2
						c0.3,0,0.5-0.1,0.7-0.3l2.4-2.6c0.2-0.2,0.3-0.4,0.3-0.7v-6.6c0-0.3-0.1-0.5-0.3-0.7c-0.2-0.2-0.4-0.3-0.7-0.3h-1.5v-7.7
						c0-0.3-0.1-0.5-0.3-0.7l-1.7-1.7l-1,0.4l1.9,2V21v2.6h2.4v5.1v1.5l-2.4,2.6l-13-0.2l-2-2.4v-1.5v-5.1h2.4V21v-6.1L19.6,12.8z"/>
					<path class="st8" d="M28.4,2.6L26.4,1h-5.3l-1.5,1.5v10.2h8.7V2.6 M21.1,3.1h1v5.1h-1V3.1 M22.1,9.2v2h-1v-2H22.1z"/>
					<path class="st9" d="M22.1,11.2v-2h-1v2H22.1 M22.1,3.1h-1v5.1h1V3.1z"/>
					<path class="st10" d="M26.4,1l1.9,1.5v10.2l1-0.4V2.6c0-0.2,0-0.3-0.1-0.5C29.2,2,29.1,1.8,29,1.7L27,0.2C26.8,0.1,26.6,0,26.4,0
						h-5.3c-0.3,0-0.5,0.1-0.7,0.3l-1.5,1.5c-0.2,0.2-0.3,0.5-0.3,0.7v9.8l1,0.4V2.6L21.1,1H26.4z"/>
				</g>
			</g>
		</g>
		<g transform="matrix( 1, 0, 0, 1, 0,0) ">
			<g>
				<g id="Layer0_260_MEMBER_2_MEMBER_0_FILL">
					<path class="st11" d="M31.6,34.2l2.1-1l2.1-22.8l-4,1.5L30.1,22L31.6,34.2z"/>
					<path class="st12" d="M32.2,9.6l-1.1,0.5l-1.9,11.8c0,0.1,0,0.2,0,0.3L31,37c0,0.3,0.1,0.5,0.3,0.6c0.2,0.2,0.4,0.3,0.6,0.3h4.4
						l0.2-1H32l-0.3-2.6L30.1,22l1.7-10.2L32.2,9.6z"/>
					<path class="st13" d="M40.3,3H47l-9.2,33.8h-1.2l-0.2,1h1.5c0.2,0,0.4-0.1,0.6-0.2c0.2-0.1,0.3-0.3,0.4-0.5L48,3.3
						c0-0.2,0-0.4,0-0.6c-0.1-0.2-0.2-0.4-0.4-0.5C47.4,2,47.2,2,47,2h-6.7C40.1,2,40,2,39.8,2.1l-8,5.5c-0.1,0.1-0.2,0.2-0.3,0.3
						c-0.1,0.1-0.1,0.2-0.1,0.4l-0.3,1.7l1.1-0.5l0.1-1L40.3,3z"/>
					<path class="st14" d="M42,11.4l-3.3-5.1l-6.4,3.3l-0.4,2.3l4-1.5l-2.1,22.8l-2.1,1l0.3,2.6h4.6l1.3-6.4
						C39.3,24.1,40.6,17.8,42,11.4z"/>
					<path class="st15" d="M38.6,6.3l3.3,5.1c-1.4,6.4-2.7,12.7-4.1,19.1l-1.3,6.4h1.2L47,3h-6.7l-8,5.5l-0.1,1L38.6,6.3z"/>
				</g>
			</g>
		</g>
		<g transform="matrix( 1, 0, 0, 1, 0,0) ">
			<g>
				<g id="Layer0_260_MEMBER_2_MEMBER_1_FILL">
					<path class="st11" d="M16.2,11.9l-4-1.5l2.1,22.8l2.1,1L17.9,22L16.2,11.9z"/>
					<path class="st12" d="M16.9,10.1l-1.1-0.5l0.4,2.3L17.9,22l-1.5,12.2L16,36.8h-4.6l0.2,1H16c0.2,0,0.5-0.1,0.6-0.3
						c0.2-0.2,0.3-0.4,0.3-0.6l1.8-14.8c0-0.1,0-0.2,0-0.3L16.9,10.1z"/>
					<path class="st14" d="M15.8,9.6L9.4,6.3L6,11.4c1.4,6.4,2.7,12.7,4.1,19.1l1.3,6.4H16l0.3-2.6l-2.1-1l-2.1-22.8l4,1.5L15.8,9.6z"
						/>
					<path class="st15" d="M15.8,9.6l-0.1-1L7.7,3H1l9.2,33.8h1.2l-1.3-6.4C8.7,24.1,7.4,17.8,6,11.4l3.3-5.1L15.8,9.6z"/>
					<path class="st13" d="M8.2,2.1C8,2,7.9,2,7.7,2H1C0.8,2,0.6,2,0.4,2.1C0.3,2.3,0.1,2.5,0.1,2.7C0,2.9,0,3.1,0,3.3l9.2,33.8
						c0.1,0.2,0.2,0.4,0.4,0.5c0.2,0.1,0.4,0.2,0.6,0.2h1.5l-0.2-1h-1.2L1,3h6.7l8,5.5l0.1,1l1.1,0.5l-0.3-1.7c0-0.1-0.1-0.3-0.1-0.4
						c-0.1-0.1-0.2-0.2-0.3-0.3L8.2,2.1z"/>
				</g>
			</g>
		</g>
		<g transform="matrix( 1, 0, 0, 1, 0,0) ">
			<g>
				<g id="Layer0_260_MEMBER_3_FILL">
					<path class="st16" d="M19.2,15.1c-0.2,0-0.3,0.1-0.5,0.2c-0.2,0.1-0.3,0.2-0.4,0.4L12.7,28c-0.1,0.3-0.1,0.5,0,0.7l4.9,17
						c0,0.2,0.2,0.4,0.3,0.5c0.2,0.1,0.4,0.2,0.6,0.2h1.7c0.1,0,0.2,0,0.3-0.1l3.6-1.3l3.6,1.3c0.1,0,0.2,0.1,0.3,0.1h1.7
						c0.2,0,0.4-0.1,0.6-0.2c0.2-0.1,0.3-0.3,0.4-0.5l4.9-17c0.1-0.2,0-0.5-0.1-0.7l-5.7-12.3c-0.1-0.2-0.2-0.3-0.4-0.4
						c-0.2-0.1-0.3-0.2-0.5-0.2H19.2 M19.2,16.1h9.5l5.7,12.3l-4.9,17h-1.7L24,44.1l-3.9,1.4h-1.7l-4.9-17L19.2,16.1z"/>
					<path class="st17" d="M18.4,45.4h1.7l-4.5-18.8l3.6-10.6l-5.7,12.3L18.4,45.4 M32.4,26.7l-4.5,18.8h1.7l4.9-17l-5.7-12.3
						L32.4,26.7z"/>
					<path class="st18" d="M28.8,16.1h-9.5l-3.6,10.6l4.5,18.8l3.9-1.4l3.9,1.4l4.5-18.8L28.8,16.1z"/>
				</g>
			</g>
		</g>
		<g transform="matrix( 1, 0, 0, 1, 0,0) ">
			<g>
				<g id="Layer0_260_MEMBER_4_FILL">
					<path class="st19" d="M24,27.5c-1.1,0-2.1,0.2-2.9,0.6c-0.8,0.4-1.1,0.8-1.1,1.2l0.8,8.8c0,0.3,0.1,0.6,0.3,0.9
						c0.2,0.3,0.4,0.6,0.7,0.8c0.6,0.4,1.3,0.7,2.1,0.7V27.5z"/>
					<path class="st20" d="M28,29.3c0-0.5-0.3-0.9-1.1-1.2c-0.8-0.4-1.7-0.6-2.9-0.6v12.9c0.8,0,1.5-0.2,2.1-0.7c0.6-0.4,1-1,1-1.7
						L28,29.3z"/>
				</g>
			</g>
		</g>
	</svg>


	<svg id="sprite-enemy-bullet" viewBox="0 0 20 24" size="keep">
		<style type="text/css">
			.st0{fill:#78888C;}
			.st1{fill:#AC3939;}
			.st2{fill:#802B2B;}
			.st3{fill:#97AAAF;}
			.st4{fill:#BDD6DB;}
		</style>
		<path class="st0" d="M9.5,2L8.7,3.2h2.5L10.5,2H9.5 M5.9,16.1h1.2C7.1,15.7,7,15.2,7,14.8c0-0.2,0-0.3,0-0.5c0-0.3,0-0.5,0-0.8
			c0-1.7,0.2-3.4,0.3-5.1c0-0.4,0.1-0.8,0.1-1.3L6.2,7.6c0,0.2,0,0.5-0.1,0.7c-0.2,1.7-0.3,3.4-0.3,5.2v0c0,0.3,0,0.5,0,0.8
			c0,0.2,0,0.3,0,0.5c0,0,0,0.1,0,0.1C5.8,15.3,5.9,15.7,5.9,16.1 M14.2,14.2c0-0.2,0-0.5,0-0.7v0c0-1.8-0.1-3.5-0.3-5.2
			c0-0.2-0.1-0.5-0.1-0.7l-1.3-0.5c0.1,0.4,0.1,0.8,0.2,1.3c0.2,1.7,0.3,3.4,0.3,5.1c0,0.3,0,0.5,0,0.8c0,0.2,0,0.3,0,0.5
			c-0.1,0.5-0.1,0.9-0.2,1.3H14c0.1-0.4,0.1-0.8,0.2-1.2c0-0.1,0-0.1,0-0.2C14.2,14.6,14.2,14.4,14.2,14.2
			C14.2,14.3,14.2,14.2,14.2,14.2z"/>
		<path class="st1" d="M13.6,1.2h-1.6l-0.8,2l1.3,4l2-1.9L13.6,1.2 M6.4,1.2L5.5,5.3l2,1.9l1.3-4l-0.8-2H6.4 M12.8,16.1
			c-0.9-0.2-1.9-0.3-2.8-0.2c-0.9-0.1-1.9,0-2.8,0.2c0.5,3,1.4,5.3,2.8,6.7C11.4,21.4,12.3,19.1,12.8,16.1z"/>
		<path class="st2" d="M12.5,7.2l1.3,0.5l1.5-1.4c0.2-0.1,0.3-0.3,0.3-0.5c0.1-0.2,0.1-0.4,0-0.6l-0.9-4.1c-0.1-0.3-0.2-0.5-0.4-0.7
			C14.2,0.1,13.9,0,13.6,0h-1.6c-0.2,0-0.5,0.1-0.7,0.2C11.2,0.4,11,0.5,11,0.8L10.5,2l0.8,1.2l0.8-2h1.6l0.9,4.1L12.5,7.2 M5.5,5.3
			l0.9-4.1h1.6l0.8,2L9.5,2L9,0.8C9,0.5,8.8,0.4,8.6,0.2C8.4,0.1,8.2,0,7.9,0H6.4C6.1,0,5.8,0.1,5.6,0.3C5.4,0.5,5.3,0.7,5.2,0.9
			L4.3,5c0,0.2,0,0.4,0,0.6C4.4,5.9,4.5,6,4.7,6.2l1.5,1.4l1.3-0.5L5.5,5.3 M10.3,24c0.2-0.1,0.4-0.2,0.6-0.3c1.6-1.6,2.6-4,3.1-7.4v0
			c0,0,0-0.1,0-0.2h-1.2c-0.5,3-1.4,5.3-2.8,6.7c-1.4-1.5-2.4-3.7-2.8-6.7H5.9c0,0.1,0,0.2,0,0.2v0c0.5,3.3,1.6,5.8,3.2,7.4
			c0.2,0.2,0.3,0.3,0.5,0.3C9.9,24,10.1,24,10.3,24z"/>
		<path class="st3" d="M7.3,8.4h5.3c0-0.4-0.1-0.8-0.2-1.3l-1.3-4H8.7l-1.3,4C7.4,7.6,7.4,8,7.3,8.4 M10,15.8c0.9-0.1,1.9,0,2.8,0.2
			c0.1-0.4,0.1-0.9,0.2-1.3c0-0.2,0-0.3,0-0.5c-1-0.1-2-0.2-3-0.2c-1,0-2,0-3,0.2c0,0.2,0,0.3,0,0.5c0,0.5,0.1,0.9,0.2,1.3
			C8.1,15.9,9.1,15.8,10,15.8z"/>
		<path class="st4" d="M13,13.5c0-1.7-0.1-3.4-0.3-5.1H7.3C7.1,10.1,7,11.8,7,13.5c0,0.3,0,0.5,0,0.8c1-0.1,2-0.2,3-0.2c1,0,2,0,3,0.2
			C13,14,13,13.8,13,13.5z"/>
	</svg>


	<svg id="sprite-enemy-heart" viewBox="0 0 68 88" size="keep">
		<style type="text/css">
			.st0{fill:#7B7B7B;}
			.st1{fill:#CBCBCB;}
			.st2{fill:#AAAAAA;}
			.st3{fill:#484848;}
			.st4{fill:#78888C;}
			.st5{fill:#6D6D6D;}
			.st6{fill:#A1B6BB;}
			.st7{fill:#ADC4C9;}
			.st8{fill:#5B5B5B;}
			.st9{fill:#B5CDD2;}
			.st10{fill:#BD3E3E;}
			.st11{fill:#E9E9E9;}
			.st12{fill:#BBBBBB;}
			.st13{fill:#AC3939;}
			.st14{fill:#802B2B;}
			.st15{fill:#EEEEEE;}
			.st16{fill:#D9D9D9;}
		</style>
		<g transform="matrix( 1, 0, 0, 1, 0,0) ">
			<g>
				<g id="Layer0_266_MEMBER_0_FILL">
					<path class="st0" d="M20.8,49.5c-0.2,0-0.4,0.1-0.6,0.3C20.1,50,20,50.3,20,50.6v3.4c0,0.3,0.1,0.6,0.2,0.8l1.3,2v8.2l-0.6,0.8
						c-0.2,0.2-0.2,0.5-0.2,0.8v5.7c0,0.3,0.1,0.6,0.2,0.8c0.1,0.2,0.3,0.3,0.6,0.3h3.1c0.2,0,0.4-0.1,0.6-0.3
						c0.1-0.2,0.2-0.5,0.2-0.8v-5.7c0-0.3-0.1-0.6-0.2-0.8l-0.6-0.8v-8.2l1.4-2c0.1-0.2,0.2-0.5,0.2-0.8v-3.4c0-0.3-0.1-0.6-0.2-0.8
						c-0.2-0.2-0.3-0.3-0.6-0.3H20.8 M22.4,56.4l-1.6-2.3v-3.4h4.7v3.4L24,56.4v9.2l0.8,1.1v5.7h-3.1v-5.7l0.8-1.1V56.4 M42.4,49.5
						c-0.2,0-0.4,0.1-0.6,0.3c-0.2,0.2-0.2,0.5-0.2,0.8v3.4c0,0.3,0.1,0.6,0.2,0.8l1.3,2v8.2l-0.6,0.8c-0.2,0.2-0.2,0.5-0.2,0.8v5.7
						c0,0.3,0.1,0.6,0.2,0.8c0.1,0.2,0.3,0.3,0.6,0.3h3.1c0.2,0,0.4-0.1,0.6-0.3c0.1-0.2,0.2-0.5,0.2-0.8v-5.7c0-0.3-0.1-0.6-0.2-0.8
						l-0.6-0.8v-8.2l1.4-2c0.1-0.2,0.2-0.5,0.2-0.8v-3.4c0-0.3-0.1-0.6-0.2-0.8c-0.2-0.2-0.3-0.3-0.6-0.3H42.4 M42.4,54.1v-3.4h4.7
						v3.4l-1.6,2.3v9.2l0.8,1.1v5.7h-3.1v-5.7l0.8-1.1v-9.2L42.4,54.1z"/>
					<path class="st1" d="M24.8,72.5v-5.7L24,65.6h-1.6l-0.8,1.1v5.7H24.8 M20.8,54.1l1.6,2.3H24l1.6-2.3v-3.4h-4.7V54.1 M45.6,65.6
						H44l-0.8,1.1v5.7h3.1v-5.7L45.6,65.6 M44,56.4h1.6l1.6-2.3v-3.4h-4.7v3.4L44,56.4z"/>
					<path class="st2" d="M24,56.4h-1.6v9.2H24V56.4 M45.6,56.4H44v9.2h1.6V56.4z"/>
				</g>
			</g>
		</g>
		<g transform="matrix( 1, 0, 0, 1, 0,0) ">
			<g>
				<g id="Layer0_266_MEMBER_1_FILL">
					<path class="st3" d="M13.4,17.9h-0.8v10.9h0.8v-1.1v-1.1v-5.7v-1.1V17.9 M23.2,17.9L23.2,17.9v1.7v1.1v5.7v1.1v1.1h0.8V17.9H23.2
						 M44.8,17.9h-0.8v10.9h0.8v-1.1v-1.1v-5.7v-1.1V17.9 M54.6,17.9L54.6,17.9v1.7v1.1v5.7v1.1v1.1h0.8V17.9H54.6z"/>
					<path class="st4" d="M23.2,28.8L23.2,28.8v2.3L20,36.3h-1.7v0h-1.7l-3.1-5.2v-2.3h-0.8v2.3c0,0.3,0.1,0.5,0.2,0.8L16,37
						c0.1,0.1,0.2,0.2,0.3,0.3c0.1,0.1,0.2,0.1,0.3,0.1h1.6c0.1,0,0.1,0,0.2,0H20c0.1,0,0.2,0,0.3-0.1c0.1-0.1,0.2-0.2,0.3-0.3
						l3.1-5.2c0.1-0.2,0.2-0.5,0.2-0.8v-2.3H23.2 M23.9,17.9v-4c0-0.3-0.1-0.6-0.2-0.8l-1.5-2.3c-0.1-0.1-0.2-0.2-0.3-0.3
						c-0.1-0.1-0.2-0.1-0.3-0.1l-3.2,0c-0.1,0-0.1,0-0.2,0l-3.4,0c-0.1,0-0.2,0-0.3,0.1c-0.1,0.1-0.2,0.1-0.3,0.3l-1.5,2.3
						c-0.1,0.2-0.2,0.5-0.2,0.8v4h0.8v-1.1v-2.9l0.7-1.1l0.7-1.2l3.4,0v0l3.4,0l0.7,1.1l0.7,1.2v2.9v1.1H23.9 M54.6,28.8L54.6,28.8
						v2.3l-3.1,5.2h-1.7v0H48l-3.1-5.2v-2.3h-0.8v2.3c0,0.3,0.1,0.5,0.2,0.8l3.1,5.2c0.1,0.1,0.2,0.2,0.3,0.3c0.1,0.1,0.2,0.1,0.3,0.1
						h1.6c0.1,0,0.1,0,0.2,0h1.7c0.1,0,0.2,0,0.3-0.1c0.1-0.1,0.2-0.2,0.3-0.3l3.1-5.2c0.1-0.2,0.2-0.5,0.2-0.8v-2.3H54.6 M55.4,17.9
						v-4c0-0.3-0.1-0.6-0.2-0.8l-1.5-2.3c-0.1-0.1-0.2-0.2-0.3-0.3c-0.1-0.1-0.2-0.1-0.3-0.1l-3.2,0c-0.1,0-0.1,0-0.2,0l-3.4,0
						c-0.1,0-0.2,0-0.3,0.1c-0.1,0.1-0.2,0.1-0.3,0.3l-1.5,2.3c-0.1,0.2-0.2,0.5-0.2,0.8v4h0.8v-1.1v-2.9l0.7-1.1l0.7-1.2l3.4,0v0
						l3.4,0l0.7,1.1l0.7,1.2v2.9v1.1H55.4z"/>
					<path class="st5" d="M23.2,26.5h-2.7v1.1h2.7V26.5 M15.8,27.6v-1.1h-2.4v1.1H15.8 M15.8,20.7v-1.1h-2.4v1.1H15.8 M23.2,20.7v-1.1
						h-2.7v1.1H23.2 M54.6,26.5h-2.7v1.1h2.7V26.5 M47.2,27.6v-1.1h-2.4v1.1H47.2 M47.2,20.7v-1.1h-2.4v1.1H47.2 M54.6,20.7v-1.1h-2.7
						v1.1H54.6z"/>
					<path class="st6" d="M18.3,28.8L18.3,28.8l-4.9,0v2.3l3.1,5.2h1.7v0H20l3.1-5.2v-2.3H18.3 M18.3,16.7L18.3,16.7l4.9,0v-2.9
						l-0.7-1.2h-8.3l-0.7,1.1v2.9H18.3 M49.7,28.8L49.7,28.8l-4.9,0v2.3l3.1,5.2h1.7v0h1.7l3.1-5.2v-2.3H49.7 M49.7,16.7L49.7,16.7
						l4.9,0v-2.9l-0.7-1.2h-8.3l-0.7,1.1v2.9H49.7z"/>
					<path class="st7" d="M18.3,17.9L18.3,17.9l4.9,0v0v-1.1h-4.9v0h-4.9v1.1H18.3 M49.7,17.9L49.7,17.9l4.9,0v0v-1.1h-4.9v0h-4.9v1.1
						H49.7z"/>
					<path class="st8" d="M18.3,17.9L18.3,17.9l-4.9,0v1.7h2.4v1.1h-2.4v5.7h2.4v1.1h-2.4v1.1h4.9v0h4.9v0v-1.1h-2.7v-1.1h2.7v-5.7
						h-2.7v-1.1h2.7v-1.7H18.3 M49.7,17.9L49.7,17.9l-4.9,0v1.7h2.4v1.1h-2.4v5.7h2.4v1.1h-2.4v1.1h4.9v0h4.9v0v-1.1h-2.7v-1.1h2.7
						v-5.7h-2.7v-1.1h2.7v-1.7H49.7z"/>
					<path class="st9" d="M18.3,11.6L18.3,11.6l-3.4-0.1l-0.7,1.2h8.3l-0.7-1.1L18.3,11.6 M49.7,11.6L49.7,11.6l-3.4-0.1l-0.7,1.2h8.3
						l-0.7-1.1L49.7,11.6z"/>
				</g>
			</g>
		</g>
		<g transform="matrix( 1, 0, 0, 1, 0,0) ">
			<g>
				<g id="Layer0_266_MEMBER_2_FILL">
					<path class="st3" d="M36.8,26.4h-5.5c-0.2,0-0.3,0.1-0.5,0.2c-0.1,0.2-0.2,0.4-0.3,0.6l-4.3,21.2c-0.1,0.3-0.1,0.5,0,0.8l2.8,8.6
						c0.1,0.2,0.2,0.4,0.3,0.5c0.1,0.1,0.3,0.2,0.4,0.2h8.6c0.2,0,0.3-0.1,0.4-0.2c0.1-0.1,0.2-0.3,0.3-0.5l2.8-8.6
						c0.1-0.3,0.1-0.5,0.1-0.8l-4.3-21.2c-0.1-0.2-0.2-0.4-0.3-0.6C37.1,26.5,36.9,26.4,36.8,26.4 M31.2,27.6h5.5l2.8,13.8l1.6,7.5
						l-2.8,8.6h-1.2h-6.3h-1.2l-2.8-8.6l1.6-7.5L31.2,27.6z"/>
					<path class="st8" d="M29.7,57.4h1.2l-2.4-16.1l-1.6,7.5L29.7,57.4 M41.1,48.8l-1.6-7.5l-2.4,16.1h1.2L41.1,48.8z"/>
					<path class="st5" d="M36.8,27.6h-5.5l-2.8,13.8l2.4,16.1h6.3l2.4-16.1L36.8,27.6z"/>
				</g>
			</g>
		</g>
		<g transform="matrix( 1, 0, 0, 1, 0,0) ">
			<g>
				<g id="Layer0_266_MEMBER_3_MEMBER_0_FILL">
					<path class="st10" d="M51.3,33.3l-3.7-7.2l-3.5,9l3.3,4.7L51.3,33.3z"/>
					<path class="st11" d="M59.4,3.9L58.3,3L52,30l1.6,3.7l-8.2,12.1l0.4,0.5l11.7-13.5l-2.7-6.2L59.4,3.9z"/>
					<path class="st12" d="M58.6,1.8L58.3,3l1.1,0.9l-4.6,22.7l2.7,6.2L45.8,46.4l-0.4-0.5l-0.6,0.9l0.5,0.6c0.1,0.2,0.3,0.2,0.5,0.2
						c0.2,0,0.4-0.1,0.5-0.2L58,33.8c0.2-0.2,0.3-0.4,0.3-0.7c0-0.3,0-0.6-0.1-0.8l-2.5-5.8l4.5-22.3c0.1-0.3,0.1-0.5,0-0.7
						C60.1,3.2,60,3,59.8,2.9L58.6,1.8z"/>
					<path class="st13" d="M58.3,3l-1.1-1l-9.5,24.1l3.7,7.2l-3.9,6.5l-3.3-4.7l-2.5,6.2l3.8,4.5l8.2-12.1L52,30L58.3,3z"/>
					<path class="st14" d="M56.9,0.9c-0.2,0.1-0.4,0.2-0.5,0.5L40.9,40.8c-0.1,0.2-0.1,0.5-0.1,0.8c0,0.3,0.1,0.5,0.3,0.7l3.7,4.5
						l0.6-0.9l-3.8-4.5l2.5-6.2l3.5-9L57.2,2l1.1,1l0.3-1.1l-1-0.9C57.4,0.8,57.2,0.8,56.9,0.9z"/>
				</g>
			</g>
		</g>
		<g transform="matrix( 1, 0, 0, 1, 0,0) ">
			<g>
				<g id="Layer0_266_MEMBER_3_MEMBER_1_FILL">
					<path class="st10" d="M55.9,68.8l5.1,7.7l5-8.6l-7.5-9L55.9,68.8z"/>
					<path class="st13" d="M50.2,48.8l-2.7,0.5l-0.9,1.5L55.1,63L53,70.8l8.2,12.6l4.8,0.8l0.7-15.4L66,67.9l-5,8.6l-5.1-7.7l2.6-9.9
						L50.2,48.8z"/>
					<path class="st11" d="M46.6,50.8L45.9,52l7.5,10.9l-3.2,8.5L59,86l6.9-1l0.1-0.8l-4.8-0.8L53,70.8l2.1-7.7L46.6,50.8z"/>
					<path class="st12" d="M46.6,50.8L46,50.1l-0.7,1.2c-0.1,0.2-0.2,0.5-0.2,0.8c0,0.3,0.1,0.6,0.2,0.7l7.1,10.3l-2.9,7.8
						c-0.1,0.2-0.1,0.4-0.1,0.7c0,0.2,0.1,0.5,0.2,0.7l8.8,14.5c0.1,0.1,0.2,0.2,0.3,0.3c0.1,0.1,0.3,0.1,0.4,0.1l6.9-1
						c0.2,0,0.3-0.1,0.5-0.3c0.1-0.2,0.2-0.4,0.2-0.7l0-0.8L66,84.2L65.9,85L59,86l-8.8-14.6l3.2-8.5L45.9,52L46.6,50.8z"/>
					<path class="st14" d="M46,50.1l0.6,0.7l0.9-1.5l2.7-0.5l8.4,10l7.5,9l0.7,0.9L66,84.2l0.8,0.1l0.7-15.5c0-0.2,0-0.3-0.1-0.5
						c-0.1-0.2-0.1-0.3-0.2-0.5l-16.5-20c-0.1-0.1-0.2-0.1-0.3-0.2c-0.1,0-0.2,0-0.3,0l-2.7,0.5c-0.2,0-0.4,0.2-0.5,0.4L46,50.1z"/>
				</g>
			</g>
		</g>
		<g transform="matrix( 1, 0, 0, 1, 0,0) ">
			<g>
				<g id="Layer0_266_MEMBER_3_MEMBER_2_FILL">
					<path class="st11" d="M51.5,22.8l-0.6-0.6L40.6,31v26.8l8.2,6.9l0.3-0.5l-1.7-1.9c-0.2-0.3-0.5-0.5-0.7-0.8l-4.6-5.3V32.4
						L51.5,22.8z"/>
					<path class="st13" d="M52.7,24.1l-1.2-1.3l-9.4,9.6v23.8l4.6,5.3c0.2,0.3,0.5,0.5,0.7,0.8l1.7,1.9l3.4-5.6V44.3l-1.8-4.1l-1.2-12
						L52.7,24.1 M44.1,47.4v-3.8c0-0.5,0.2-0.7,0.5-0.7h2.6c0.3,0,0.5,0.2,0.5,0.7v3.8c0,0.5-0.2,0.7-0.5,0.7h-2.6
						C44.2,48.1,44.1,47.9,44.1,47.4 M44.6,54.8c-0.3,0-0.5-0.2-0.5-0.7v-3.8c0-0.5,0.2-0.7,0.5-0.7h2.6c0.3,0,0.5,0.2,0.5,0.7V54
						c0,0.5-0.2,0.7-0.5,0.7H44.6z"/>
					<path class="st10" d="M44.1,54c0,0.5,0.2,0.7,0.5,0.7h2.6c0.3,0,0.5-0.2,0.5-0.7v-3.8c0-0.5-0.2-0.7-0.5-0.7h-2.6
						c-0.3,0-0.5,0.2-0.5,0.7V54 M44.1,43.5v3.8c0,0.5,0.2,0.7,0.5,0.7h2.6c0.3,0,0.5-0.2,0.5-0.7v-3.8c0-0.5-0.2-0.7-0.5-0.7h-2.6
						C44.2,42.8,44.1,43,44.1,43.5z"/>
					<path class="st14" d="M52.3,22.2l-0.7,0.6l1.2,1.3l-3.3,4.1l1.2,12l1.8,4.1v14.3l-3.4,5.6l0.6,0.8l3.4-5.6
						c0.1-0.2,0.2-0.5,0.2-0.8V44.3c0-0.2,0-0.4-0.1-0.6l-1.7-3.9l-1.1-11.1l3-3.6c0.1-0.2,0.2-0.4,0.3-0.6c0.1-0.2,0-0.5,0-0.7
						c-0.1-0.2-0.1-0.4-0.3-0.5L52.3,22.2z"/>
					<path class="st12" d="M52.3,22.2l-0.9-0.9c-0.1-0.1-0.3-0.2-0.4-0.2c-0.2,0-0.3,0.1-0.4,0.2L40.2,30c-0.1,0.1-0.2,0.2-0.3,0.4
						c-0.1,0.2-0.1,0.4-0.1,0.6v26.8c0,0.2,0,0.4,0.1,0.6c0.1,0.2,0.2,0.3,0.3,0.4l8.2,6.9c0.2,0.1,0.3,0.2,0.5,0.1
						c0.2-0.1,0.3-0.2,0.5-0.4l0.3-0.5l-0.6-0.8l-0.3,0.5l-8.2-6.9V31l10.3-8.8l0.6,0.6L52.3,22.2z"/>
				</g>
			</g>
		</g>
		<g transform="matrix( 1, 0, 0, 1, 0,0) ">
			<g>
				<g id="Layer0_266_MEMBER_3_MEMBER_3_FILL">
					<path class="st10" d="M20.4,26.1l-3.7,7.2l3.9,6.5l3.3-4.7L20.4,26.1z"/>
					<path class="st13" d="M10.8,2L9.7,3L16,30l-1.6,3.7l8.2,12.1l3.8-4.5l-2.5-6.2l-3.3,4.7l-3.9-6.5l3.7-7.2L10.8,2z"/>
					<path class="st14" d="M9.7,3l1.1-1l9.5,24.1l3.5,9l2.5,6.2l-3.8,4.5l0.6,0.9l3.7-4.5c0.1-0.2,0.2-0.4,0.3-0.7
						c0-0.3,0-0.5-0.1-0.8L11.5,1.4c-0.1-0.3-0.3-0.5-0.5-0.5c-0.2-0.1-0.4-0.1-0.6,0.1l-1,0.9L9.7,3z"/>
					<path class="st12" d="M8.6,3.9L9.7,3L9.4,1.8L8.2,2.9C8,3,7.9,3.2,7.8,3.5C7.8,3.7,7.7,4,7.8,4.3l4.5,22.3l-2.5,5.8
						c-0.1,0.2-0.1,0.5-0.1,0.8c0,0.3,0.1,0.5,0.3,0.7l11.7,13.5c0.1,0.2,0.3,0.2,0.5,0.2c0.2,0,0.3-0.1,0.5-0.2l0.5-0.6l-0.6-0.9
						l-0.4,0.5L10.5,32.9l2.7-6.2L8.6,3.9z"/>
					<path class="st11" d="M9.7,3L8.6,3.9l4.6,22.7l-2.7,6.2l11.7,13.5l0.4-0.5l-8.2-12.1L16,30L9.7,3z"/>
				</g>
			</g>
		</g>
		<g transform="matrix( 1, 0, 0, 1, 0,0) ">
			<g>
				<g id="Layer0_266_MEMBER_3_MEMBER_4_FILL">
					<path class="st10" d="M7,76.4l5.1-7.7l-2.6-9.9l-7.5,9L7,76.4z"/>
					<path class="st11" d="M22.1,52l-0.7-1.2L12.9,63l2.1,7.7L6.8,83.3L2,84.2L2.1,85L9,86l8.8-14.6l-3.2-8.5L22.1,52z"/>
					<path class="st13" d="M21.4,50.8l-0.9-1.5l-2.7-0.5l-8.4,10l2.6,9.9L7,76.4l-5-8.6l-0.7,0.9L2,84.2l4.8-0.8L15,70.8L12.9,63
						L21.4,50.8z"/>
					<path class="st14" d="M21.1,48.6c-0.1-0.2-0.3-0.4-0.5-0.4L18,47.6c-0.1,0-0.2,0-0.3,0c-0.1,0.1-0.2,0.1-0.3,0.2l-16.5,20
						c-0.1,0.1-0.2,0.3-0.2,0.5c0,0.2,0,0.3-0.1,0.5l0.7,15.5L2,84.2L1.3,68.7L2,67.9l7.5-9l8.4-10l2.7,0.5l0.9,1.5l0.6-0.7L21.1,48.6
						z"/>
					<path class="st12" d="M22.7,51.3L22,50.1l-0.6,0.7l0.7,1.2l-7.5,10.9l3.2,8.5L9,86l-6.9-1L2,84.2l-0.8,0.1l0,0.8
						c0,0.3,0.1,0.5,0.2,0.7C1.6,86,1.8,86.1,2,86.2l6.9,1c0.1,0,0.2,0,0.4-0.1c0.1-0.1,0.2-0.2,0.3-0.3l8.8-14.5
						c0.1-0.2,0.2-0.4,0.2-0.7c0-0.2,0-0.4-0.1-0.7l-2.9-7.8l7.1-10.3c0.2-0.2,0.2-0.4,0.2-0.7C22.9,51.8,22.9,51.5,22.7,51.3z"/>
				</g>
			</g>
		</g>
		<g transform="matrix( 1, 0, 0, 1, 0,0) ">
			<g>
				<g id="Layer0_266_MEMBER_3_MEMBER_5_FILL">
					<path class="st13" d="M25.9,32.4l-9.4-9.6l-1.2,1.3l3.3,4.1l-1.2,12l-1.8,4.1v14.3l3.4,5.6l1.7-1.9c0.2-0.3,0.5-0.5,0.7-0.8
						l4.6-5.3V32.4 M23.9,43.5v3.8c0,0.5-0.2,0.7-0.5,0.7h-2.6c-0.3,0-0.5-0.2-0.5-0.7v-3.8c0-0.5,0.2-0.7,0.5-0.7h2.6
						C23.8,42.8,23.9,43,23.9,43.5 M20.3,50.2c0-0.5,0.2-0.7,0.5-0.7h2.6c0.3,0,0.5,0.2,0.5,0.7V54c0,0.5-0.2,0.7-0.5,0.7h-2.6
						c-0.3,0-0.5-0.2-0.5-0.7V50.2z"/>
					<path class="st10" d="M20.8,49.5c-0.3,0-0.5,0.2-0.5,0.7V54c0,0.5,0.2,0.7,0.5,0.7h2.6c0.3,0,0.5-0.2,0.5-0.7v-3.8
						c0-0.5-0.2-0.7-0.5-0.7H20.8 M23.9,47.4v-3.8c0-0.5-0.2-0.7-0.5-0.7h-2.6c-0.3,0-0.5,0.2-0.5,0.7v3.8c0,0.5,0.2,0.7,0.5,0.7h2.6
						C23.8,48.1,23.9,47.9,23.9,47.4z"/>
					<path class="st11" d="M17.1,22.2l-0.6,0.6l9.4,9.6v23.8l-4.6,5.3c-0.2,0.3-0.5,0.5-0.7,0.8l-1.7,1.9l0.3,0.5l8.2-6.9V31
						L17.1,22.2z"/>
					<path class="st14" d="M16.5,22.8l-0.7-0.6l-0.9,1c-0.1,0.1-0.2,0.3-0.3,0.5c-0.1,0.2-0.1,0.4,0,0.7c0,0.2,0.1,0.4,0.3,0.6l3,3.6
						l-1.1,11.1l-1.7,3.9c-0.1,0.2-0.1,0.4-0.1,0.6v14.3c0,0.3,0.1,0.5,0.2,0.8l3.4,5.6l0.6-0.8l-3.4-5.6V44.3l1.8-4.1l1.2-12
						l-3.3-4.1L16.5,22.8z"/>
					<path class="st12" d="M16.7,21.3l-0.9,0.9l0.7,0.6l0.6-0.6L27.4,31v26.8l-8.2,6.9l-0.3-0.5L18.4,65l0.3,0.5
						c0.1,0.2,0.3,0.3,0.5,0.4c0.2,0,0.3,0,0.5-0.1l8.2-6.9c0.1-0.1,0.2-0.3,0.3-0.4c0.1-0.2,0.1-0.4,0.1-0.6V31c0-0.2,0-0.4-0.1-0.6
						c-0.1-0.2-0.2-0.3-0.3-0.4l-10.3-8.8c-0.1-0.1-0.3-0.2-0.4-0.2C16.9,21.1,16.8,21.2,16.7,21.3z"/>
				</g>
			</g>
		</g>
		<g transform="matrix( 1, 0, 0, 1, 0,0) ">
			<g>
				<g id="Layer0_266_MEMBER_4_FILL">
					<path class="st15" d="M34,56.3V38c-1.9,3.1-3,8.4-3.2,15.9L34,56.3z"/>
					<path class="st16" d="M37.2,54C37,46.4,35.9,41.1,34,38v18.3L37.2,54z"/>
				</g>
			</g>
		</g>
	</svg>


	<svg id="sprite-enemy-missilebox" viewBox="0 0 48 48" size="keep">
		<style type="text/css">
			.st0{fill:#484848;}
			.st1{fill:#5B5B5B;}
			.st2{fill:#626262;}
			.st3{fill:#6D6D6D;}
			.st4{fill:#B5CDD2;}
			.st5{fill:#78888C;}
			.st6{fill:#A1B6BB;}
			.st7{fill:#ADC4C9;}
			.st8{fill:#95A8AD;}
			.st9{fill:#AC3939;}
			.st10{fill:#BD3E3E;}
			.st11{fill:#E9E9E9;}
			.st12{fill:#802B2B;}
			.st13{fill:#BBBBBB;}
			.st14{fill:#EEEEEE;}
			.st15{fill:#D9D9D9;}
		</style>
		<g transform="matrix( 1, 0, 0, 1, 0,0) ">
			<g>
				<g id="Layer0_265_MEMBER_0_FILL">
					<path class="st0" d="M32.4,22.7c-0.1,0.1-0.2,0.1-0.2,0.2C32.1,23,32,23.1,32,23.2v5.6c0,0.2,0.1,0.3,0.3,0.5l0.7,0.5v1.4
						c0,0.2,0.1,0.3,0.3,0.5c0.2,0.1,0.4,0.2,0.7,0.2h5.7c0.3,0,0.5-0.1,0.8-0.2c0.2-0.1,0.3-0.3,0.3-0.5v-1.4l0.8-0.5
						c0.2-0.1,0.3-0.3,0.3-0.5v-5.6c0-0.2-0.1-0.3-0.3-0.5l-1.4-0.9c-0.2-0.1-0.5-0.2-0.8-0.2h-4.8c-0.3,0-0.5,0.1-0.7,0.2L32.4,22.7
						 M33.1,23.2l1.6-0.9h4.8l1.4,0.9v1.6v2.9v1l-1,0.7v1.6h-5.7v-1.6l-1-0.7v-1v-2.9V23.2 M8.7,21.7c-0.3,0-0.5,0.1-0.7,0.2l-1.6,0.9
						c-0.1,0.1-0.2,0.1-0.2,0.2c-0.1,0.1-0.1,0.2-0.1,0.3v5.6c0,0.2,0.1,0.3,0.3,0.5l0.7,0.5v1.4c0,0.2,0.1,0.3,0.3,0.5
						c0.2,0.1,0.4,0.2,0.7,0.2h5.7c0.3,0,0.5-0.1,0.8-0.2c0.2-0.1,0.3-0.3,0.3-0.5v-1.4l0.8-0.5c0.2-0.1,0.3-0.3,0.3-0.5v-5.6
						c0-0.2-0.1-0.3-0.3-0.5l-1.4-0.9c-0.2-0.1-0.5-0.2-0.8-0.2H8.7 M7.1,24.8v-1.6l1.6-0.9h4.8l1.4,0.9v1.6v2.9v1l-1,0.7v1.6H8.2
						v-1.6l-1-0.7v-1V24.8z"/>
					<path class="st1" d="M40.9,28.8v-1h-7.8v1l1,0.7v1.6h5.7v-1.6L40.9,28.8 M34.7,22.3l-1.6,0.9v1.6h7.8v-1.6l-1.4-0.9H34.7
						 M8.2,29.4v1.6h5.7v-1.6l1-0.7v-1H7.1v1L8.2,29.4 M7.1,23.2v1.6h7.8v-1.6l-1.4-0.9H8.7L7.1,23.2z"/>
					<path class="st2" d="M40.9,24.8h-7.8v2.9h7.8V24.8 M7.1,24.8v2.9h7.8v-2.9H7.1z"/>
				</g>
			</g>
		</g>
		<g transform="matrix( 1, 0, 0, 1, 0,0) ">
			<g>
				<g id="Layer0_265_MEMBER_1_FILL">
					<path class="st1" d="M29.6,12.1h-5.1V16h5.1V12.1 M18.4,12.1V16h5.1v-3.9H18.4z"/>
					<path class="st3" d="M24.5,12.1h-1V16h1V12.1z"/>
					<path class="st0" d="M30.6,12.4l0.4-0.3h-1.5V16h1.5l-0.4-0.3V12.4 M17.4,12.4v3.4L16.9,16h1.5v-3.9h-1.5L17.4,12.4z"/>
					<path class="st4" d="M18.4,16l-1.6,1h14.3l-1.6-1h-5.1h-1H18.4 M20,0.7l-1,0.7h10.2l-1-0.7H20z"/>
					<path class="st5" d="M16.3,17.4l0.5-0.3l1.6-1h-1.5l-1.3,0.9c-0.1,0-0.1,0.1-0.2,0.1c-0.1,0.1-0.1,0.2-0.1,0.3v2.3
						c0,0.1,0,0.2,0.1,0.3c0.1,0.1,0.2,0.1,0.3,0.2l2.3,1.3c0.2,0.1,0.4,0.2,0.7,0.2h10.7c0.3,0,0.5-0.1,0.7-0.2l2.3-1.3
						c0.1-0.1,0.2-0.1,0.3-0.2c0.1-0.1,0.1-0.2,0.1-0.3v-2.3c0-0.1,0-0.2-0.1-0.3c-0.1-0.1-0.1-0.1-0.2-0.1L31.1,16h-1.5l1.6,1
						l0.5,0.3v2.3L29.4,21H18.6l-2.3-1.3V17.4 M28.8,0.2C28.6,0.1,28.3,0,28,0H20c-0.3,0-0.5,0.1-0.8,0.2l-3.1,2
						c-0.2,0.1-0.3,0.3-0.3,0.5v8.5c0,0.2,0.1,0.3,0.3,0.5l0.8,0.5h1.5l-1.6-1V7.5V3.9V2.6l2.1-1.3l1-0.7H28l1,0.7l2.1,1.3v1.3v3.6
						v3.6l-1.6,1h1.5l0.8-0.5c0.2-0.1,0.3-0.3,0.3-0.5V2.6c0-0.2-0.1-0.3-0.3-0.5L28.8,0.2z"/>
					<path class="st6" d="M16.8,17l-0.5,0.3v2.3l2.3,1.3h10.7l2.3-1.3v-2.3L31.2,17H16.8 M29.1,1.3H18.9l-2.1,1.3v1.3h14.3V2.6
						L29.1,1.3z"/>
					<path class="st7" d="M27.6,7.5v1.6h2.1V7.5h1.5V3.9H16.8v3.6h1.5v1.6h2.1V7.5H27.6z"/>
					<path class="st8" d="M27.6,9.2V7.5h-7.3v1.6h-2.1V7.5h-1.5v3.6l1.6,1h5.1h1h5.1l1.6-1V7.5h-1.5v1.6H27.6z"/>
				</g>
			</g>
		</g>
		<g transform="matrix( 1, 0, 0, 1, 0,0) ">
			<g>
				<g id="Layer0_265_MEMBER_2_FILL">
					<path class="st0" d="M10.8,20.9c-0.1,0.2-0.2,0.3-0.1,0.5l2.3,6.3c1.9,5.3,5.4,9.4,10.3,12.4c0.2,0.1,0.4,0.2,0.7,0.2
						c0.3,0,0.5-0.1,0.7-0.2c4.9-3,8.4-7.1,10.3-12.4l2.3-6.3c0.1-0.2,0-0.3-0.1-0.5c-0.1-0.1-0.3-0.2-0.6-0.3l-12.3-2.2
						c-0.2,0-0.4,0-0.6,0l-12.3,2.2C11.2,20.7,11,20.8,10.8,20.9 M13,24.9l-1-2.7l-0.4-1L24,19.1l12.3,2.2l-0.4,1l-1,2.7l-1,2.6
						c-1.9,5.1-5.2,9.1-10,12.1c-4.8-2.9-8.1-7-10-12.1L13,24.9z"/>
					<path class="st1" d="M13,24.9l1,2.6c1.9,5.1,5.2,9.1,10,12.1c4.8-2.9,8.1-7,10-12.1l1-2.6c-3.1,6.4-6.8,10.6-11,12.7
						C19.8,35.5,16.2,31.3,13,24.9 M12.1,22.3L24,21.6l11.9,0.7l0.4-1L24,19.1l-12.3,2.2L12.1,22.3z"/>
					<path class="st3" d="M24,21.6l-11.9,0.7l1,2.7c3.1,6.4,6.8,10.6,11,12.7c4.2-2.1,7.8-6.3,11-12.7l1-2.7L24,21.6z"/>
				</g>
			</g>
		</g>
		<g transform="matrix( 1, 0, 0, 1, 0,0) ">
			<g>
				<g id="Layer0_265_MEMBER_3_FILL">
					<path class="st9" d="M37,38.3l1.3,5.6l8.7-7.3l-3.2-14.4L37,38.3 M40.5,33.8c0.1-0.2,0.3-0.4,0.7-0.5c0.3-0.1,0.7-0.1,1.1-0.1
						c0.4,0.1,0.7,0.2,0.9,0.4c0.2,0.2,0.3,0.4,0.2,0.7c-0.1,0.2-0.3,0.4-0.7,0.6C42.2,35,41.9,35,41.5,35c-0.4-0.1-0.7-0.2-0.8-0.4
						C40.4,34.3,40.4,34.1,40.5,33.8 M39.4,37.9c-0.3-0.3-0.4-0.7-0.2-1c0.2-0.4,0.5-0.6,1-0.9c0.5-0.2,1.1-0.2,1.7-0.1
						c0.6,0.1,1,0.3,1.3,0.6c0.3,0.3,0.4,0.7,0.2,1.1c-0.2,0.4-0.5,0.6-1,0.8c-0.5,0.2-1.1,0.3-1.7,0.2S39.7,38.3,39.4,37.9 M1,36.6
						l8.7,7.3l1.3-5.6L4.2,22.2L1,36.6 M4.9,33.6c0.2-0.2,0.5-0.3,0.9-0.4c0.4-0.1,0.7,0,1.1,0.1c0.4,0.1,0.6,0.3,0.7,0.5
						c0.1,0.2,0.1,0.5-0.2,0.7c-0.2,0.2-0.4,0.4-0.8,0.4c-0.4,0.1-0.8,0-1.1-0.1c-0.4-0.1-0.6-0.3-0.7-0.6C4.6,34.1,4.7,33.9,4.9,33.6
						 M8.8,36.9c0.2,0.4,0.1,0.7-0.2,1c-0.3,0.3-0.7,0.6-1.3,0.7s-1.1,0-1.7-0.2c-0.5-0.2-0.9-0.4-1-0.8c-0.2-0.4-0.1-0.7,0.2-1.1
						c0.3-0.3,0.7-0.5,1.3-0.6c0.6-0.1,1.1-0.1,1.7,0.1C8.3,36.3,8.6,36.6,8.8,36.9z"/>
					<path class="st10" d="M39.2,36.9c-0.2,0.4-0.1,0.7,0.2,1c0.3,0.3,0.7,0.6,1.3,0.7s1.1,0,1.7-0.2c0.5-0.2,0.9-0.4,1-0.8
						c0.2-0.4,0.1-0.7-0.2-1.1c-0.3-0.3-0.7-0.5-1.3-0.6c-0.6-0.1-1.1-0.1-1.7,0.1C39.7,36.3,39.4,36.6,39.2,36.9 M41.2,33.3
						c-0.4,0.1-0.6,0.3-0.7,0.5c-0.1,0.2-0.1,0.5,0.2,0.7c0.2,0.2,0.4,0.4,0.8,0.4c0.4,0.1,0.8,0,1.1-0.1c0.4-0.1,0.6-0.3,0.7-0.6
						c0.1-0.2,0-0.5-0.2-0.7c-0.2-0.2-0.5-0.3-0.9-0.4C41.9,33.2,41.5,33.2,41.2,33.3 M8.6,37.9c0.3-0.3,0.4-0.7,0.2-1
						c-0.2-0.4-0.5-0.6-1-0.9c-0.5-0.2-1.1-0.2-1.7-0.1c-0.6,0.1-1,0.3-1.3,0.6c-0.3,0.3-0.4,0.7-0.2,1.1c0.2,0.4,0.5,0.6,1,0.8
						c0.5,0.2,1.1,0.3,1.7,0.2S8.3,38.3,8.6,37.9 M5.8,33.2c-0.4,0.1-0.7,0.2-0.9,0.4c-0.2,0.2-0.3,0.4-0.2,0.7
						c0.1,0.2,0.3,0.4,0.7,0.6C5.8,35,6.1,35,6.5,35c0.4-0.1,0.7-0.2,0.8-0.4c0.2-0.2,0.3-0.4,0.2-0.7c-0.1-0.2-0.3-0.4-0.7-0.5
						C6.5,33.2,6.1,33.2,5.8,33.2z"/>
					<path class="st11" d="M43.8,22.2l-2.1-0.3l-9.5,22.5l1.9,3l4.3-3.5L37,38.3L43.8,22.2 M6.3,21.9l-2.1,0.3L11,38.3l-1.3,5.6
						l4.3,3.5l1.9-3L6.3,21.9z"/>
					<path class="st12" d="M44.5,21.7c-0.1-0.1-0.3-0.1-0.4-0.1l-0.3,0.6L47,36.6l-8.7,7.3l0.3,0.9l9.2-7.7c0.2-0.1,0.2-0.3,0.2-0.5
						l-3.2-14.4c0-0.1-0.1-0.3-0.2-0.3C44.5,21.7,44.5,21.7,44.5,21.7 M4,21.6c-0.1,0-0.3,0.1-0.4,0.1c0,0-0.1,0.1-0.1,0.1
						c-0.1,0.1-0.2,0.2-0.2,0.3L0,36.5c0,0.2,0,0.3,0.2,0.5l9.2,7.7l0.3-0.9L1,36.6l3.2-14.4L4,21.6z"/>
					<path class="st13" d="M31.2,44.2c-0.1,0.1,0,0.3,0,0.4l1.9,3c0.1,0.1,0.3,0.3,0.5,0.3C33.8,48,34,48,34.3,48
						c0.2,0,0.4-0.1,0.6-0.2l3.7-3.1l-0.3-0.9l-4.3,3.5l-1.9-3l9.5-22.5l2.1,0.3l0.3-0.6L42,21.2c-0.1,0-0.3,0-0.4,0
						c-0.1,0-0.3,0.1-0.4,0.1c-0.2,0.1-0.4,0.2-0.5,0.4L31.2,44.2 M7.3,21.7c-0.1-0.2-0.2-0.3-0.5-0.4c-0.1,0-0.3-0.1-0.4-0.1
						c-0.1,0-0.3,0-0.4,0L4,21.6l0.3,0.6l2.1-0.3l9.5,22.5l-1.9,3l-4.3-3.5l-0.3,0.9l3.7,3.1c0.2,0.1,0.4,0.2,0.6,0.2
						c0.3,0,0.5,0,0.7-0.1c0.2-0.1,0.4-0.2,0.5-0.3l1.9-3c0.1-0.1,0.1-0.3,0-0.4L7.3,21.7z"/>
				</g>
			</g>
		</g>
		<g transform="matrix( 1, 0, 0, 1, 0,0) ">
			<g>
				<g id="Layer0_265_MEMBER_4_FILL">
					<path class="st14" d="M19.9,31.9c0,0.7,0.4,1.3,1.2,1.8c0.8,0.5,1.8,0.8,3,0.8v-5.2c-1.2,0-2.1,0.3-3,0.8
						C20.2,30.5,19.9,31.1,19.9,31.9z"/>
					<path class="st15" d="M24.1,29.3c0,0-0.1,0-0.1,0v5.2c0,0,0.1,0,0.1,0c1.1,0,2-0.3,2.8-0.8c0.8-0.5,1.2-1.1,1.2-1.8
						c0-0.7-0.4-1.4-1.2-1.9C26.1,29.5,25.2,29.3,24.1,29.3z"/>
				</g>
			</g>
		</g>
	</svg>


	<svg id="sprite-enemy-plasmabox" viewBox="0 0 48 48" size="keep">
		<style type="text/css">
			.st0{fill:#484848;}
			.st1{fill:#5B5B5B;}
			.st2{fill:#626262;}
			.st3{fill:#7B7B7B;}
			.st4{fill:#AAAAAA;}
			.st5{fill:#CBCBCB;}
			.st6{fill:#ADC4C9;}
			.st7{fill:#6D6D6D;}
			.st8{fill:#A1B6BB;}
			.st9{fill:#95A8AD;}
			.st10{fill:#B5CDD2;}
			.st11{fill:#78888C;}
			.st12{fill:#BD3E3E;}
			.st13{fill:#E9E9E9;}
			.st14{fill:#BBBBBB;}
			.st15{fill:#802B2B;}
			.st16{fill:#AC3939;}
			.st17{fill:#D9D9D9;}
			.st18{fill:#EEEEEE;}
		</style>
		<g transform="matrix( 1, 0, 0, 1, 0,0) ">
			<g>
				<g id="Layer0_263_MEMBER_0_FILL">
					<path class="st0" d="M36,0c-0.2,0-0.4,0.1-0.5,0.2l-1.1,1.2c-0.1,0.1-0.1,0.2-0.2,0.3c-0.1,0.1-0.1,0.2-0.1,0.4v7.6
						c0,0.3,0.1,0.5,0.2,0.6l0.5,0.6v1.8c0,0.3,0.1,0.5,0.2,0.6c0.1,0.2,0.3,0.2,0.5,0.2h4.1c0.2,0,0.4-0.1,0.5-0.2
						c0.1-0.2,0.2-0.4,0.2-0.6V11l0.5-0.6c0.1-0.2,0.2-0.4,0.2-0.6V2.1c0-0.3-0.1-0.5-0.2-0.6l-1-1.2C39.9,0.1,39.7,0,39.5,0H36
						 M34.9,2.1L36,0.9h3.5l1,1.2v2.2v4v1.3l-0.8,0.9v2.2h-4.1v-2.2l-0.8-0.9V8.3v-4V2.1 M12.6,0.3C12.4,0.1,12.2,0,12,0H8.6
						C8.4,0,8.2,0.1,8.1,0.2L6.9,1.5C6.8,1.5,6.8,1.6,6.7,1.8C6.7,1.9,6.7,2,6.7,2.1v7.6c0,0.3,0.1,0.5,0.2,0.6L7.4,11v1.8
						c0,0.3,0.1,0.5,0.2,0.6c0.1,0.2,0.3,0.2,0.5,0.2h4.1c0.2,0,0.4-0.1,0.5-0.2c0.1-0.2,0.2-0.4,0.2-0.6V11l0.5-0.6
						c0.1-0.2,0.2-0.4,0.2-0.6V2.1c0-0.3-0.1-0.5-0.2-0.6L12.6,0.3 M12,0.9l1,1.2v2.2v4v1.3l-0.8,0.9v2.2H8.2v-2.2L7.4,9.7V8.3v-4V2.1
						l1.1-1.2H12z"/>
					<path class="st1" d="M40.5,9.7V8.3h-5.6v1.3l0.8,0.9v2.2h4.1v-2.2L40.5,9.7 M36,0.9l-1.1,1.2v2.2h5.6V2.1l-1-1.2H36 M7.4,8.3v1.3
						l0.8,0.9v2.2h4.1v-2.2l0.8-0.9V8.3H7.4 M13.1,2.1l-1-1.2H8.6L7.4,2.1v2.2h5.6V2.1z"/>
					<path class="st2" d="M40.5,4.3h-5.6v4h5.6V4.3 M13.1,4.3H7.4v4h5.6V4.3z"/>
				</g>
			</g>
		</g>
		<g transform="matrix( 1, 0, 0, 1, 0,0) ">
			<g>
				<g id="Layer0_263_MEMBER_1_FILL">
					<path class="st3" d="M31.5,34.6v2.7c0,0.3,0.1,0.5,0.2,0.6l0.5,0.6v5c-0.2,0-0.4,0.1-0.5,0.3c-0.2,0.2-0.2,0.4-0.2,0.6v2.7
						c0,0.3,0.1,0.5,0.2,0.6c0.1,0.2,0.3,0.2,0.5,0.2H36c0.2,0,0.4-0.1,0.5-0.2c0.1-0.2,0.2-0.4,0.2-0.6v-2.7c0-0.3-0.1-0.5-0.2-0.6
						c-0.2-0.2-0.3-0.3-0.5-0.3v-5l0.5-0.6c0.1-0.2,0.2-0.4,0.2-0.6v-2.7c0-0.3-0.1-0.5-0.2-0.6c-0.2-0.2-0.3-0.3-0.5-0.3h-3.8
						c-0.2,0-0.4,0.1-0.5,0.3C31.6,34.2,31.5,34.4,31.5,34.6 M32.3,37.3v-2.7H36v2.7l-0.8,0.9V40v4.5H36v2.7h-3.8v-2.7H33V40v-1.8
						L32.3,37.3 M11,34c-0.2,0.2-0.2,0.4-0.2,0.6v2.7c0,0.3,0.1,0.5,0.2,0.6l0.5,0.6v5c-0.2,0-0.4,0.1-0.5,0.3
						c-0.2,0.2-0.2,0.4-0.2,0.6v2.7c0,0.3,0.1,0.5,0.2,0.6c0.1,0.2,0.3,0.2,0.5,0.2h3.8c0.2,0,0.4-0.1,0.5-0.2
						c0.1-0.2,0.2-0.4,0.2-0.6v-2.7c0-0.3-0.1-0.5-0.2-0.6c-0.2-0.2-0.3-0.3-0.5-0.3v-5l0.5-0.6c0.1-0.2,0.2-0.4,0.2-0.6v-2.7
						c0-0.3-0.1-0.5-0.2-0.6c-0.2-0.2-0.3-0.3-0.5-0.3h-3.8C11.3,33.8,11.2,33.8,11,34 M11.6,37.3v-2.7h3.8v2.7l-0.8,0.9V40v4.5h0.8
						v2.7h-3.8v-2.7h0.8V40v-1.8L11.6,37.3z"/>
					<path class="st4" d="M35.3,44.4V40H33v4.5H35.3 M14.6,40h-2.3v4.5h2.3V40z"/>
					<path class="st5" d="M36,44.4h-0.8H33h-0.8v2.7H36V44.4 M32.3,34.6v2.7l0.8,0.9V40h2.3v-1.8l0.8-0.9v-2.7H32.3 M11.6,44.4v2.7
						h3.8v-2.7h-0.8h-2.3H11.6 M11.6,34.6v2.7l0.8,0.9V40h2.3v-1.8l0.8-0.9v-2.7H11.6z"/>
				</g>
			</g>
		</g>
		<g transform="matrix( 1, 0, 0, 1, 0,0) ">
			<g>
				<g id="Layer0_263_MEMBER_2_MEMBER_0_FILL">
					<path class="st6" d="M32.3,26.2l1.5,1.8h6.8l1.5-1.8H32.3 M30.4,18.6h1.9H42h1.9v-4.5H30.4V18.6z"/>
					<path class="st1" d="M33.8,27.9v8.9l1.1,1.3H39l1.5-1.3v-8.9H33.8 M34.9,29.3h0.8v1.8h-0.8V29.3 M34.9,31.9h0.8v4.5h-0.8V31.9z"
						/>
					<path class="st7" d="M35.6,31.9h-0.8v4.5h0.8V31.9 M35.6,29.3h-0.8v1.8h0.8V29.3z"/>
					<path class="st0" d="M33.8,27.9L33,28.3v8.5c0,0.3,0.1,0.5,0.2,0.6l1.1,1.3c0.1,0.2,0.3,0.2,0.5,0.2H39c0.2,0,0.3-0.1,0.5-0.2
						l1.5-1.3c0.1-0.1,0.2-0.2,0.2-0.3c0.1-0.1,0.1-0.3,0.1-0.4v-8.5l-0.8-0.4v8.9L39,38.2h-4.1l-1.1-1.3V27.9z"/>
					<path class="st8" d="M32.3,20.8v5.3H42v-5.3H32.3z"/>
					<path class="st9" d="M32.3,18.6v2.2H42v-2.2H32.3z"/>
					<path class="st10" d="M43.9,12.8L42,10.6l-10.1,0.2l-1.6,2.1v1.3h13.5V12.8z"/>
					<path class="st11" d="M42,10.6l1.9,2.2v1.3v4.5H42v2.2v5.3l-1.5,1.8l0.8,0.4l1.3-1.5c0.1-0.2,0.2-0.4,0.2-0.6v-6.7h1.1
						c0.2,0,0.4-0.1,0.5-0.2c0.1-0.2,0.2-0.4,0.2-0.6v-5.8c0-0.3-0.1-0.5-0.2-0.6L42.6,10c-0.2-0.2-0.3-0.3-0.5-0.3L31.9,9.8
						c-0.1,0-0.2,0-0.3,0.1c-0.1,0-0.2,0.1-0.3,0.2l-1.6,2.1c-0.1,0.2-0.2,0.4-0.2,0.6v5.8c0,0.3,0.1,0.5,0.2,0.6
						c0.1,0.2,0.3,0.2,0.5,0.2h1.1v6.7c0,0.3,0.1,0.5,0.2,0.6l1.3,1.5l0.8-0.4l-1.5-1.8v-5.3v-2.2h-1.9v-4.5v-1.3l1.6-2.1L42,10.6z"/>
				</g>
			</g>
		</g>
		<g transform="matrix( 1, 0, 0, 1, 0,0) ">
			<g>
				<g id="Layer0_263_MEMBER_2_MEMBER_1_FILL">
					<path class="st6" d="M14.2,27.9l1.5-1.8H5.9l1.5,1.8H14.2 M17.6,14.1H4v4.5h1.9h9.8h1.9V14.1z"/>
					<path class="st1" d="M7.4,27.9v8.9l1.1,1.3h4.1l1.5-1.3v-8.9H7.4 M8.6,31.9h0.8v4.5H8.6V31.9 M8.6,31.1v-1.8h0.8v1.8H8.6z"/>
					<path class="st7" d="M8.6,29.3v1.8h0.8v-1.8H8.6 M9.3,31.9H8.6v4.5h0.8V31.9z"/>
					<path class="st0" d="M7.4,27.9l-0.8,0.4v8.5c0,0.3,0.1,0.5,0.2,0.6L8,38.8c0.1,0.2,0.3,0.2,0.5,0.2h4.1c0.2,0,0.3-0.1,0.5-0.2
						l1.5-1.3c0.1-0.1,0.2-0.2,0.2-0.3c0.1-0.1,0.1-0.3,0.1-0.4v-8.5l-0.8-0.4v8.9l-1.5,1.3H8.6l-1.1-1.3V27.9z"/>
					<path class="st8" d="M15.7,26.2v-5.3H5.9v5.3H15.7z"/>
					<path class="st9" d="M15.7,20.8v-2.2H5.9v2.2H15.7z"/>
					<path class="st10" d="M4,12.8v1.3h13.5v-1.3l-1.9-2.2L5.6,10.7L4,12.8z"/>
					<path class="st11" d="M5.3,9.9C5.2,10,5.1,10,5,10.2l-1.6,2.1c-0.1,0.2-0.2,0.4-0.2,0.6v5.8c0,0.3,0.1,0.5,0.2,0.6
						c0.1,0.2,0.3,0.2,0.5,0.2h1.1v6.7c0,0.3,0.1,0.5,0.2,0.6l1.3,1.5l0.8-0.4l-1.5-1.8v-5.3v-2.2H4v-4.5v-1.3l1.6-2.1l10.1-0.2
						l1.9,2.2v1.3v4.5h-1.9v2.2v5.3l-1.5,1.8l0.8,0.4l1.3-1.5c0.1-0.2,0.2-0.4,0.2-0.6v-6.7h1.1c0.2,0,0.4-0.1,0.5-0.2
						c0.1-0.2,0.2-0.4,0.2-0.6v-5.8c0-0.3-0.1-0.5-0.2-0.6L16.2,10c-0.2-0.2-0.3-0.3-0.5-0.3L5.6,9.8C5.5,9.8,5.4,9.9,5.3,9.9z"/>
				</g>
			</g>
		</g>
		<g transform="matrix( 1, 0, 0, 1, 0,0) ">
			<g>
				<g id="Layer0_263_MEMBER_3_FILL">
					<path class="st0" d="M12.7,29.3c0,0.2,0,0.3,0.1,0.5c0.1,0.1,0.2,0.3,0.3,0.4l6.7,5c0.1,0.1,0.2,0.1,0.4,0.1h7.4
						c0.2,0,0.3,0,0.4-0.1l6.7-5c0.1-0.1,0.2-0.2,0.3-0.4c0.1-0.1,0.1-0.3,0.1-0.5c-1.1-10.5-4.6-18.1-10.7-23
						c-0.1-0.1-0.3-0.2-0.4-0.2s-0.3,0.1-0.4,0.2C17.3,11.2,13.8,18.9,12.7,29.3 M16.8,31.9l-3.3-2.5c1-10.2,4.5-17.6,10.4-22.4
						c5.9,4.7,9.4,12.2,10.4,22.4l-3.3,2.5l-3.3,2.5h-7.4L16.8,31.9z"/>
					<path class="st7" d="M27.5,34.5l3.3-2.5c0.2-11.3-2.2-19.6-7-24.9c-4.9,5.3-7.2,13.6-7,24.9l3.3,2.5H27.5z"/>
					<path class="st1" d="M30.8,31.9l3.3-2.5c-1-10.2-4.5-17.6-10.4-22.4C28.7,12.4,31,20.7,30.8,31.9 M13.4,29.4l3.3,2.5
						c-0.2-11.3,2.2-19.6,7-24.9C17.9,11.8,14.5,19.3,13.4,29.4z"/>
				</g>
			</g>
		</g>
		<g transform="matrix( 1, 0, 0, 1, 0,0) ">
			<g>
				<g id="Layer0_263_MEMBER_4_MEMBER_0_FILL">
					<path class="st12" d="M37.6,32.6c-0.2,1.2-0.5,2.4-0.7,3.7l3.6-1.4l0.4-2.3H37.6 M41.2,30.9l0.5-2.7l-2.6-4.5
						c-0.3,2.1-0.7,4.5-1.2,7.2H41.2z"/>
					<path class="st13" d="M42.3,14.2l-0.7,0.4c0.7,1.5,1.3,2.9,1.8,4.3c2.7,7.6,2.3,13.9-1.1,18.9l-4.9,7l2,1.1l5.2-8.1
						c3.5-5.5,3.2-12.4-0.8-20.9C43.3,16.2,42.8,15.2,42.3,14.2z"/>
					<path class="st14" d="M41.9,13.4l-0.8,0.4l0.4,0.8l0.7-0.4c0.5,1,1,1.9,1.4,2.8c4,8.5,4.3,15.4,0.8,20.9l-5.2,8.1l-2-1.1
						l-0.5,0.7l2.1,1.2c0.2,0.1,0.3,0.1,0.5,0.1c0.2-0.1,0.3-0.2,0.4-0.3l5.2-8.1c3.7-5.7,3.4-13-0.7-21.8c-0.5-0.9-0.9-1.9-1.5-2.9
						c-0.1-0.2-0.3-0.3-0.4-0.4C42.3,13.3,42.1,13.3,41.9,13.4z"/>
					<path class="st15" d="M39.7,15.7l1.8-1l-0.4-0.8l-1.8,1c-0.1,0.1-0.2,0.2-0.3,0.4c-0.1,0.2-0.1,0.3-0.1,0.5
						c0.1,1.7-0.1,4.3-0.5,7.8c-0.3,2.1-0.7,4.5-1.2,7.2c-0.1,0.5-0.2,1.1-0.3,1.6c-0.2,1.2-0.5,2.4-0.7,3.7c-0.5,2.3-1,4.8-1.6,7.5
						c-0.1,0.2,0,0.4,0,0.6c0.1,0.2,0.2,0.3,0.4,0.4l1.9,1.1l0.5-0.7l-2.1-1.2c0.6-2.7,1.1-5.2,1.6-7.5c0.3-1.3,0.5-2.5,0.7-3.7
						c0.1-0.6,0.2-1.1,0.3-1.7c0.5-2.7,0.9-5.1,1.2-7.2C39.6,20.1,39.8,17.4,39.7,15.7z"/>
					<path class="st16" d="M41.5,14.7l-1.8,1c0.1,1.8-0.1,4.4-0.5,8l2.6,4.5l-0.5,2.7h-3.3c-0.1,0.5-0.2,1.1-0.3,1.7h3.3l-0.4,2.3
						l-3.6,1.4c-0.5,2.3-1,4.8-1.6,7.5l2.1,1.2l4.9-7c3.5-5,3.9-11.3,1.1-18.9C42.8,17.6,42.2,16.2,41.5,14.7z"/>
				</g>
			</g>
		</g>
		<g transform="matrix( 1, 0, 0, 1, 0,0) ">
			<g>
				<g id="Layer0_263_MEMBER_4_MEMBER_1_FILL">
					<path class="st12" d="M6.3,28.2l0.5,2.7h3.3c-0.5-2.7-0.9-5.1-1.2-7.2L6.3,28.2 M11.1,36.3c-0.3-1.3-0.5-2.5-0.7-3.7H7.1l0.4,2.3
						L11.1,36.3z"/>
					<path class="st16" d="M8.3,15.7l-1.8-1c-0.7,1.5-1.3,2.9-1.8,4.3C1.9,26.6,2.3,32.9,5.8,38l4.9,7l2.1-1.2
						c-0.6-2.7-1.1-5.2-1.6-7.5l-3.6-1.4l-0.4-2.3h3.3c-0.1-0.6-0.2-1.1-0.3-1.7H6.8l-0.5-2.7l2.6-4.5C8.4,20.1,8.2,17.4,8.3,15.7z"/>
					<path class="st15" d="M6.9,13.9l-0.4,0.8l1.8,1c-0.1,1.8,0.1,4.4,0.5,8c0.3,2.1,0.7,4.5,1.2,7.2c0.1,0.5,0.2,1.1,0.3,1.7
						c0.2,1.2,0.5,2.4,0.7,3.7c0.5,2.3,1,4.8,1.6,7.5L10.6,45l0.5,0.7l1.9-1.1c0.2-0.1,0.3-0.2,0.4-0.4c0.1-0.2,0.1-0.4,0-0.6
						c-0.6-2.7-1.1-5.2-1.6-7.5c-0.3-1.3-0.5-2.5-0.7-3.7c-0.1-0.6-0.2-1.1-0.3-1.6c-0.5-2.7-0.9-5.1-1.2-7.2C9.1,20,9,17.5,9.1,15.8
						c0-0.2,0-0.4-0.1-0.5c-0.1-0.2-0.2-0.3-0.3-0.4L6.9,13.9z"/>
					<path class="st13" d="M6.5,14.7l-0.7-0.4c-0.5,1-1,1.9-1.4,2.8C0.3,25.5,0,32.5,3.5,38l5.2,8.1l2-1.1l-4.9-7
						c-3.5-5-3.9-11.3-1.1-18.9C5.2,17.6,5.8,16.2,6.5,14.7z"/>
					<path class="st14" d="M6.9,13.9l-0.8-0.4c-0.2-0.1-0.4-0.1-0.5,0c-0.2,0.1-0.3,0.2-0.4,0.4c-0.5,1-1,1.9-1.5,2.9
						c-4.2,8.8-4.4,16.1-0.7,21.8l5.2,8.1c0.1,0.2,0.3,0.3,0.4,0.3c0.2,0,0.3,0,0.5-0.1l2.1-1.2L10.6,45l-2,1.1L3.5,38
						C0,32.5,0.3,25.5,4.3,17.1c0.4-0.9,0.9-1.9,1.4-2.8l0.7,0.4L6.9,13.9z"/>
				</g>
			</g>
		</g>
		<g transform="matrix( 1, 0, 0, 1, 0,0) ">
			<g>
				<g id="Layer0_263_MEMBER_5_FILL">
					<path class="st17" d="M26.8,30.6c-0.2-5.8-1.2-10-3.1-12.4v14.2L26.8,30.6z"/>
					<path class="st18" d="M20.6,30.6l3.1,1.8V18.3C21.8,20.7,20.8,24.8,20.6,30.6z"/>
				</g>
			</g>
		</g>
	</svg>


	<svg id="sprite-plasma-bullet" viewBox="0 0 64 64" size="keep">
		<style type="text/css">
			.st0{fill:url(#SVGID_1_);}
		</style>
		<radialGradient id="SVGID_1_" cx="32" cy="31.8898" r="8.9754" gradientTransform="matrix(1 0 0 -1 0 63.8898)" gradientUnits="userSpaceOnUse">
			<stop  offset="0" style="stop-color:#fff"/>
			<stop  offset="0.6853" style="stop-color:#f50;stop-opacity:0.75"/>
			<stop  offset="0.7622" style="stop-color:#f50;stop-opacity:0.5778"/>
			<stop  offset="0.8483" style="stop-color:#f50;stop-opacity:0.341"/>
			<stop  offset="0.9386" style="stop-color:#f50;stop-opacity:9.747440e-02"/>
			<stop  offset="1" style="stop-color:#f50;stop-opacity:0"/>
		</radialGradient>
		<circle class="st0" cx="32" cy="32" r="9"/>
	</svg>


	<svg id="sprite-enemy-explosion" viewBox="0 0 96 96" size="keep">
		<style type="text/css">
			.st0{fill:url(#SVGID_1_);}
			.st1{fill:url(#SVGID_2_);}
			.st2{fill:url(#SVGID_3_);}
			.st3{fill:url(#SVGID_4_);}
			.st4{fill:url(#SVGID_5_);}
		</style>
		<radialGradient id="SVGID_1_" cx="35.7707" cy="34.4496" r="22.5258" gradientTransform="matrix(1.144 0 0 1.1188 -8.3945 -6.7698)" gradientUnits="userSpaceOnUse">
			<stop  offset="0" style="stop-color:#AE3C19;stop-opacity:0.35"/>
			<stop  offset="0.3192" style="stop-color:#A93C18;stop-opacity:0.2"/>
			<stop  offset="0.6728" style="stop-color:#9C3A16;stop-opacity:8.180359e-02"/>
			<stop  offset="1" style="stop-color:#893813;stop-opacity:0"/>
		</radialGradient>
		<ellipse class="st0" cx="32.5" cy="31.8" rx="25.8" ry="25.2"/>
		<radialGradient id="SVGID_2_" cx="55.6841" cy="37.7919" r="26.3169" gradientTransform="matrix(1.1467 0 0 0.8856 -4.6173 7.5813)" gradientUnits="userSpaceOnUse">
			<stop  offset="0" style="stop-color:#AE3C19;stop-opacity:0.3"/>
			<stop  offset="0.3192" style="stop-color:#A93C18;stop-opacity:0.24"/>
			<stop  offset="0.6728" style="stop-color:#9C3A16;stop-opacity:9.816431e-02"/>
			<stop  offset="1" style="stop-color:#893813;stop-opacity:0"/>
		</radialGradient>
		<ellipse class="st1" cx="59.2" cy="41" rx="30.2" ry="23.3"/>
		<radialGradient id="SVGID_3_" cx="47.678" cy="64.4264" r="23.3766" gradientTransform="matrix(0.8449 0 0 1 3.7681 0)" gradientUnits="userSpaceOnUse">
			<stop  offset="0" style="stop-color:#AE3C19;stop-opacity:0.26"/>
			<stop  offset="0.3192" style="stop-color:#A93C18;stop-opacity:0.2"/>
			<stop  offset="0.6728" style="stop-color:#9C3A16;stop-opacity:8.507574e-02"/>
			<stop  offset="1" style="stop-color:#893813;stop-opacity:0"/>
		</radialGradient>
		<ellipse class="st2" cx="44.1" cy="64.4" rx="19.8" ry="23.4"/>
		<radialGradient id="SVGID_4_" cx="48" cy="48" r="5.9742" gradientUnits="userSpaceOnUse">
			<stop  offset="0" style="stop-color:#fff"/>
			<stop  offset="0.1328" style="stop-color:#E3A586;stop-opacity:0.8744"/>
			<stop  offset="0.2609" style="stop-color:#CC7857;stop-opacity:0.7533"/>
			<stop  offset="0.3738" style="stop-color:#BC5735;stop-opacity:0.6466"/>
			<stop  offset="0.4669" style="stop-color:#B24320;stop-opacity:0.5586"/>
			<stop  offset="0.5288" style="stop-color:#AE3C19;stop-opacity:0.5"/>
			<stop  offset="1" style="stop-color:#893813;stop-opacity:0"/>
		</radialGradient>
		<circle class="st3" cx="48" cy="48" r="6"/>
		<radialGradient id="SVGID_5_" cx="71.0546" cy="48.1119" r="16.3145" gradientTransform="matrix(1 0 0 0.6977 0 24.4055)" gradientUnits="userSpaceOnUse">
			<stop  offset="0" style="stop-color:#AE3C19;stop-opacity:0.2"/>
			<stop  offset="0.3151" style="stop-color:#A93B18;stop-opacity:0.2"/>
			<stop  offset="0.6946" style="stop-color:#9A3A16;stop-opacity:6.108277e-02"/>
			<stop  offset="1" style="stop-color:#893813;stop-opacity:0"/>
		</radialGradient>
		<ellipse class="st4" cx="71.1" cy="58" rx="16.3" ry="11.4"/>
	</svg>


	<svg id="sprite-blue-explosion" viewBox="0 0 96 96" size="keep">
		<style type="text/css">
			.st0{fill:url(#SVGID_1_);}
			.st1{fill:url(#SVGID_2_);}
			.st2{fill:url(#SVGID_3_);}
			.st3{fill:url(#SVGID_4_);}
			.st4{fill:url(#SVGID_5_);}
		</style>
		<radialGradient id="SVGID_1_" cx="35.7707" cy="34.4496" r="22.5258" gradientTransform="matrix(1.144 0 0 1.1188 -8.3945 -6.7698)" gradientUnits="userSpaceOnUse">
			<stop  offset="0" style="stop-color:#0200CA;stop-opacity:0.3"/>
			<stop  offset="0.1921" style="stop-color:#0205CD;stop-opacity:0.2424"/>
			<stop  offset="0.4054" style="stop-color:#0212D4;stop-opacity:0.1784"/>
			<stop  offset="0.6288" style="stop-color:#0128E1;stop-opacity:0.1113"/>
			<stop  offset="0.8578" style="stop-color:#0047F2;stop-opacity:4.266742e-02"/>
			<stop  offset="1" style="stop-color:#005EFF;stop-opacity:0"/>
		</radialGradient>
		<ellipse class="st0" cx="32.5" cy="31.8" rx="25.8" ry="25.2"/>
		<radialGradient id="SVGID_2_" cx="55.6841" cy="37.7919" r="26.3169" gradientTransform="matrix(1.1467 0 0 0.8856 -4.6173 7.5813)" gradientUnits="userSpaceOnUse">
			<stop  offset="0" style="stop-color:#0200CA;stop-opacity:0.3"/>
			<stop  offset="0.1921" style="stop-color:#0205CD;stop-opacity:0.2424"/>
			<stop  offset="0.4054" style="stop-color:#0212D4;stop-opacity:0.1784"/>
			<stop  offset="0.6288" style="stop-color:#0128E1;stop-opacity:0.1113"/>
			<stop  offset="0.8578" style="stop-color:#0047F2;stop-opacity:4.266742e-02"/>
			<stop  offset="1" style="stop-color:#005EFF;stop-opacity:0"/>
		</radialGradient>
		<ellipse class="st1" cx="59.2" cy="41" rx="30.2" ry="23.3"/>
		<radialGradient id="SVGID_3_" cx="47.678" cy="64.4264" r="23.3766" gradientTransform="matrix(0.8449 0 0 1 3.7681 0)" gradientUnits="userSpaceOnUse">
			<stop  offset="0" style="stop-color:#0200CA;stop-opacity:0.3"/>
			<stop  offset="0.1921" style="stop-color:#0205CD;stop-opacity:0.2424"/>
			<stop  offset="0.4054" style="stop-color:#0212D4;stop-opacity:0.1784"/>
			<stop  offset="0.6288" style="stop-color:#0128E1;stop-opacity:0.1113"/>
			<stop  offset="0.8578" style="stop-color:#0047F2;stop-opacity:4.266742e-02"/>
			<stop  offset="1" style="stop-color:#005EFF;stop-opacity:0"/>
		</radialGradient>
		<ellipse class="st2" cx="44.1" cy="64.4" rx="19.8" ry="23.4"/>
		<radialGradient id="SVGID_4_" cx="48" cy="48" r="8.9754" gradientUnits="userSpaceOnUse">
			<stop  offset="0" style="stop-color:#FFFFFF"/>
			<stop  offset="1.977524e-02" style="stop-color:#F1F5FE;stop-opacity:0.9813"/>
			<stop  offset="0.1309" style="stop-color:#A9C0FB;stop-opacity:0.8762"/>
			<stop  offset="0.2355" style="stop-color:#6D94F8;stop-opacity:0.7773"/>
			<stop  offset="0.3305" style="stop-color:#3E72F5;stop-opacity:0.6875"/>
			<stop  offset="0.414" style="stop-color:#1C59F3;stop-opacity:0.6085"/>
			<stop  offset="0.483" style="stop-color:#074AF2;stop-opacity:0.5433"/>
			<stop  offset="0.5288" style="stop-color:#0045F2;stop-opacity:0.5"/>
			<stop  offset="1" style="stop-color:#0037B6;stop-opacity:0"/>
		</radialGradient>
		<circle class="st3" cx="48" cy="48" r="9"/>
		<radialGradient id="SVGID_5_" cx="71.0546" cy="48.1119" r="16.3145" gradientTransform="matrix(1 0 0 0.6977 0 24.4055)" gradientUnits="userSpaceOnUse">
			<stop  offset="0" style="stop-color:#0072FA;stop-opacity:0.2"/>
			<stop  offset="0.229" style="stop-color:#006DF8;stop-opacity:0.1542"/>
			<stop  offset="0.5053" style="stop-color:#005EF3;stop-opacity:9.894015e-02"/>
			<stop  offset="0.805" style="stop-color:#0046E9;stop-opacity:3.900628e-02"/>
			<stop  offset="1" style="stop-color:#0032E2;stop-opacity:0"/>
		</radialGradient>
		<ellipse class="st4" cx="71.1" cy="58" rx="16.3" ry="11.4"/>
	</svg>

</svg>