<svg xmlns="http://www.w3.org/2000/svg" width="0" height="0">

	<svg id="xwing-logo" viewBox="0 0 428 106" cache="keep">
		<style type="text/css">
			.xwing-st0{fill:#eee;}
		</style>
	<path class="xwing-st0" d="M37.7,22.1c0.9,0,2-0.2,3.2-0.6c1.5-0.5,2.2-1.2,2.2-2c0-0.9-1-1.4-3-1.4H20c-1.6,0-2.3-0.7-2.3-2c0-0.6,0.2-1.3,0.7-2
		l4.6-8c0.6-1.1,1.5-2.1,2.8-2.8C27,2.4,28.1,2,29.3,2h20.1c1.5,0,2.3,0.7,2.3,2c0,0.6-0.2,1.3-0.6,2l-2.3,4c-0.4,0.7-0.6,1.4-0.6,2
		c0,1.3,0.8,2,2.3,2c1.1,0,2.2-0.4,3.5-1.2c1.3-0.8,2.2-1.7,2.8-2.8l2.3-4c0.6-1.1,1.5-2.1,2.8-2.8S64.3,2,65.4,2h20.1
		c1.5,0,2.3,0.7,2.3,2c0,0.6-0.2,1.3-0.6,2l-4.6,8c-0.7,1.1-1.6,2.1-2.8,2.8c-1.2,0.8-2.4,1.2-3.5,1.2H56.1c-0.9,0-2,0.2-3.2,0.6
		c-1.5,0.5-2.2,1.2-2.2,2c0,0.9,1,1.4,3,1.4h20.1c1.6,0,2.3,0.7,2.3,2c0,0.6-0.2,1.3-0.7,2l-9.2,16.1c-0.7,1.1-1.6,2.1-2.8,2.8
		c-1.2,0.8-2.4,1.2-3.5,1.2H39.9c-1.6,0-2.3-0.7-2.3-2c0-0.6,0.2-1.3,0.7-2l6.9-12c0.4-0.7,0.6-1.4,0.6-2c0-1.3-0.8-2-2.3-2
		c-1.1,0-2.3,0.4-3.5,1.2c-1.2,0.8-2.2,1.7-2.8,2.8l-6.9,12c-0.6,1.1-1.5,2.1-2.8,2.8c-1.3,0.8-2.4,1.2-3.6,1.2H3.7
		c-1.5,0-2.3-0.7-2.3-2c0-0.6,0.2-1.3,0.6-2l9.3-16.1c0.6-1.1,1.5-2.1,2.8-2.8c1.3-0.8,2.4-1.2,3.6-1.2H37.7z"/>
	<path class="xwing-st0" d="M148.7,10.1c1.5,0,2.3,0.7,2.3,2c0,0.6-0.2,1.3-0.6,2l-9.3,16.1c-0.6,1.1-1.5,2.1-2.8,2.8c-1.3,0.8-2.4,1.2-3.6,1.2H78.5
		c-1.5,0-2.3-0.7-2.3-2c0-0.6,0.2-1.3,0.6-2l9.3-16.1c0.6-1.1,1.5-2.1,2.8-2.8c1.3-0.8,2.4-1.2,3.6-1.2H148.7z"/>
	<path class="xwing-st0" d="M257.1,2c1.6,0,2.3,0.7,2.3,2c0,0.6-0.2,1.3-0.7,2l-20.8,36.1c-0.6,1.1-1.5,2.1-2.8,2.8c-1.3,0.8-2.4,1.2-3.6,1.2h-68.2
		l-12.7-21.5c-0.3-0.5-0.4-1.2-0.4-2.1c0-1.6,0.4-3.1,1.3-4.5l6.9-12c0.6-1.1,1.5-2.1,2.8-2.8c1.3-0.8,2.4-1.2,3.6-1.2h20.1
		c1.5,0,2.3,0.7,2.3,2c0,0.6-0.2,1.3-0.6,2L168,38.1c-0.4,0.7-0.6,1.4-0.6,2c0,1.3,0.8,2,2.3,2c1.1,0,2.3-0.4,3.6-1.2
		c1.3-0.8,2.2-1.7,2.8-2.8L194.6,6c0.6-1.1,1.5-2.1,2.8-2.8c1.3-0.8,2.4-1.2,3.6-1.2H221c1.5,0,2.3,0.7,2.3,2c0,0.6-0.2,1.3-0.6,2
		l-18.5,32.2c-0.4,0.7-0.6,1.4-0.6,2c0,1.3,0.8,2,2.3,2c1.1,0,2.3-0.4,3.5-1.2c1.2-0.8,2.2-1.7,2.8-2.8L230.7,6
		c0.7-1.1,1.6-2.1,2.8-2.8c1.2-0.8,2.4-1.2,3.5-1.2H257.1z"/>
	<path class="xwing-st0" d="M243.7,46.2c-1.6,0-2.3-0.7-2.3-2c0-0.6,0.2-1.3,0.6-2L262.9,6c0.6-1.1,1.5-2.1,2.8-2.8c1.3-0.8,2.4-1.2,3.6-1.2h20.1
		c1.5,0,2.3,0.7,2.3,2c0,0.6-0.2,1.3-0.6,2l-20.9,36.1c-0.6,1.1-1.5,2.1-2.8,2.8c-1.3,0.8-2.4,1.2-3.5,1.2H243.7z"/>
	<path class="xwing-st0" d="M357.5,2c1.5,0,2.3,0.7,2.3,2c0,0.6-0.2,1.3-0.6,2l-20.9,36.1c-0.6,1.1-1.5,2.1-2.8,2.8c-1.3,0.8-2.4,1.2-3.5,1.2h-20.1
		c-1.6,0-2.3-0.7-2.3-2c0-0.6,0.2-1.3,0.6-2L328.7,10c0.4-0.7,0.6-1.4,0.6-2c0-1.3-0.8-2-2.3-2c-1.1,0-2.3,0.4-3.5,1.2
		c-1.2,0.8-2.2,1.7-2.8,2.8l-18.6,32.1c-0.6,1.1-1.5,2.1-2.8,2.8c-1.3,0.8-2.4,1.2-3.5,1.2h-20.1c-1.6,0-2.3-0.7-2.3-2
		c0-0.6,0.2-1.3,0.6-2L294.9,6c0.6-1.1,1.5-2.1,2.8-2.8c1.3-0.8,2.4-1.2,3.6-1.2H357.5z"/>
	<path class="xwing-st0" d="M373.2,55.8c-0.3-0.6-0.5-1.4-0.5-2.3c0-1.4,0.3-2.7,1-3.8c0.3-0.6,0.4-1.1,0.4-1.6c0-1.3-0.8-1.9-2.4-1.9h-28.1
		c-1.6,0-2.3-0.7-2.3-2c0-0.6,0.2-1.3,0.6-2L362.7,6c0.6-1.1,1.5-2.1,2.8-2.8c1.3-0.8,2.4-1.2,3.6-1.2h56.2c1.5,0,2.3,0.7,2.3,2
		c0,0.6-0.2,1.3-0.6,2l-4.7,8c-0.6,1.1-1.5,2.1-2.8,2.8c-1.3,0.8-2.4,1.2-3.5,1.2h-20.1c-1.6,0-2.3-0.7-2.3-2c0-0.6,0.2-1.3,0.6-2
		l2.3-4c0.4-0.7,0.6-1.4,0.6-2c0-1.3-0.8-2-2.3-2c-1.1,0-2.3,0.4-3.5,1.2c-1.2,0.8-2.2,1.7-2.8,2.8l-16.2,28.1
		c-0.4,0.7-0.6,1.4-0.6,2c0,1.3,0.8,2,2.3,2c1.1,0,2.3-0.4,3.5-1.2c1.3-0.8,2.2-1.7,2.8-2.9l7-12c0.7-1.1,1.6-2.1,2.8-2.8
		c1.2-0.8,2.4-1.2,3.5-1.2h20.1c1.6,0,2.3,0.7,2.3,2c0,0.6-0.2,1.3-0.7,2l-27.2,47.2c-0.8,1.4-1.7,2.2-2.7,2.2
		c-0.5,0-0.9-0.3-1.2-0.8L373.2,55.8z"/>
	</svg>

	<svg id="made-with-impact" viewBox="0 0 135 49">
		<style type="text/css">
			.st0{fill:#eee;}
		</style>
		<path class="st0" d="M37.4,31.3L37.4,31.3l-0.1-0.1c-0.2-0.1-0.3-0.2-0.5-0.3L-0.5,5.1l14,18.7l-6.7-3.2l16.7,23.8
			c0.1,0.1,0.2,0.2,0.2,0.3l0.1,0.2l0,0c1.8,2.3,4.6,3.8,7.7,3.8c5.4,0,9.7-4.3,9.7-9.7C41.3,35.9,39.7,33.1,37.4,31.3z M31.6,44.7
			c-3.1,0-5.7-2.5-5.7-5.7c0-3.1,2.5-5.7,5.7-5.7c3.1,0,5.7,2.5,5.7,5.7C37.2,42.2,34.7,44.7,31.6,44.7z"/>
		<g id="impact">
			<path class="st0" d="M52.9,48.7h-5.6V16.5h5.6V48.7z"/>
			<path class="st0" d="M59.9,26.7l0,15v7h-4.5V16.5h8.1L65.1,36l1.7-19.5h8.1v32.2h-5.5v-7.2l0-14.7l-2.2,21.9H62L59.9,26.7z"/>
			<path class="st0" d="M83,48.7h-5.6V16.5h8.2c3.5,0,5.2,1.7,5.2,5.2v10.2c0,3.5-1.7,5.2-5.2,5.2H83V48.7z M84.2,21.3H83v11h1.2
				c0.7,0,1-0.3,1-1v-9C85.2,21.6,84.8,21.3,84.2,21.3z"/>
			<path class="st0" d="M100.4,48.7L100,44h-3.5l-0.4,4.7H91l3.7-32.2h7.6l3.7,32.2H100.4z M96.9,39.2h2.6l-1.3-14.9L96.9,39.2z"/>
			<path class="st0" d="M121.2,34.4v9.4c0,3.5-1.7,5.2-5.2,5.2h-3.4c-3.5,0-5.2-1.7-5.2-5.2V21.4c0-3.5,1.7-5.2,5.2-5.2h3.4
				c3.5,0,5.2,1.7,5.2,5.2V30h-5.5v-8c0-0.7-0.3-1-1-1H114c-0.6,0-1,0.3-1,1v21.2c0,0.7,0.3,1,1,1h0.7c0.7,0,1-0.3,1-1v-8.8H121.2z"/>
			<path class="st0" d="M126.1,48.7V21.5h-3.4v-5h12.4v5h-3.4v27.2H126.1z"/>
		</g>
		<g id="made_with">
			<path class="st0" d="M51.6,12h-1.5V4.2c0-0.3-0.1-0.5-0.4-0.5c-0.3,0-0.5,0.1-0.8,0.3v8h-1.5V2.5h1.5V3c0.4-0.3,0.8-0.6,1.4-0.6
				h0.1c0.6,0,1,0.2,1.1,0.7c0.4-0.4,0.9-0.7,1.5-0.7H53c0.8,0,1.3,0.5,1.3,1.4V12h-1.5V4.2c0-0.3-0.1-0.5-0.4-0.5
				c-0.3,0-0.5,0.1-0.8,0.3V12z"/>
			<path class="st0" d="M55.4,8.4c0-1,0.3-1.3,1.2-1.6l1.5-0.5v-2c0-0.4-0.2-0.5-0.5-0.5h-0.1c-0.4,0-0.5,0.2-0.5,0.5v1.6h-1.4V4.2
				c0-1.2,0.6-1.8,1.8-1.8h0.5c1.2,0,1.8,0.6,1.8,1.8V12h-1.5v-0.5c-0.4,0.3-0.8,0.6-1.4,0.6h0c-0.9,0-1.3-0.5-1.3-1.4V8.4z
				 M58.1,10.5V7.5l-0.8,0.3c-0.3,0.1-0.4,0.3-0.4,0.7v1.9c0,0.3,0.2,0.5,0.5,0.5C57.6,10.8,57.8,10.7,58.1,10.5z"/>
			<path class="st0" d="M65,12h-1.5v-0.5c-0.3,0.3-0.8,0.6-1.4,0.6h0c-0.9,0-1.4-0.6-1.4-1.5V3.9c0-0.9,0.5-1.5,1.4-1.5h0
				c0.6,0,1.1,0.3,1.4,0.6V0H65V12z M63.5,4c-0.2-0.2-0.5-0.3-0.8-0.3c-0.4,0-0.5,0.2-0.5,0.5v6c0,0.3,0.2,0.5,0.5,0.5
				c0.3,0,0.5-0.1,0.8-0.3V4z"/>
			<path class="st0" d="M67.7,7.8v2.4c0,0.4,0.2,0.5,0.5,0.5h0.2c0.4,0,0.5-0.2,0.5-0.5V8.7h1.4v1.6c0,1.2-0.6,1.8-1.8,1.8H68
				c-1.2,0-1.8-0.6-1.8-1.8V4.2c0-1.2,0.6-1.8,1.8-1.8h0.6c1.2,0,1.8,0.6,1.8,1.8v3.6H67.7z M67.7,6.6h1.2V4.3c0-0.4-0.2-0.5-0.5-0.5
				h-0.2c-0.4,0-0.5,0.2-0.5,0.5V6.6z"/>
			<path class="st0" d="M78.3,8.7l0.6-6.2h1.4L79,12h-1.5l-0.7-5.6L76.2,12h-1.5l-1.2-9.5h1.5l0.6,6.2l0.7-6.2h1.3L78.3,8.7z"/>
			<path class="st0" d="M81.2,0.3h1.5v1.4h-1.5V0.3z M81.2,2.5h1.5V12h-1.5V2.5z"/>
			<path class="st0" d="M85.7,12h-1.5V3.8h-0.5V2.5h0.5V1.1h1.5v1.4h0.8v1.3h-0.8V12z"/>
			<path class="st0" d="M87.4,0h1.5v3c0.4-0.3,0.8-0.6,1.4-0.6h0.1c0.9,0,1.3,0.5,1.3,1.4V12h-1.5V4.2c0-0.3-0.2-0.5-0.5-0.5
				c-0.3,0-0.5,0.1-0.8,0.3v8h-1.5V0z"/>
		</g>
	</svg>

</svg>