<svg xmlns="http://www.w3.org/2000/svg" width="0" height="0">

	<svg id="xwing-logo" viewBox="0 0 428 106" cache="keep">
		<style type="text/css">
			.xwing-st0{fill:#eee;}
		</style>
	<path class="xwing-st0" d="M37.7,22.1c0.9,0,2-0.2,3.2-0.6c1.5-0.5,2.2-1.2,2.2-2c0-0.9-1-1.4-3-1.4H20c-1.6,0-2.3-0.7-2.3-2c0-0.6,0.2-1.3,0.7-2
		l4.6-8c0.6-1.1,1.5-2.1,2.8-2.8C27,2.4,28.1,2,29.3,2h20.1c1.5,0,2.3,0.7,2.3,2c0,0.6-0.2,1.3-0.6,2l-2.3,4c-0.4,0.7-0.6,1.4-0.6,2
		c0,1.3,0.8,2,2.3,2c1.1,0,2.2-0.4,3.5-1.2c1.3-0.8,2.2-1.7,2.8-2.8l2.3-4c0.6-1.1,1.5-2.1,2.8-2.8S64.3,2,65.4,2h20.1
		c1.5,0,2.3,0.7,2.3,2c0,0.6-0.2,1.3-0.6,2l-4.6,8c-0.7,1.1-1.6,2.1-2.8,2.8c-1.2,0.8-2.4,1.2-3.5,1.2H56.1c-0.9,0-2,0.2-3.2,0.6
		c-1.5,0.5-2.2,1.2-2.2,2c0,0.9,1,1.4,3,1.4h20.1c1.6,0,2.3,0.7,2.3,2c0,0.6-0.2,1.3-0.7,2l-9.2,16.1c-0.7,1.1-1.6,2.1-2.8,2.8
		c-1.2,0.8-2.4,1.2-3.5,1.2H39.9c-1.6,0-2.3-0.7-2.3-2c0-0.6,0.2-1.3,0.7-2l6.9-12c0.4-0.7,0.6-1.4,0.6-2c0-1.3-0.8-2-2.3-2
		c-1.1,0-2.3,0.4-3.5,1.2c-1.2,0.8-2.2,1.7-2.8,2.8l-6.9,12c-0.6,1.1-1.5,2.1-2.8,2.8c-1.3,0.8-2.4,1.2-3.6,1.2H3.7
		c-1.5,0-2.3-0.7-2.3-2c0-0.6,0.2-1.3,0.6-2l9.3-16.1c0.6-1.1,1.5-2.1,2.8-2.8c1.3-0.8,2.4-1.2,3.6-1.2H37.7z"/>
	<path class="xwing-st0" d="M148.7,10.1c1.5,0,2.3,0.7,2.3,2c0,0.6-0.2,1.3-0.6,2l-9.3,16.1c-0.6,1.1-1.5,2.1-2.8,2.8c-1.3,0.8-2.4,1.2-3.6,1.2H78.5
		c-1.5,0-2.3-0.7-2.3-2c0-0.6,0.2-1.3,0.6-2l9.3-16.1c0.6-1.1,1.5-2.1,2.8-2.8c1.3-0.8,2.4-1.2,3.6-1.2H148.7z"/>
	<path class="xwing-st0" d="M257.1,2c1.6,0,2.3,0.7,2.3,2c0,0.6-0.2,1.3-0.7,2l-20.8,36.1c-0.6,1.1-1.5,2.1-2.8,2.8c-1.3,0.8-2.4,1.2-3.6,1.2h-68.2
		l-12.7-21.5c-0.3-0.5-0.4-1.2-0.4-2.1c0-1.6,0.4-3.1,1.3-4.5l6.9-12c0.6-1.1,1.5-2.1,2.8-2.8c1.3-0.8,2.4-1.2,3.6-1.2h20.1
		c1.5,0,2.3,0.7,2.3,2c0,0.6-0.2,1.3-0.6,2L168,38.1c-0.4,0.7-0.6,1.4-0.6,2c0,1.3,0.8,2,2.3,2c1.1,0,2.3-0.4,3.6-1.2
		c1.3-0.8,2.2-1.7,2.8-2.8L194.6,6c0.6-1.1,1.5-2.1,2.8-2.8c1.3-0.8,2.4-1.2,3.6-1.2H221c1.5,0,2.3,0.7,2.3,2c0,0.6-0.2,1.3-0.6,2
		l-18.5,32.2c-0.4,0.7-0.6,1.4-0.6,2c0,1.3,0.8,2,2.3,2c1.1,0,2.3-0.4,3.5-1.2c1.2-0.8,2.2-1.7,2.8-2.8L230.7,6
		c0.7-1.1,1.6-2.1,2.8-2.8c1.2-0.8,2.4-1.2,3.5-1.2H257.1z"/>
	<path class="xwing-st0" d="M243.7,46.2c-1.6,0-2.3-0.7-2.3-2c0-0.6,0.2-1.3,0.6-2L262.9,6c0.6-1.1,1.5-2.1,2.8-2.8c1.3-0.8,2.4-1.2,3.6-1.2h20.1
		c1.5,0,2.3,0.7,2.3,2c0,0.6-0.2,1.3-0.6,2l-20.9,36.1c-0.6,1.1-1.5,2.1-2.8,2.8c-1.3,0.8-2.4,1.2-3.5,1.2H243.7z"/>
	<path class="xwing-st0" d="M357.5,2c1.5,0,2.3,0.7,2.3,2c0,0.6-0.2,1.3-0.6,2l-20.9,36.1c-0.6,1.1-1.5,2.1-2.8,2.8c-1.3,0.8-2.4,1.2-3.5,1.2h-20.1
		c-1.6,0-2.3-0.7-2.3-2c0-0.6,0.2-1.3,0.6-2L328.7,10c0.4-0.7,0.6-1.4,0.6-2c0-1.3-0.8-2-2.3-2c-1.1,0-2.3,0.4-3.5,1.2
		c-1.2,0.8-2.2,1.7-2.8,2.8l-18.6,32.1c-0.6,1.1-1.5,2.1-2.8,2.8c-1.3,0.8-2.4,1.2-3.5,1.2h-20.1c-1.6,0-2.3-0.7-2.3-2
		c0-0.6,0.2-1.3,0.6-2L294.9,6c0.6-1.1,1.5-2.1,2.8-2.8c1.3-0.8,2.4-1.2,3.6-1.2H357.5z"/>
	<path class="xwing-st0" d="M373.2,55.8c-0.3-0.6-0.5-1.4-0.5-2.3c0-1.4,0.3-2.7,1-3.8c0.3-0.6,0.4-1.1,0.4-1.6c0-1.3-0.8-1.9-2.4-1.9h-28.1
		c-1.6,0-2.3-0.7-2.3-2c0-0.6,0.2-1.3,0.6-2L362.7,6c0.6-1.1,1.5-2.1,2.8-2.8c1.3-0.8,2.4-1.2,3.6-1.2h56.2c1.5,0,2.3,0.7,2.3,2
		c0,0.6-0.2,1.3-0.6,2l-4.7,8c-0.6,1.1-1.5,2.1-2.8,2.8c-1.3,0.8-2.4,1.2-3.5,1.2h-20.1c-1.6,0-2.3-0.7-2.3-2c0-0.6,0.2-1.3,0.6-2
		l2.3-4c0.4-0.7,0.6-1.4,0.6-2c0-1.3-0.8-2-2.3-2c-1.1,0-2.3,0.4-3.5,1.2c-1.2,0.8-2.2,1.7-2.8,2.8l-16.2,28.1
		c-0.4,0.7-0.6,1.4-0.6,2c0,1.3,0.8,2,2.3,2c1.1,0,2.3-0.4,3.5-1.2c1.3-0.8,2.2-1.7,2.8-2.9l7-12c0.7-1.1,1.6-2.1,2.8-2.8
		c1.2-0.8,2.4-1.2,3.5-1.2h20.1c1.6,0,2.3,0.7,2.3,2c0,0.6-0.2,1.3-0.7,2l-27.2,47.2c-0.8,1.4-1.7,2.2-2.7,2.2
		c-0.5,0-0.9-0.3-1.2-0.8L373.2,55.8z"/>
	</svg>

</svg>